STARTFONT 2.1
FONT -Baekmuk-Batang-Bold-R-Normal--16-160-75-75-M-160-KSX1001.1998-0
SIZE 16 75 75
FONTBOUNDINGBOX 19 18 0 -4
STARTPROPERTIES 18
FOUNDRY "Baekmuk"
FAMILY_NAME "Batang"
WEIGHT_NAME "Bold"
SLANT "R"
SETWIDTH_NAME "Normal"
ADD_STYLE_NAME ""
PIXEL_SIZE 16
POINT_SIZE 160
RESOLUTION_X 75
RESOLUTION_Y 75
SPACING "M"
AVERAGE_WIDTH 160
CHARSET_REGISTRY "KSX1001.1998"
CHARSET_ENCODING "0"
DEFAULT_CHAR 8481
FONT_ASCENT 13
FONT_DESCENT 3
COPYRIGHT "Copyright (c) Mizi Research, Inc. and Hwan Design, Inc."
ENDPROPERTIES
CHARS 8226
STARTCHAR K+2121
ENCODING 8481
SWIDTH 960 0
DWIDTH 16 0
BBX 0 0 0 0
BITMAP
ENDCHAR
STARTCHAR K+2122
ENCODING 8482
SWIDTH 960 0
DWIDTH 16 0
BBX 4 3 11 10
BITMAP
C0
70
30
ENDCHAR
STARTCHAR K+2123
ENCODING 8483
SWIDTH 960 0
DWIDTH 16 0
BBX 4 4 11 8
BITMAP
F0
30
F0
60
ENDCHAR
STARTCHAR K+2124
ENCODING 8484
SWIDTH 960 0
DWIDTH 16 0
BBX 3 2 7 4
BITMAP
E0
E0
ENDCHAR
STARTCHAR K+2125
ENCODING 8485
SWIDTH 960 0
DWIDTH 16 0
BBX 10 2 3 4
BITMAP
E0C0
E0C0
ENDCHAR
STARTCHAR K+2126
ENCODING 8486
SWIDTH 960 0
DWIDTH 16 0
BBX 13 2 2 4
BITMAP
C618
C618
ENDCHAR
STARTCHAR K+2127
ENCODING 8487
SWIDTH 960 0
DWIDTH 16 0
BBX 7 2 5 4
BITMAP
C6
C6
ENDCHAR
STARTCHAR K+2128
ENCODING 8488
SWIDTH 960 0
DWIDTH 16 0
BBX 5 4 6 3
BITMAP
78
D8
F0
F0
ENDCHAR
STARTCHAR K+2129
ENCODING 8489
SWIDTH 960 0
DWIDTH 16 0
BBX 9 1 4 4
BITMAP
FF80
ENDCHAR
STARTCHAR K+212A
ENCODING 8490
SWIDTH 960 0
DWIDTH 16 0
BBX 17 13 0 -2
BITMAP
000080
000080
000080
000080
000080
000080
FFFF80
000080
000080
000080
000080
000080
000080
ENDCHAR
STARTCHAR K+212B
ENCODING 8491
SWIDTH 960 0
DWIDTH 16 0
BBX 5 13 6 -2
BITMAP
D8
D8
D8
D8
D8
D8
D8
D8
D8
D8
D8
D8
D8
ENDCHAR
STARTCHAR K+212C
ENCODING 8492
SWIDTH 960 0
DWIDTH 16 0
BBX 15 13 1 -2
BITMAP
C000
6000
3800
0C00
0600
0300
0180
00C0
0060
0030
0018
000C
0006
ENDCHAR
STARTCHAR K+212D
ENCODING 8493
SWIDTH 960 0
DWIDTH 16 0
BBX 11 3 3 3
BITMAP
7800
CE60
07C0
ENDCHAR
STARTCHAR K+212E
ENCODING 8494
SWIDTH 960 0
DWIDTH 16 0
BBX 3 3 11 9
BITMAP
C0
C0
E0
ENDCHAR
STARTCHAR K+212F
ENCODING 8495
SWIDTH 960 0
DWIDTH 16 0
BBX 3 4 3 9
BITMAP
E0
60
60
C0
ENDCHAR
STARTCHAR K+2130
ENCODING 8496
SWIDTH 960 0
DWIDTH 16 0
BBX 7 4 9 9
BITMAP
66
CC
EC
EE
ENDCHAR
STARTCHAR K+2131
ENCODING 8497
SWIDTH 960 0
DWIDTH 16 0
BBX 7 5 1 8
BITMAP
0E
EE
66
6C
C0
ENDCHAR
STARTCHAR K+2132
ENCODING 8498
SWIDTH 960 0
DWIDTH 16 0
BBX 4 14 11 -2
BITMAP
30
E0
C0
C0
C0
C0
C0
C0
C0
C0
C0
C0
C0
70
ENDCHAR
STARTCHAR K+2133
ENCODING 8499
SWIDTH 960 0
DWIDTH 16 0
BBX 4 14 2 -2
BITMAP
C0
70
30
30
30
30
30
30
30
30
30
30
30
E0
ENDCHAR
STARTCHAR K+2134
ENCODING 8500
SWIDTH 960 0
DWIDTH 16 0
BBX 6 14 10 -2
BITMAP
0C
18
18
30
60
C0
C0
C0
C0
60
30
18
18
0C
ENDCHAR
STARTCHAR K+2135
ENCODING 8501
SWIDTH 960 0
DWIDTH 16 0
BBX 6 14 1 -2
BITMAP
C0
60
60
30
18
0C
0C
0C
0C
18
30
60
60
C0
ENDCHAR
STARTCHAR K+2136
ENCODING 8502
SWIDTH 960 0
DWIDTH 16 0
BBX 7 13 9 -2
BITMAP
1E
3C
3C
78
70
F0
E0
F0
70
38
3C
1C
1E
ENDCHAR
STARTCHAR K+2137
ENCODING 8503
SWIDTH 960 0
DWIDTH 16 0
BBX 7 12 1 -1
BITMAP
E0
70
78
38
3C
1C
1E
3C
3C
78
70
F0
ENDCHAR
STARTCHAR K+2138
ENCODING 8504
SWIDTH 960 0
DWIDTH 16 0
BBX 6 8 10 5
BITMAP
FC
C0
C0
C0
C0
C0
C0
C0
ENDCHAR
STARTCHAR K+2139
ENCODING 8505
SWIDTH 960 0
DWIDTH 16 0
BBX 7 8 1 -3
BITMAP
06
06
06
06
06
06
06
FE
ENDCHAR
STARTCHAR K+213A
ENCODING 8506
SWIDTH 960 0
DWIDTH 16 0
BBX 6 8 10 5
BITMAP
FC
FC
E0
E0
E0
E0
E0
E0
ENDCHAR
STARTCHAR K+213B
ENCODING 8507
SWIDTH 960 0
DWIDTH 16 0
BBX 7 7 1 -3
BITMAP
1E
1E
1E
1E
1E
FE
FE
ENDCHAR
STARTCHAR K+213C
ENCODING 8508
SWIDTH 960 0
DWIDTH 16 0
BBX 5 14 11 -2
BITMAP
F8
F0
F0
F0
E0
E0
E0
E0
E0
E0
E0
F0
F0
F8
ENDCHAR
STARTCHAR K+213D
ENCODING 8509
SWIDTH 960 0
DWIDTH 16 0
BBX 5 15 1 -3
BITMAP
F8
78
78
38
38
38
38
38
38
38
38
78
78
F8
F8
ENDCHAR
STARTCHAR K+213E
ENCODING 8510
SWIDTH 960 0
DWIDTH 16 0
BBX 12 10 3 0
BITMAP
0600
0600
0600
0600
FFF0
0600
0600
0600
0600
FFE0
ENDCHAR
STARTCHAR K+213F
ENCODING 8511
SWIDTH 960 0
DWIDTH 16 0
BBX 11 9 3 0
BITMAP
C060
60C0
3180
1B00
0E00
1F00
3180
60C0
C060
ENDCHAR
STARTCHAR K+2140
ENCODING 8512
SWIDTH 960 0
DWIDTH 16 0
BBX 12 10 3 0
BITMAP
0600
0600
0000
0000
0000
FFF0
0000
0000
0600
0600
ENDCHAR
STARTCHAR K+2141
ENCODING 8513
SWIDTH 960 0
DWIDTH 16 0
BBX 12 9 3 0
BITMAP
0C00
0C00
FFF0
0C00
0600
FFF0
0600
0600
0300
ENDCHAR
STARTCHAR K+2142
ENCODING 8514
SWIDTH 960 0
DWIDTH 16 0
BBX 11 9 3 0
BITMAP
00E0
0380
1E00
7000
E000
3C00
0780
00E0
FFE0
ENDCHAR
STARTCHAR K+2143
ENCODING 8515
SWIDTH 960 0
DWIDTH 16 0
BBX 11 9 3 0
BITMAP
E000
3800
0F00
01C0
00E0
0780
3C00
E000
FFE0
ENDCHAR
STARTCHAR K+2144
ENCODING 8516
SWIDTH 960 0
DWIDTH 16 0
BBX 14 7 2 1
BITMAP
78F0
CD98
070C
070C
070C
FDF8
3060
ENDCHAR
STARTCHAR K+2145
ENCODING 8517
SWIDTH 960 0
DWIDTH 16 0
BBX 10 8 3 1
BITMAP
0E00
0E00
0000
0000
0000
0000
E1C0
E1C0
ENDCHAR
STARTCHAR K+2146
ENCODING 8518
SWIDTH 960 0
DWIDTH 16 0
BBX 5 4 1 9
BITMAP
30
F8
D8
78
ENDCHAR
STARTCHAR K+2147
ENCODING 8519
SWIDTH 960 0
DWIDTH 16 0
BBX 5 4 1 9
BITMAP
38
30
60
C0
ENDCHAR
STARTCHAR K+2148
ENCODING 8520
SWIDTH 960 0
DWIDTH 16 0
BBX 6 3 2 10
BITMAP
6C
7C
D8
ENDCHAR
STARTCHAR K+2149
ENCODING 8521
SWIDTH 960 0
DWIDTH 16 0
BBX 11 12 3 0
BITMAP
F000
3F80
FCE0
3860
3060
3000
3000
3000
3000
3860
1CC0
0F80
ENDCHAR
STARTCHAR K+214A
ENCODING 8522
SWIDTH 960 0
DWIDTH 16 0
BBX 13 13 2 0
BITMAP
0F80
0D80
0D80
0700
0700
0F80
0D80
19C0
1FC0
30E0
30E0
6070
F9F8
ENDCHAR
STARTCHAR K+214B
ENCODING 8523
SWIDTH 960 0
DWIDTH 16 0
BBX 15 13 1 -2
BITMAP
07FE
0C78
1838
3060
30C0
3180
3300
3600
3C18
1E30
37E0
6000
C000
ENDCHAR
STARTCHAR K+214C
ENCODING 8524
SWIDTH 960 0
DWIDTH 16 0
BBX 11 12 3 -1
BITMAP
07C0
0EC0
0CE0
1CC0
1C00
7F80
0C00
0C00
7C60
DFC0
F3C0
6000
ENDCHAR
STARTCHAR K+214D
ENCODING 8525
SWIDTH 960 0
DWIDTH 16 0
BBX 12 11 3 0
BITMAP
FDF0
38C0
3980
1D80
7FE0
0E00
7FE0
0600
0600
0600
1F80
ENDCHAR
STARTCHAR K+214E
ENCODING 8526
SWIDTH 960 0
DWIDTH 16 0
BBX 9 13 4 -2
BITMAP
0C00
1E00
3F00
6D80
CD80
0C00
0C00
0C00
7F00
6300
6300
7700
3E00
ENDCHAR
STARTCHAR K+214F
ENCODING 8527
SWIDTH 960 0
DWIDTH 16 0
BBX 12 14 3 -2
BITMAP
0F00
3980
31C0
31C0
3180
1F00
0600
0600
FFF0
0600
0600
0600
0600
0600
ENDCHAR
STARTCHAR K+2150
ENCODING 8528
SWIDTH 960 0
DWIDTH 16 0
BBX 10 9 3 0
BITMAP
00C0
0180
0300
0600
0C00
1800
3000
E000
FFC0
ENDCHAR
STARTCHAR K+2151
ENCODING 8529
SWIDTH 960 0
DWIDTH 16 0
BBX 12 9 3 0
BITMAP
0600
0600
0600
0600
0600
0600
0600
0600
FFF0
ENDCHAR
STARTCHAR K+2152
ENCODING 8530
SWIDTH 960 0
DWIDTH 16 0
BBX 10 2 4 10
BITMAP
7F00
C1C0
ENDCHAR
STARTCHAR K+2153
ENCODING 8531
SWIDTH 960 0
DWIDTH 16 0
BBX 8 12 4 -1
BITMAP
1E
37
03
03
03
7F
67
C6
CE
CC
78
30
ENDCHAR
STARTCHAR K+2154
ENCODING 8532
SWIDTH 960 0
DWIDTH 16 0
BBX 13 9 2 0
BITMAP
FFF8
C030
6060
3060
30C0
1980
0D80
0F00
0600
ENDCHAR
STARTCHAR K+2155
ENCODING 8533
SWIDTH 960 0
DWIDTH 16 0
BBX 13 6 2 2
BITMAP
FFF8
0000
0000
FFF8
0000
FFF8
ENDCHAR
STARTCHAR K+2156
ENCODING 8534
SWIDTH 960 0
DWIDTH 16 0
BBX 13 9 2 0
BITMAP
3000
3000
FFF8
0000
0000
FFF8
0000
0060
0060
ENDCHAR
STARTCHAR K+2157
ENCODING 8535
SWIDTH 960 0
DWIDTH 16 0
BBX 7 14 5 -2
BITMAP
78
CC
CC
E0
70
7C
DC
CE
6C
78
1C
EE
CE
7C
ENDCHAR
STARTCHAR K+2158
ENCODING 8536
SWIDTH 960 0
DWIDTH 16 0
BBX 11 10 3 0
BITMAP
C060
6FC0
3F80
1B00
7FE0
7FE0
1B00
3180
6FC0
CF60
ENDCHAR
STARTCHAR K+2159
ENCODING 8537
SWIDTH 960 0
DWIDTH 16 0
BBX 13 11 2 -1
BITMAP
0700
0700
0F00
FDF8
C030
7060
18C0
18C0
37C0
3DE0
38E0
ENDCHAR
STARTCHAR K+215A
ENCODING 8538
SWIDTH 960 0
DWIDTH 16 0
BBX 13 11 2 -1
BITMAP
0300
0700
0700
0F80
FFF8
3FF0
1FC0
1FC0
1FC0
3DE0
38E0
ENDCHAR
STARTCHAR K+215B
ENCODING 8539
SWIDTH 960 0
DWIDTH 16 0
BBX 15 13 1 -2
BITMAP
0FE0
1C38
301C
600C
C006
C006
C006
C006
C006
600C
701C
1C38
0FE0
ENDCHAR
STARTCHAR K+215C
ENCODING 8540
SWIDTH 960 0
DWIDTH 16 0
BBX 14 13 2 -2
BITMAP
0FC0
3FE0
7FF0
FFF8
FFF8
FFFC
FFFC
FFFC
FFF8
FFF8
7FF0
3FE0
0FC0
ENDCHAR
STARTCHAR K+215D
ENCODING 8541
SWIDTH 960 0
DWIDTH 16 0
BBX 15 13 1 -2
BITMAP
0FE0
1C38
3FDC
7CEC
F876
F036
F036
F036
F876
7CEC
7FDC
1C38
0FE0
ENDCHAR
STARTCHAR K+215E
ENCODING 8542
SWIDTH 960 0
DWIDTH 16 0
BBX 15 14 1 -2
BITMAP
0380
06C0
0C60
1830
3018
600C
C006
C006
600C
3018
1830
0C60
06C0
0380
ENDCHAR
STARTCHAR K+215F
ENCODING 8543
SWIDTH 960 0
DWIDTH 16 0
BBX 15 14 1 -2
BITMAP
0380
07C0
0FE0
1FF0
3FF8
7FFC
FFFE
FFFE
7FFC
3FF8
1FF0
0FE0
07C0
0300
ENDCHAR
STARTCHAR K+2160
ENCODING 8544
SWIDTH 960 0
DWIDTH 16 0
BBX 14 13 2 -2
BITMAP
FFFC
C00C
C00C
C00C
C00C
C00C
C00C
C00C
C00C
C00C
C00C
C00C
FFFC
ENDCHAR
STARTCHAR K+2161
ENCODING 8545
SWIDTH 960 0
DWIDTH 16 0
BBX 13 13 2 -2
BITMAP
FFF8
FFF8
FFF8
FFF8
FFF8
FFF8
FFF8
FFF8
FFF8
FFF8
FFF8
FFF8
FFF8
ENDCHAR
STARTCHAR K+2162
ENCODING 8546
SWIDTH 960 0
DWIDTH 16 0
BBX 13 10 2 0
BITMAP
0600
0F00
0D80
1980
30C0
3060
6060
C030
C018
FFF8
ENDCHAR
STARTCHAR K+2163
ENCODING 8547
SWIDTH 960 0
DWIDTH 16 0
BBX 13 9 2 0
BITMAP
0700
0F80
0F80
1FC0
3FE0
3FE0
7FF0
FFF8
FFF8
ENDCHAR
STARTCHAR K+2164
ENCODING 8548
SWIDTH 960 0
DWIDTH 16 0
BBX 13 10 2 -1
BITMAP
FFF8
C018
C030
6060
3060
30C0
1980
0D80
0F00
0600
ENDCHAR
STARTCHAR K+2165
ENCODING 8549
SWIDTH 960 0
DWIDTH 16 0
BBX 13 9 2 0
BITMAP
FFF8
FFF8
7FF0
3FE0
3FE0
1FC0
0F80
0F80
0700
ENDCHAR
STARTCHAR K+2166
ENCODING 8550
SWIDTH 960 0
DWIDTH 16 0
BBX 15 5 1 2
BITMAP
0018
001C
FFFE
0018
0030
ENDCHAR
STARTCHAR K+2167
ENCODING 8551
SWIDTH 960 0
DWIDTH 16 0
BBX 15 5 1 2
BITMAP
3000
7000
FFFE
3000
1800
ENDCHAR
STARTCHAR K+2168
ENCODING 8552
SWIDTH 960 0
DWIDTH 16 0
BBX 6 14 6 -2
BITMAP
30
38
78
FC
30
30
30
30
30
30
30
30
30
30
ENDCHAR
STARTCHAR K+2169
ENCODING 8553
SWIDTH 960 0
DWIDTH 16 0
BBX 6 14 5 -2
BITMAP
30
30
30
30
30
30
30
30
30
30
FC
78
78
30
ENDCHAR
STARTCHAR K+216A
ENCODING 8554
SWIDTH 960 0
DWIDTH 16 0
BBX 13 5 2 2
BITMAP
0030
E018
FFF8
6030
3000
ENDCHAR
STARTCHAR K+216B
ENCODING 8555
SWIDTH 960 0
DWIDTH 16 0
BBX 13 4 2 3
BITMAP
FFF8
0000
0000
FFF8
ENDCHAR
STARTCHAR K+216C
ENCODING 8556
SWIDTH 960 0
DWIDTH 16 0
BBX 13 11 2 -1
BITMAP
0198
0770
0CC0
3B80
6600
CC00
7700
1980
0EE0
0330
0180
ENDCHAR
STARTCHAR K+216D
ENCODING 8557
SWIDTH 960 0
DWIDTH 16 0
BBX 13 11 2 -1
BITMAP
CC00
7700
1980
0EE0
0330
0198
0770
0CC0
3B80
6600
1C00
ENDCHAR
STARTCHAR K+216E
ENCODING 8558
SWIDTH 960 0
DWIDTH 16 0
BBX 15 14 1 -2
BITMAP
00FE
0180
0180
0180
0300
0300
0300
0600
6600
FC00
3C00
3C00
1800
1800
ENDCHAR
STARTCHAR K+216F
ENCODING 8559
SWIDTH 960 0
DWIDTH 16 0
BBX 13 7 2 1
BITMAP
79F0
C338
0618
0618
0C30
CDE0
F800
ENDCHAR
STARTCHAR K+2170
ENCODING 8560
SWIDTH 960 0
DWIDTH 16 0
BBX 12 7 2 1
BITMAP
3CF0
6780
C300
C300
C780
7CF0
1860
ENDCHAR
STARTCHAR K+2171
ENCODING 8561
SWIDTH 960 0
DWIDTH 16 0
BBX 9 8 4 1
BITMAP
C180
C180
0000
0000
0000
0000
1C00
1C00
ENDCHAR
STARTCHAR K+2172
ENCODING 8562
SWIDTH 960 0
DWIDTH 16 0
BBX 4 14 7 -2
BITMAP
70
F0
C0
C0
C0
E0
60
60
70
70
30
30
F0
E0
ENDCHAR
STARTCHAR K+2173
ENCODING 8563
SWIDTH 960 0
DWIDTH 16 0
BBX 9 14 4 -2
BITMAP
7000
F780
C600
C600
C600
E600
6700
6300
7380
7380
3180
3180
F180
E700
ENDCHAR
STARTCHAR K+2174
ENCODING 8564
SWIDTH 960 0
DWIDTH 16 0
BBX 13 9 2 0
BITMAP
0FF8
3800
6000
C000
FFF8
C000
C000
6000
3FF8
ENDCHAR
STARTCHAR K+2175
ENCODING 8565
SWIDTH 960 0
DWIDTH 16 0
BBX 13 9 2 0
BITMAP
FF80
00E0
0030
0018
FFF8
0018
0018
0030
FFE0
ENDCHAR
STARTCHAR K+2176
ENCODING 8566
SWIDTH 960 0
DWIDTH 16 0
BBX 11 9 3 0
BITMAP
3FC0
6000
C000
C000
C000
7000
1FC0
0000
FFE0
ENDCHAR
STARTCHAR K+2177
ENCODING 8567
SWIDTH 960 0
DWIDTH 16 0
BBX 11 9 3 0
BITMAP
7FC0
00E0
0060
0060
0060
01C0
7F00
0000
FFE0
ENDCHAR
STARTCHAR K+2178
ENCODING 8568
SWIDTH 960 0
DWIDTH 16 0
BBX 13 9 2 0
BITMAP
0FF8
3800
6000
C000
C000
C000
C000
6000
3FF8
ENDCHAR
STARTCHAR K+2179
ENCODING 8569
SWIDTH 960 0
DWIDTH 16 0
BBX 13 9 2 0
BITMAP
FF80
00E0
0030
0018
0018
0018
0018
0030
FFE0
ENDCHAR
STARTCHAR K+217A
ENCODING 8570
SWIDTH 960 0
DWIDTH 16 0
BBX 10 12 4 -1
BITMAP
00C0
00C0
00C0
00C0
00C0
00C0
00C0
00C0
00C0
C180
E300
3E00
ENDCHAR
STARTCHAR K+217B
ENCODING 8571
SWIDTH 960 0
DWIDTH 16 0
BBX 10 11 4 -1
BITMAP
3E00
6380
C1C0
00C0
00C0
00C0
00C0
00C0
00C0
00C0
00C0
ENDCHAR
STARTCHAR K+217C
ENCODING 8572
SWIDTH 960 0
DWIDTH 16 0
BBX 11 9 3 0
BITMAP
0E00
1E00
1B00
3300
3180
60C0
60C0
C060
C060
ENDCHAR
STARTCHAR K+217D
ENCODING 8573
SWIDTH 960 0
DWIDTH 16 0
BBX 11 10 3 0
BITMAP
C000
C060
60C0
60C0
3180
3180
1B00
1B00
0E00
0E00
ENDCHAR
STARTCHAR K+217E
ENCODING 8574
SWIDTH 960 0
DWIDTH 16 0
BBX 11 7 3 0
BITMAP
FFE0
0060
0060
0060
0060
0060
0060
ENDCHAR
STARTCHAR K+2221
ENCODING 8737
SWIDTH 960 0
DWIDTH 16 0
BBX 15 7 1 1
BITMAP
0018
FFFC
0006
0006
FFFC
0018
0030
ENDCHAR
STARTCHAR K+2222
ENCODING 8738
SWIDTH 960 0
DWIDTH 16 0
BBX 15 8 1 1
BITMAP
0C60
1830
3FF8
600C
C006
7FFC
1830
0C00
ENDCHAR
STARTCHAR K+2223
ENCODING 8739
SWIDTH 960 0
DWIDTH 16 0
BBX 13 12 2 0
BITMAP
C018
6030
6030
3060
3FE0
30C0
18C0
1980
0D80
0D80
0700
0700
ENDCHAR
STARTCHAR K+2224
ENCODING 8740
SWIDTH 960 0
DWIDTH 16 0
BBX 9 11 4 0
BITMAP
FF80
0180
0180
0180
0180
FF80
0180
0180
0180
0180
FF80
ENDCHAR
STARTCHAR K+2225
ENCODING 8741
SWIDTH 960 0
DWIDTH 16 0
BBX 3 2 7 11
BITMAP
E0
C0
ENDCHAR
STARTCHAR K+2226
ENCODING 8742
SWIDTH 960 0
DWIDTH 16 0
BBX 9 2 4 10
BITMAP
7F80
CF00
ENDCHAR
STARTCHAR K+2227
ENCODING 8743
SWIDTH 960 0
DWIDTH 16 0
BBX 5 2 6 10
BITMAP
F8
70
ENDCHAR
STARTCHAR K+2228
ENCODING 8744
SWIDTH 960 0
DWIDTH 16 0
BBX 7 3 5 10
BITMAP
C6
C6
7C
ENDCHAR
STARTCHAR K+2229
ENCODING 8745
SWIDTH 960 0
DWIDTH 16 0
BBX 5 2 6 11
BITMAP
F8
F0
ENDCHAR
STARTCHAR K+222A
ENCODING 8746
SWIDTH 960 0
DWIDTH 16 0
BBX 3 4 7 9
BITMAP
E0
60
60
C0
ENDCHAR
STARTCHAR K+222B
ENCODING 8747
SWIDTH 960 0
DWIDTH 16 0
BBX 3 2 7 4
BITMAP
E0
E0
ENDCHAR
STARTCHAR K+222C
ENCODING 8748
SWIDTH 960 0
DWIDTH 16 0
BBX 3 3 7 -2
BITMAP
E0
60
E0
ENDCHAR
STARTCHAR K+222D
ENCODING 8749
SWIDTH 960 0
DWIDTH 16 0
BBX 3 3 7 -2
BITMAP
C0
C0
E0
ENDCHAR
STARTCHAR K+222E
ENCODING 8750
SWIDTH 960 0
DWIDTH 16 0
BBX 3 11 7 0
BITMAP
C0
00
00
C0
C0
C0
C0
C0
C0
E0
C0
ENDCHAR
STARTCHAR K+222F
ENCODING 8751
SWIDTH 960 0
DWIDTH 16 0
BBX 5 11 6 0
BITMAP
30
00
00
30
30
70
E0
C0
C0
C0
78
ENDCHAR
STARTCHAR K+2230
ENCODING 8752
SWIDTH 960 0
DWIDTH 16 0
BBX 3 7 7 1
BITMAP
E0
00
00
00
00
E0
E0
ENDCHAR
STARTCHAR K+2231
ENCODING 8753
SWIDTH 960 0
DWIDTH 16 0
BBX 7 12 5 -1
BITMAP
0E
18
18
18
38
FC
FC
78
30
30
30
E0
ENDCHAR
STARTCHAR K+2232
ENCODING 8754
SWIDTH 960 0
DWIDTH 16 0
BBX 14 14 1 -2
BITMAP
FFFC
700C
380C
1C0C
0E0C
070C
0380
0300
0600
0C0C
180C
300C
7FFC
FFFC
ENDCHAR
STARTCHAR K+2233
ENCODING 8755
SWIDTH 960 0
DWIDTH 16 0
BBX 13 14 2 -2
BITMAP
FFF8
3060
3060
3060
3060
3060
3060
3060
3060
3060
3060
3060
3060
F9F8
ENDCHAR
STARTCHAR K+2234
ENCODING 8756
SWIDTH 960 0
DWIDTH 16 0
BBX 13 11 2 -1
BITMAP
EFB0
78E0
3060
6030
6030
6030
6030
7060
38E0
3FB0
E018
ENDCHAR
STARTCHAR K+2235
ENCODING 8757
SWIDTH 960 0
DWIDTH 16 0
BBX 14 12 1 -1
BITMAP
07FC
731C
F30C
F330
6330
03F0
0330
0330
0300
0300
0300
0FC0
ENDCHAR
STARTCHAR K+2236
ENCODING 8758
SWIDTH 960 0
DWIDTH 16 0
BBX 15 14 1 -2
BITMAP
7800
EC60
CCC0
CD80
CD80
CF00
7E00
0F9C
0EF6
1EF6
36F6
66F6
C6F6
C39C
ENDCHAR
STARTCHAR K+2237
ENCODING 8759
SWIDTH 960 0
DWIDTH 16 0
BBX 11 12 3 -1
BITMAP
0060
01E0
0760
0C60
3860
6060
C060
7060
1C60
0660
03E0
00E0
ENDCHAR
STARTCHAR K+2238
ENCODING 8760
SWIDTH 960 0
DWIDTH 16 0
BBX 10 10 3 0
BITMAP
01C0
07C0
0FC0
3FC0
FFC0
FFC0
3FC0
0FC0
07C0
01C0
ENDCHAR
STARTCHAR K+2239
ENCODING 8761
SWIDTH 960 0
DWIDTH 16 0
BBX 9 11 4 -1
BITMAP
C000
7000
1C00
0600
0380
0180
0300
0E00
3800
6000
C000
ENDCHAR
STARTCHAR K+223A
ENCODING 8762
SWIDTH 960 0
DWIDTH 16 0
BBX 10 10 4 0
BITMAP
E000
F800
FC00
FF00
FFC0
FFC0
FF00
FC00
F800
E000
ENDCHAR
STARTCHAR K+223B
ENCODING 8763
SWIDTH 960 0
DWIDTH 16 0
BBX 12 13 3 -2
BITMAP
0E00
1B00
3180
60C0
C0C0
C060
0030
0030
0030
DB70
FFE0
1B00
1F00
ENDCHAR
STARTCHAR K+223C
ENCODING 8764
SWIDTH 960 0
DWIDTH 16 0
BBX 13 13 2 -2
BITMAP
0700
0F80
1FC0
3FE0
3FE0
7FF0
7FF0
FFF8
FFF8
7FF0
3FE0
0700
0F80
ENDCHAR
STARTCHAR K+223D
ENCODING 8765
SWIDTH 960 0
DWIDTH 16 0
BBX 13 13 2 -2
BITMAP
3DE0
6730
C718
C018
C018
C030
C030
6060
3060
30C0
1980
0F00
0600
ENDCHAR
STARTCHAR K+223E
ENCODING 8766
SWIDTH 960 0
DWIDTH 16 0
BBX 13 13 2 -2
BITMAP
7DF0
FFF8
FFF8
FFF8
FFF8
FFF8
7FF0
7FF0
3FE0
1FC0
0F80
0780
0700
ENDCHAR
STARTCHAR K+223F
ENCODING 8767
SWIDTH 960 0
DWIDTH 16 0
BBX 15 14 1 -2
BITMAP
07C0
0C60
0C60
1860
0C60
06F8
7EEC
C006
C006
C006
E7CC
7FF8
06C0
07C0
ENDCHAR
STARTCHAR K+2240
ENCODING 8768
SWIDTH 960 0
DWIDTH 16 0
BBX 15 14 1 -2
BITMAP
07C0
0FE0
0FE0
0FE0
0FE0
3FF8
7FFC
FFFE
FFFE
FFFE
7FFC
0380
0380
07C0
ENDCHAR
STARTCHAR K+2241
ENCODING 8769
SWIDTH 960 0
DWIDTH 16 0
BBX 15 14 1 -2
BITMAP
0FE0
3838
701C
6FEC
DFF6
DFF6
DFF6
DFF6
DFF6
DFF6
6FEC
701C
3838
0FE0
ENDCHAR
STARTCHAR K+2242
ENCODING 8770
SWIDTH 960 0
DWIDTH 16 0
BBX 15 14 1 -2
BITMAP
0380
06C0
0C60
1BB0
3FD8
7FFC
FFFE
DFF6
6FEC
37D8
1BB0
0C60
06C0
0380
ENDCHAR
STARTCHAR K+2243
ENCODING 8771
SWIDTH 960 0
DWIDTH 16 0
BBX 13 12 2 -1
BITMAP
FFF8
0018
0018
1FD8
1FD8
1FD8
1FD8
1FD8
1FD8
0018
0018
FFF8
ENDCHAR
STARTCHAR K+2244
ENCODING 8772
SWIDTH 960 0
DWIDTH 16 0
BBX 14 14 2 -2
BITMAP
0FC0
3E70
7E38
7E18
FE1C
FE0C
FE0C
FE0C
FE0C
FE1C
7E18
7E38
3EF0
0FC0
ENDCHAR
STARTCHAR K+2245
ENCODING 8773
SWIDTH 960 0
DWIDTH 16 0
BBX 14 14 1 -2
BITMAP
0FC0
3DF0
31F8
61F8
E1FC
C1FC
C1FC
C1FC
C1FC
E1FC
61F8
31F8
3DF0
0FC0
ENDCHAR
STARTCHAR K+2246
ENCODING 8774
SWIDTH 960 0
DWIDTH 16 0
BBX 13 12 2 -1
BITMAP
FFF8
6FD8
DFF8
6FD8
DFF8
6FD8
DFF8
6FD8
DFF8
6FD8
0018
FFF8
ENDCHAR
STARTCHAR K+2247
ENCODING 8775
SWIDTH 960 0
DWIDTH 16 0
BBX 13 12 2 -1
BITMAP
FFF8
0018
0018
FFF8
0018
0018
FFF8
0018
FFF8
0018
0018
FFF8
ENDCHAR
STARTCHAR K+2248
ENCODING 8776
SWIDTH 960 0
DWIDTH 16 0
BBX 14 12 2 -1
BITMAP
FFFC
336C
336C
336C
336C
336C
336C
336C
336C
336C
336C
FFFC
ENDCHAR
STARTCHAR K+2249
ENCODING 8777
SWIDTH 960 0
DWIDTH 16 0
BBX 14 12 2 -1
BITMAP
FFFC
C61C
CC3C
D8EC
F18C
E30C
C63C
CC6C
D8CC
F18C
E30C
FFFC
ENDCHAR
STARTCHAR K+224A
ENCODING 8778
SWIDTH 960 0
DWIDTH 16 0
BBX 13 13 2 -2
BITMAP
FFF8
C618
6318
3198
18D8
0C78
C638
6318
3198
18D8
0C78
0638
FFF8
ENDCHAR
STARTCHAR K+224B
ENCODING 8779
SWIDTH 960 0
DWIDTH 16 0
BBX 13 12 2 -1
BITMAP
FFF8
DBD8
DBD8
FFF8
DBD8
DBD8
FFF8
DBD8
FFF8
DBD8
DBD8
FFF8
ENDCHAR
STARTCHAR K+224C
ENCODING 8780
SWIDTH 960 0
DWIDTH 16 0
BBX 14 12 2 -1
BITMAP
FFFC
EF3C
F9EC
D8EC
FDBC
C71C
C71C
EDBC
F8EC
FDEC
E73C
FFFC
ENDCHAR
STARTCHAR K+224D
ENCODING 8781
SWIDTH 960 0
DWIDTH 16 0
BBX 14 13 1 -2
BITMAP
0180
0FE0
0FE0
0FE0
0FE0
0FE0
0FE0
3FF8
EFEC
CFCC
E33C
7FF0
1FC0
ENDCHAR
STARTCHAR K+224E
ENCODING 8782
SWIDTH 960 0
DWIDTH 16 0
BBX 15 10 1 0
BITMAP
1FF0
7FDE
FFF6
FFF2
FE7E
3C38
6C38
6C3C
666C
7FFC
ENDCHAR
STARTCHAR K+224F
ENCODING 8783
SWIDTH 960 0
DWIDTH 16 0
BBX 15 10 1 0
BITMAP
1FF8
7FFE
FC7E
FFFE
0E70
1C38
3C3C
3C3C
3E7C
7FFC
ENDCHAR
STARTCHAR K+2250
ENCODING 8784
SWIDTH 960 0
DWIDTH 16 0
BBX 15 7 1 1
BITMAP
07E0
FFBE
FFCE
0FE6
0FC6
07BE
00E0
ENDCHAR
STARTCHAR K+2251
ENCODING 8785
SWIDTH 960 0
DWIDTH 16 0
BBX 15 6 1 2
BITMAP
0FFC
F87E
67F8
67F0
7BF0
CFE0
ENDCHAR
STARTCHAR K+2252
ENCODING 8786
SWIDTH 960 0
DWIDTH 16 0
BBX 10 14 3 -2
BITMAP
3EC0
66C0
C6C0
C6C0
C6C0
66C0
3EC0
06C0
06C0
06C0
06C0
06C0
06C0
0600
ENDCHAR
STARTCHAR K+2253
ENCODING 8787
SWIDTH 960 0
DWIDTH 16 0
BBX 10 14 4 -2
BITMAP
0C00
0C00
0C00
0C00
FFC0
0C00
0C00
0C00
0C00
0C00
0C00
0C00
0C00
0C00
ENDCHAR
STARTCHAR K+2254
ENCODING 8788
SWIDTH 960 0
DWIDTH 16 0
BBX 9 14 4 -2
BITMAP
1800
1800
FF80
1800
1800
FF00
1800
1800
1800
1800
1800
1800
1800
1800
ENDCHAR
STARTCHAR K+2255
ENCODING 8789
SWIDTH 960 0
DWIDTH 16 0
BBX 5 11 6 -1
BITMAP
70
F8
60
60
60
60
60
60
60
F8
70
ENDCHAR
STARTCHAR K+2256
ENCODING 8790
SWIDTH 960 0
DWIDTH 16 0
BBX 10 9 3 0
BITMAP
03C0
01C0
03C0
0600
0C00
1800
3000
6000
C000
ENDCHAR
STARTCHAR K+2257
ENCODING 8791
SWIDTH 960 0
DWIDTH 16 0
BBX 11 10 3 0
BITMAP
0060
00C0
0180
0300
0600
0C00
D800
F000
E000
F800
ENDCHAR
STARTCHAR K+2258
ENCODING 8792
SWIDTH 960 0
DWIDTH 16 0
BBX 10 9 4 0
BITMAP
F000
E000
3000
1800
0C00
0600
0300
0180
00C0
ENDCHAR
STARTCHAR K+2259
ENCODING 8793
SWIDTH 960 0
DWIDTH 16 0
BBX 11 10 3 0
BITMAP
C000
6000
3000
1800
0C00
0600
0360
01E0
00E0
03E0
ENDCHAR
STARTCHAR K+225A
ENCODING 8794
SWIDTH 960 0
DWIDTH 16 0
BBX 7 10 5 0
BITMAP
C0
C0
C0
FC
E6
C6
C6
CC
D8
F0
ENDCHAR
STARTCHAR K+225B
ENCODING 8795
SWIDTH 960 0
DWIDTH 16 0
BBX 5 13 5 -1
BITMAP
18
18
18
18
18
18
18
18
18
18
38
F8
E0
ENDCHAR
STARTCHAR K+225C
ENCODING 8796
SWIDTH 960 0
DWIDTH 16 0
BBX 9 12 3 -1
BITMAP
1800
1E00
1F00
1B80
1980
1980
1980
1980
1B00
1800
7800
F000
ENDCHAR
STARTCHAR K+225D
ENCODING 8797
SWIDTH 960 0
DWIDTH 16 0
BBX 13 11 2 -1
BITMAP
1FF8
1818
1FF8
1818
1818
1818
1818
1818
7878
F0F0
E000
ENDCHAR
STARTCHAR K+225E
ENCODING 8798
SWIDTH 960 0
DWIDTH 16 0
BBX 15 12 1 -1
BITMAP
0FC0
3870
7CF8
6DD8
CF80
CF00
FFBE
0D8E
6CCC
3CFC
1C38
0FE0
ENDCHAR
STARTCHAR K+225F
ENCODING 8799
SWIDTH 960 0
DWIDTH 16 0
BBX 15 12 1 -1
BITMAP
7FE0
C0CC
C18C
C7E6
DC3E
C006
E7FE
FF06
C306
C30C
C30C
6318
ENDCHAR
STARTCHAR K+2260
ENCODING 8800
SWIDTH 960 0
DWIDTH 16 0
BBX 15 12 1 -1
BITMAP
EF00
6600
7600
7600
7678
7ECC
7ECC
7ECC
6ECC
66CC
667E
0030
ENDCHAR
STARTCHAR K+2261
ENCODING 8801
SWIDTH 960 0
DWIDTH 16 0
BBX 15 12 1 -1
BITMAP
3E00
6300
6300
C000
C078
C0CC
C0CC
E0CC
63CC
66CC
3E7E
0030
ENDCHAR
STARTCHAR K+2262
ENCODING 8802
SWIDTH 960 0
DWIDTH 16 0
BBX 15 11 1 0
BITMAP
7F8E
DF9C
DBDC
19DC
19FC
19FC
19FC
19FC
19FC
19EC
3FDE
ENDCHAR
STARTCHAR K+2263
ENCODING 8803
SWIDTH 960 0
DWIDTH 16 0
BBX 16 10 1 -3
BITMAP
FBF9
D9F9
19F9
79F9
D9F9
D9F9
FFFF
0031
0001
0001
ENDCHAR
STARTCHAR K+2264
ENCODING 8804
SWIDTH 960 0
DWIDTH 16 0
BBX 15 10 1 -3
BITMAP
FBFC
CDEC
CDEC
CDEC
CDEC
CDEC
DFEE
F000
C000
E000
ENDCHAR
STARTCHAR K+2265
ENCODING 8805
SWIDTH 960 0
DWIDTH 16 0
BBX 15 12 1 -1
BITMAP
FF06
DB06
1986
1866
19F6
19BE
19BE
19E6
1986
1986
3CF6
0060
ENDCHAR
STARTCHAR K+2266
ENCODING 8806
SWIDTH 960 0
DWIDTH 16 0
BBX 11 11 1 0
BITMAP
1F80
30C0
6060
6000
FF80
6000
FF80
6000
6060
30C0
1F80
ENDCHAR
STARTCHAR K+2267
ENCODING 8807
SWIDTH 960 0
DWIDTH 16 0
BBX 13 12 1 0
BITMAP
0F80
38E0
6FB0
78F0
D8D8
D8D8
DF98
D8D8
78F0
78F0
38E0
0F80
ENDCHAR
STARTCHAR K+2321
ENCODING 8993
SWIDTH 960 0
DWIDTH 16 0
BBX 3 11 7 0
BITMAP
C0
C0
C0
60
60
60
60
00
00
00
C0
ENDCHAR
STARTCHAR K+2322
ENCODING 8994
SWIDTH 960 0
DWIDTH 16 0
BBX 6 3 6 10
BITMAP
7C
D8
F0
ENDCHAR
STARTCHAR K+2323
ENCODING 8995
SWIDTH 960 0
DWIDTH 16 0
BBX 7 13 5 -2
BITMAP
36
36
3C
6C
FE
6C
6C
6C
FE
D8
D8
D8
D8
ENDCHAR
STARTCHAR K+2324
ENCODING 8996
SWIDTH 960 0
DWIDTH 16 0
BBX 9 15 4 -3
BITMAP
3C00
7C00
FF00
3F00
3C00
FC00
FC00
3F00
3F00
3D80
3D80
FF00
FF00
3C00
3C00
ENDCHAR
STARTCHAR K+2325
ENCODING 8997
SWIDTH 960 0
DWIDTH 16 0
BBX 13 14 2 -3
BITMAP
F818
CC30
CC60
CCC0
CD80
DF00
7600
0EF0
1D98
3998
7198
6198
C1B8
00F0
ENDCHAR
STARTCHAR K+2326
ENCODING 8998
SWIDTH 960 0
DWIDTH 16 0
BBX 12 12 3 -1
BITMAP
0C00
3F00
3300
3700
3E00
39F0
FCC0
CCC0
CEC0
C780
E380
7FE0
ENDCHAR
STARTCHAR K+2327
ENCODING 8999
SWIDTH 960 0
DWIDTH 16 0
BBX 3 3 7 9
BITMAP
E0
C0
C0
ENDCHAR
STARTCHAR K+2328
ENCODING 9000
SWIDTH 960 0
DWIDTH 16 0
BBX 4 14 12 -2
BITMAP
30
60
60
C0
C0
C0
C0
C0
C0
C0
C0
60
60
30
ENDCHAR
STARTCHAR K+2329
ENCODING 9001
SWIDTH 960 0
DWIDTH 16 0
BBX 4 14 1 -2
BITMAP
C0
C0
60
60
30
30
30
30
30
30
30
60
60
C0
ENDCHAR
STARTCHAR K+232A
ENCODING 9002
SWIDTH 960 0
DWIDTH 16 0
BBX 7 6 5 2
BITMAP
18
1E
7C
38
FE
18
ENDCHAR
STARTCHAR K+232B
ENCODING 9003
SWIDTH 960 0
DWIDTH 16 0
BBX 11 10 3 0
BITMAP
0C00
0C00
0C00
0C00
0C00
FFE0
0C00
0C00
0C00
0C00
ENDCHAR
STARTCHAR K+232C
ENCODING 9004
SWIDTH 960 0
DWIDTH 16 0
BBX 3 3 1 -1
BITMAP
E0
60
C0
ENDCHAR
STARTCHAR K+232D
ENCODING 9005
SWIDTH 960 0
DWIDTH 16 0
BBX 11 1 3 4
BITMAP
FFE0
ENDCHAR
STARTCHAR K+232E
ENCODING 9006
SWIDTH 960 0
DWIDTH 16 0
BBX 2 2 1 0
BITMAP
C0
C0
ENDCHAR
STARTCHAR K+232F
ENCODING 9007
SWIDTH 960 0
DWIDTH 16 0
BBX 15 15 1 -3
BITMAP
0002
0006
000C
0018
0030
0060
00C0
0180
0300
0600
0C00
1800
3000
6000
C000
ENDCHAR
STARTCHAR K+2330
ENCODING 9008
SWIDTH 960 0
DWIDTH 16 0
BBX 7 12 5 -1
BITMAP
7C
6C
C6
C6
C6
C6
C6
C6
C6
CC
6C
38
ENDCHAR
STARTCHAR K+2331
ENCODING 9009
SWIDTH 960 0
DWIDTH 16 0
BBX 6 12 6 0
BITMAP
30
F0
30
30
30
30
30
30
30
30
30
FC
ENDCHAR
STARTCHAR K+2332
ENCODING 9010
SWIDTH 960 0
DWIDTH 16 0
BBX 7 11 5 0
BITMAP
7C
C6
E6
06
0C
0C
18
30
60
C6
FC
ENDCHAR
STARTCHAR K+2333
ENCODING 9011
SWIDTH 960 0
DWIDTH 16 0
BBX 7 12 5 -1
BITMAP
3C
66
66
06
0C
38
0C
06
06
C6
CC
78
ENDCHAR
STARTCHAR K+2334
ENCODING 9012
SWIDTH 960 0
DWIDTH 16 0
BBX 6 11 5 0
BITMAP
0C
0C
1C
3C
3C
6C
CC
CC
7C
0C
0C
ENDCHAR
STARTCHAR K+2335
ENCODING 9013
SWIDTH 960 0
DWIDTH 16 0
BBX 7 12 5 -1
BITMAP
FC
C0
C0
C0
FC
CE
06
06
C6
CE
7C
30
ENDCHAR
STARTCHAR K+2336
ENCODING 9014
SWIDTH 960 0
DWIDTH 16 0
BBX 7 11 5 0
BITMAP
3E
6E
C0
C0
FC
C6
C6
C6
C6
6C
3C
ENDCHAR
STARTCHAR K+2337
ENCODING 9015
SWIDTH 960 0
DWIDTH 16 0
BBX 7 11 5 0
BITMAP
FE
CC
0C
18
18
18
30
30
30
30
70
ENDCHAR
STARTCHAR K+2338
ENCODING 9016
SWIDTH 960 0
DWIDTH 16 0
BBX 7 11 5 0
BITMAP
7C
EC
C6
CC
6C
7C
C6
C6
C6
E6
7C
ENDCHAR
STARTCHAR K+2339
ENCODING 9017
SWIDTH 960 0
DWIDTH 16 0
BBX 7 12 5 -1
BITMAP
78
6C
C6
C6
C6
C6
7E
36
0C
6C
F8
30
ENDCHAR
STARTCHAR K+233A
ENCODING 9018
SWIDTH 960 0
DWIDTH 16 0
BBX 2 8 8 0
BITMAP
C0
C0
00
00
00
00
C0
C0
ENDCHAR
STARTCHAR K+233B
ENCODING 9019
SWIDTH 960 0
DWIDTH 16 0
BBX 3 10 7 -2
BITMAP
C0
C0
00
00
00
00
00
E0
60
C0
ENDCHAR
STARTCHAR K+233C
ENCODING 9020
SWIDTH 960 0
DWIDTH 16 0
BBX 10 10 4 0
BITMAP
00C0
0380
0E00
3800
E000
C000
7000
1C00
0700
01C0
ENDCHAR
STARTCHAR K+233D
ENCODING 9021
SWIDTH 960 0
DWIDTH 16 0
BBX 13 4 2 3
BITMAP
FFF8
0000
0000
FFF8
ENDCHAR
STARTCHAR K+233E
ENCODING 9022
SWIDTH 960 0
DWIDTH 16 0
BBX 11 10 3 0
BITMAP
C000
7000
1C00
0700
01C0
00E0
0380
0E00
3800
E000
ENDCHAR
STARTCHAR K+233F
ENCODING 9023
SWIDTH 960 0
DWIDTH 16 0
BBX 7 11 5 -1
BITMAP
7C
CE
EE
0E
0C
18
30
00
00
30
30
ENDCHAR
STARTCHAR K+2340
ENCODING 9024
SWIDTH 960 0
DWIDTH 16 0
BBX 11 11 3 -1
BITMAP
0F80
38C0
60C0
CF60
D9E0
D9E0
DB60
DFC0
61E0
30C0
1F80
ENDCHAR
STARTCHAR K+2341
ENCODING 9025
SWIDTH 960 0
DWIDTH 16 0
BBX 12 11 2 0
BITMAP
0700
0700
0F00
0D80
1980
1980
18C0
3FC0
30E0
3060
F8F0
ENDCHAR
STARTCHAR K+2342
ENCODING 9026
SWIDTH 960 0
DWIDTH 16 0
BBX 11 12 3 -1
BITMAP
FF80
30C0
30C0
30C0
3180
3F00
31C0
3060
3060
30C0
7980
0F00
ENDCHAR
STARTCHAR K+2343
ENCODING 9027
SWIDTH 960 0
DWIDTH 16 0
BBX 10 11 3 0
BITMAP
1F80
70C0
6000
C000
C000
C000
C000
C000
E000
70C0
3F80
ENDCHAR
STARTCHAR K+2344
ENCODING 9028
SWIDTH 960 0
DWIDTH 16 0
BBX 11 11 3 0
BITMAP
FF00
61C0
60C0
6060
6060
6060
6060
6060
60C0
6180
FF00
ENDCHAR
STARTCHAR K+2345
ENCODING 9029
SWIDTH 960 0
DWIDTH 16 0
BBX 11 11 3 0
BITMAP
FFC0
30C0
3060
3000
3300
3F00
3300
3000
3060
30C0
FFC0
ENDCHAR
STARTCHAR K+2346
ENCODING 9030
SWIDTH 960 0
DWIDTH 16 0
BBX 11 11 3 0
BITMAP
FFC0
30C0
3060
3000
3300
3F00
3300
3000
3000
3000
7C00
ENDCHAR
STARTCHAR K+2347
ENCODING 9031
SWIDTH 960 0
DWIDTH 16 0
BBX 11 12 3 -1
BITMAP
1FC0
30C0
6000
C000
C000
C000
C000
C1E0
C0C0
60C0
31C0
1F00
ENDCHAR
STARTCHAR K+2348
ENCODING 9032
SWIDTH 960 0
DWIDTH 16 0
BBX 13 11 2 0
BITMAP
7DF8
3060
3060
3060
3060
3FE0
3060
3060
3060
3060
FCF0
ENDCHAR
STARTCHAR K+2349
ENCODING 9033
SWIDTH 960 0
DWIDTH 16 0
BBX 6 11 6 0
BITMAP
FC
30
30
30
30
30
30
30
30
30
78
ENDCHAR
STARTCHAR K+234A
ENCODING 9034
SWIDTH 960 0
DWIDTH 16 0
BBX 8 13 4 -2
BITMAP
3F
0C
0C
0C
0C
0C
0C
0C
0C
0C
0C
6C
F8
ENDCHAR
STARTCHAR K+234B
ENCODING 9035
SWIDTH 960 0
DWIDTH 16 0
BBX 12 11 2 0
BITMAP
FDF0
30C0
3180
3300
3600
3E00
3300
3180
30C0
30C0
78F0
ENDCHAR
STARTCHAR K+234C
ENCODING 9036
SWIDTH 960 0
DWIDTH 16 0
BBX 9 11 4 0
BITMAP
F800
6000
6000
6000
6000
6000
6000
6000
6000
6380
FF80
ENDCHAR
STARTCHAR K+234D
ENCODING 9037
SWIDTH 960 0
DWIDTH 16 0
BBX 15 11 1 0
BITMAP
F03E
7078
7078
7878
78D8
6CD8
6D98
6798
6798
6318
FB7C
ENDCHAR
STARTCHAR K+234E
ENCODING 9038
SWIDTH 960 0
DWIDTH 16 0
BBX 12 11 2 0
BITMAP
F1F0
3060
3860
3C60
3C60
3660
3360
31E0
31E0
30E0
FC60
ENDCHAR
STARTCHAR K+234F
ENCODING 9039
SWIDTH 960 0
DWIDTH 16 0
BBX 11 11 3 0
BITMAP
3F80
71C0
60C0
C060
C060
C060
C060
C060
60C0
71C0
3F80
ENDCHAR
STARTCHAR K+2350
ENCODING 9040
SWIDTH 960 0
DWIDTH 16 0
BBX 11 11 3 0
BITMAP
7F80
30E0
3060
3060
30E0
3FC0
3000
3000
3000
3000
FC00
ENDCHAR
STARTCHAR K+2351
ENCODING 9041
SWIDTH 960 0
DWIDTH 16 0
BBX 11 13 3 -2
BITMAP
1F00
71C0
60C0
E060
C060
C060
C060
C060
D860
FEC0
3380
1F80
01E0
ENDCHAR
STARTCHAR K+2352
ENCODING 9042
SWIDTH 960 0
DWIDTH 16 0
BBX 10 11 3 0
BITMAP
FF80
31C0
30C0
30C0
3180
3F00
3600
3300
3180
3180
FCC0
ENDCHAR
STARTCHAR K+2353
ENCODING 9043
SWIDTH 960 0
DWIDTH 16 0
BBX 9 12 4 -1
BITMAP
7F00
C300
C000
C000
7000
1E00
0380
0180
0180
C300
7300
1E00
ENDCHAR
STARTCHAR K+2354
ENCODING 9044
SWIDTH 960 0
DWIDTH 16 0
BBX 12 11 3 0
BITMAP
7FE0
E670
C630
0600
0600
0600
0600
0600
0600
0600
0F00
ENDCHAR
STARTCHAR K+2355
ENCODING 9045
SWIDTH 960 0
DWIDTH 16 0
BBX 11 11 3 0
BITMAP
F1E0
60C0
60C0
60C0
60C0
60C0
60C0
60C0
60C0
7180
3F00
ENDCHAR
STARTCHAR K+2356
ENCODING 9046
SWIDTH 960 0
DWIDTH 16 0
BBX 11 10 3 1
BITMAP
F1E0
60C0
3180
3180
3180
1B00
1B00
1B00
0E00
0E00
ENDCHAR
STARTCHAR K+2357
ENCODING 9047
SWIDTH 960 0
DWIDTH 16 0
BBX 17 11 0 0
BITMAP
FBEF80
318600
30C600
31CC00
19CC00
1B6C00
1B7800
0F7800
0E3800
0E3800
063080
ENDCHAR
STARTCHAR K+2358
ENCODING 9048
SWIDTH 960 0
DWIDTH 16 0
BBX 11 11 3 0
BITMAP
FBC0
3180
3300
1E00
0E00
0E00
1E00
3300
3300
6180
FBE0
ENDCHAR
STARTCHAR K+2359
ENCODING 9049
SWIDTH 960 0
DWIDTH 16 0
BBX 11 11 3 0
BITMAP
F9E0
70C0
3180
1980
1B00
0E00
0600
0600
0600
0600
1F80
ENDCHAR
STARTCHAR K+235A
ENCODING 9050
SWIDTH 960 0
DWIDTH 16 0
BBX 9 11 4 0
BITMAP
7F80
6300
C300
0600
0C00
0C00
1800
3000
6000
6180
FF00
ENDCHAR
STARTCHAR K+235B
ENCODING 9051
SWIDTH 960 0
DWIDTH 16 0
BBX 4 15 12 -3
BITMAP
F0
C0
C0
C0
C0
C0
C0
C0
C0
C0
C0
C0
C0
C0
60
ENDCHAR
STARTCHAR K+235C
ENCODING 9052
SWIDTH 960 0
DWIDTH 16 0
BBX 16 13 1 -1
BITMAP
0001
0000
E38E
630C
618C
FFFE
3798
FFFE
36F0
1CF0
1CE0
1C60
0060
ENDCHAR
STARTCHAR K+235D
ENCODING 9053
SWIDTH 960 0
DWIDTH 16 0
BBX 4 15 1 -3
BITMAP
F0
30
30
30
30
30
30
30
30
30
30
30
30
30
60
ENDCHAR
STARTCHAR K+235E
ENCODING 9054
SWIDTH 960 0
DWIDTH 16 0
BBX 5 2 6 10
BITMAP
70
D8
ENDCHAR
STARTCHAR K+235F
ENCODING 9055
SWIDTH 960 0
DWIDTH 16 0
BBX 15 1 1 -2
BITMAP
FFFE
ENDCHAR
STARTCHAR K+2360
ENCODING 9056
SWIDTH 960 0
DWIDTH 16 0
BBX 5 6 6 7
BITMAP
E0
60
60
30
30
18
ENDCHAR
STARTCHAR K+2361
ENCODING 9057
SWIDTH 960 0
DWIDTH 16 0
BBX 8 8 4 -1
BITMAP
7C
E6
06
3E
66
C6
EF
38
ENDCHAR
STARTCHAR K+2362
ENCODING 9058
SWIDTH 960 0
DWIDTH 16 0
BBX 9 12 4 -1
BITMAP
E000
6000
6000
6000
7F00
6180
6180
6180
6180
6380
7700
1C00
ENDCHAR
STARTCHAR K+2363
ENCODING 9059
SWIDTH 960 0
DWIDTH 16 0
BBX 7 8 5 -1
BITMAP
7E
C6
C0
C0
C0
C0
6E
38
ENDCHAR
STARTCHAR K+2364
ENCODING 9060
SWIDTH 960 0
DWIDTH 16 0
BBX 8 12 4 -1
BITMAP
07
03
03
03
7F
63
C3
C3
C3
C3
7F
18
ENDCHAR
STARTCHAR K+2365
ENCODING 9061
SWIDTH 960 0
DWIDTH 16 0
BBX 8 8 5 0
BITMAP
3C
EE
C6
FE
C0
C0
E3
7E
ENDCHAR
STARTCHAR K+2366
ENCODING 9062
SWIDTH 960 0
DWIDTH 16 0
BBX 7 11 5 0
BITMAP
1E
30
30
30
FC
30
30
30
30
30
7C
ENDCHAR
STARTCHAR K+2367
ENCODING 9063
SWIDTH 960 0
DWIDTH 16 0
BBX 9 11 4 -3
BITMAP
3F80
6600
6600
6600
6600
3C00
6000
3E00
E300
C300
7E00
ENDCHAR
STARTCHAR K+2368
ENCODING 9064
SWIDTH 960 0
DWIDTH 16 0
BBX 8 11 4 0
BITMAP
60
60
60
60
7E
73
63
63
63
63
F3
ENDCHAR
STARTCHAR K+2369
ENCODING 9065
SWIDTH 960 0
DWIDTH 16 0
BBX 4 11 6 0
BITMAP
60
60
00
60
60
60
60
60
60
60
F0
ENDCHAR
STARTCHAR K+236A
ENCODING 9066
SWIDTH 960 0
DWIDTH 16 0
BBX 4 13 6 -2
BITMAP
30
30
00
00
F0
30
30
30
30
30
30
30
E0
ENDCHAR
STARTCHAR K+236B
ENCODING 9067
SWIDTH 960 0
DWIDTH 16 0
BBX 9 10 4 0
BITMAP
E000
6000
6000
6F80
6600
6C00
7800
6C00
6600
6700
ENDCHAR
STARTCHAR K+236C
ENCODING 9068
SWIDTH 960 0
DWIDTH 16 0
BBX 3 11 7 0
BITMAP
E0
60
60
60
60
60
60
60
60
60
60
ENDCHAR
STARTCHAR K+236D
ENCODING 9069
SWIDTH 960 0
DWIDTH 16 0
BBX 13 8 2 0
BITMAP
FEE0
73B0
6330
6330
6330
6330
6330
F7F8
ENDCHAR
STARTCHAR K+236E
ENCODING 9070
SWIDTH 960 0
DWIDTH 16 0
BBX 9 8 4 0
BITMAP
FE00
7300
6300
6300
6300
6300
6300
F780
ENDCHAR
STARTCHAR K+236F
ENCODING 9071
SWIDTH 960 0
DWIDTH 16 0
BBX 7 9 5 -1
BITMAP
78
CC
06
06
06
06
06
CC
78
ENDCHAR
STARTCHAR K+2370
ENCODING 9072
SWIDTH 960 0
DWIDTH 16 0
BBX 8 10 4 -3
BITMAP
7C
66
63
63
63
63
76
7C
60
F0
ENDCHAR
STARTCHAR K+2371
ENCODING 9073
SWIDTH 960 0
DWIDTH 16 0
BBX 8 10 5 -3
BITMAP
7E
C6
C6
C6
C6
C6
6E
3E
06
0F
ENDCHAR
STARTCHAR K+2372
ENCODING 9074
SWIDTH 960 0
DWIDTH 16 0
BBX 7 7 5 0
BITMAP
FE
70
60
60
60
60
60
ENDCHAR
STARTCHAR K+2373
ENCODING 9075
SWIDTH 960 0
DWIDTH 16 0
BBX 7 9 5 -1
BITMAP
30
FC
C6
70
3C
06
C6
7C
18
ENDCHAR
STARTCHAR K+2374
ENCODING 9076
SWIDTH 960 0
DWIDTH 16 0
BBX 6 10 6 -1
BITMAP
60
60
F8
60
60
60
60
60
60
3C
ENDCHAR
STARTCHAR K+2375
ENCODING 9077
SWIDTH 960 0
DWIDTH 16 0
BBX 8 8 4 -1
BITMAP
E7
63
63
63
63
63
7F
18
ENDCHAR
STARTCHAR K+2376
ENCODING 9078
SWIDTH 960 0
DWIDTH 16 0
BBX 7 7 5 0
BITMAP
E6
66
6C
6C
38
38
18
ENDCHAR
STARTCHAR K+2377
ENCODING 9079
SWIDTH 960 0
DWIDTH 16 0
BBX 11 7 3 0
BITMAP
EE60
6660
6EC0
7BC0
3B80
3380
0180
ENDCHAR
STARTCHAR K+2378
ENCODING 9080
SWIDTH 960 0
DWIDTH 16 0
BBX 9 7 4 0
BITMAP
FF80
3600
3C00
1C00
3E00
6300
F780
ENDCHAR
STARTCHAR K+2379
ENCODING 9081
SWIDTH 960 0
DWIDTH 16 0
BBX 9 10 4 -3
BITMAP
E380
6300
3600
3600
3C00
1C00
1C00
1800
1800
F000
ENDCHAR
STARTCHAR K+237A
ENCODING 9082
SWIDTH 960 0
DWIDTH 16 0
BBX 7 8 5 -1
BITMAP
7E
0C
18
30
30
66
CC
78
ENDCHAR
STARTCHAR K+237B
ENCODING 9083
SWIDTH 960 0
DWIDTH 16 0
BBX 4 15 11 -3
BITMAP
30
60
60
60
60
60
60
C0
60
60
60
60
60
60
30
ENDCHAR
STARTCHAR K+237C
ENCODING 9084
SWIDTH 960 0
DWIDTH 16 0
BBX 0 0 0 0
BITMAP
ENDCHAR
STARTCHAR K+237D
ENCODING 9085
SWIDTH 960 0
DWIDTH 16 0
BBX 4 15 1 -3
BITMAP
60
30
30
30
30
30
30
30
30
30
30
30
30
60
C0
ENDCHAR
STARTCHAR K+237E
ENCODING 9086
SWIDTH 960 0
DWIDTH 16 0
BBX 7 1 5 11
BITMAP
FE
ENDCHAR
STARTCHAR K+2421
ENCODING 9249
SWIDTH 960 0
DWIDTH 16 0
BBX 11 8 3 1
BITMAP
FFE0
6060
0060
0060
0060
0060
0060
0060
ENDCHAR
STARTCHAR K+2422
ENCODING 9250
SWIDTH 960 0
DWIDTH 16 0
BBX 13 8 2 1
BITMAP
FDF8
0C18
0C18
0C18
0C18
0C18
0C18
0C18
ENDCHAR
STARTCHAR K+2423
ENCODING 9251
SWIDTH 960 0
DWIDTH 16 0
BBX 13 8 2 1
BITMAP
FCC0
0C60
0CC0
0CC0
0CE0
0DB0
0F18
0C18
ENDCHAR
STARTCHAR K+2424
ENCODING 9252
SWIDTH 960 0
DWIDTH 16 0
BBX 12 7 3 2
BITMAP
E000
6000
6000
6000
6000
6070
3FF0
ENDCHAR
STARTCHAR K+2425
ENCODING 9253
SWIDTH 960 0
DWIDTH 16 0
BBX 13 8 2 1
BITMAP
E7F8
6360
6060
60C0
63E0
67B0
7F18
0018
ENDCHAR
STARTCHAR K+2426
ENCODING 9254
SWIDTH 960 0
DWIDTH 16 0
BBX 14 9 2 0
BITMAP
C0F0
601C
67FC
6060
61F0
6318
7F18
7318
01F0
ENDCHAR
STARTCHAR K+2427
ENCODING 9255
SWIDTH 960 0
DWIDTH 16 0
BBX 11 7 3 2
BITMAP
01C0
FFC0
C000
C000
C000
C0E0
FFE0
ENDCHAR
STARTCHAR K+2428
ENCODING 9256
SWIDTH 960 0
DWIDTH 16 0
BBX 14 9 2 0
BITMAP
E1F8
7D80
6180
6180
6180
6180
6780
7DFC
6000
ENDCHAR
STARTCHAR K+2429
ENCODING 9257
SWIDTH 960 0
DWIDTH 16 0
BBX 12 9 2 1
BITMAP
0060
FFE0
0060
00C0
00C0
7FE0
6000
6070
7FF0
ENDCHAR
STARTCHAR K+242A
ENCODING 9258
SWIDTH 960 0
DWIDTH 16 0
BBX 13 8 2 1
BITMAP
0018
FCF8
1818
1818
F018
C018
C618
FC18
ENDCHAR
STARTCHAR K+242B
ENCODING 9259
SWIDTH 960 0
DWIDTH 16 0
BBX 14 8 1 1
BITMAP
7EFC
0CCC
0CCC
FCCC
60CC
60CC
63FC
7EC0
ENDCHAR
STARTCHAR K+242C
ENCODING 9260
SWIDTH 960 0
DWIDTH 16 0
BBX 13 9 2 0
BITMAP
7E18
0D98
0D98
FDF8
6198
6198
6398
7FF8
0018
ENDCHAR
STARTCHAR K+242D
ENCODING 9261
SWIDTH 960 0
DWIDTH 16 0
BBX 13 8 2 1
BITMAP
FE60
0C60
0C60
FCC0
60E0
61B0
6398
7F18
ENDCHAR
STARTCHAR K+242E
ENCODING 9262
SWIDTH 960 0
DWIDTH 16 0
BBX 15 8 1 1
BITMAP
7EFE
0CC0
0CC0
FCFC
60C0
60C0
63C0
7EFE
ENDCHAR
STARTCHAR K+242F
ENCODING 9263
SWIDTH 960 0
DWIDTH 16 0
BBX 14 8 2 1
BITMAP
7E38
0FF0
0C30
FF30
61B0
61E0
6FFC
7FFC
ENDCHAR
STARTCHAR K+2430
ENCODING 9264
SWIDTH 960 0
DWIDTH 16 0
BBX 15 9 1 0
BITMAP
FCF8
0C00
0FFE
0C30
78F8
60CC
618C
6CCC
78F8
ENDCHAR
STARTCHAR K+2431
ENCODING 9265
SWIDTH 960 0
DWIDTH 16 0
BBX 11 8 3 1
BITMAP
FFE0
6060
6060
6060
60C0
60C0
7FE0
6000
ENDCHAR
STARTCHAR K+2432
ENCODING 9266
SWIDTH 960 0
DWIDTH 16 0
BBX 10 10 3 0
BITMAP
01C0
E0C0
60C0
60C0
7FC0
60C0
60C0
60C0
7FC0
60C0
ENDCHAR
STARTCHAR K+2433
ENCODING 9267
SWIDTH 960 0
DWIDTH 16 0
BBX 13 10 2 0
BITMAP
0030
EF98
6D98
6D98
7DF8
6D98
6D98
6D98
7DF8
6D98
ENDCHAR
STARTCHAR K+2434
ENCODING 9268
SWIDTH 960 0
DWIDTH 16 0
BBX 13 9 2 0
BITMAP
E660
6660
66E0
7EC0
66E0
67B0
6718
7E18
6000
ENDCHAR
STARTCHAR K+2435
ENCODING 9269
SWIDTH 960 0
DWIDTH 16 0
BBX 12 8 3 1
BITMAP
0E00
0600
0C00
0F00
1980
30E0
6060
C030
ENDCHAR
STARTCHAR K+2436
ENCODING 9270
SWIDTH 960 0
DWIDTH 16 0
BBX 13 8 2 1
BITMAP
1860
0C60
18C0
1CC0
37E0
6730
C618
0C18
ENDCHAR
STARTCHAR K+2437
ENCODING 9271
SWIDTH 960 0
DWIDTH 16 0
BBX 9 9 4 1
BITMAP
0C00
3E00
6300
C180
C180
C180
C180
6300
3E00
ENDCHAR
STARTCHAR K+2438
ENCODING 9272
SWIDTH 960 0
DWIDTH 16 0
BBX 12 9 2 1
BITMAP
0060
7FF0
3300
0300
0700
0DC0
1870
3030
E000
ENDCHAR
STARTCHAR K+2439
ENCODING 9273
SWIDTH 960 0
DWIDTH 16 0
BBX 15 7 1 2
BITMAP
7FFC
3C30
0C30
1C60
36F8
63CC
C186
ENDCHAR
STARTCHAR K+243A
ENCODING 9274
SWIDTH 960 0
DWIDTH 16 0
BBX 13 9 2 0
BITMAP
0F80
0000
FFF0
7300
0700
0F80
1CE0
3030
E018
ENDCHAR
STARTCHAR K+243B
ENCODING 9275
SWIDTH 960 0
DWIDTH 16 0
BBX 10 10 4 0
BITMAP
00C0
FFC0
60C0
00C0
03C0
7EC0
E0C0
0180
0180
0180
ENDCHAR
STARTCHAR K+243C
ENCODING 9276
SWIDTH 960 0
DWIDTH 16 0
BBX 11 8 4 1
BITMAP
FFC0
C000
C000
C000
FFC0
C000
C0E0
FFE0
ENDCHAR
STARTCHAR K+243D
ENCODING 9277
SWIDTH 960 0
DWIDTH 16 0
BBX 13 8 2 1
BITMAP
0070
7FF0
31C0
18C0
18C0
1980
0180
FFF8
ENDCHAR
STARTCHAR K+243E
ENCODING 9278
SWIDTH 960 0
DWIDTH 16 0
BBX 13 9 2 0
BITMAP
0FB0
01F8
FF00
0380
0EC0
18C0
18C0
1CC0
0F80
ENDCHAR
STARTCHAR K+243F
ENCODING 9279
SWIDTH 960 0
DWIDTH 16 0
BBX 7 14 6 -2
BITMAP
E0
60
60
60
60
60
6C
7E
60
60
60
60
60
60
ENDCHAR
STARTCHAR K+2440
ENCODING 9280
SWIDTH 960 0
DWIDTH 16 0
BBX 7 14 5 -2
BITMAP
1E
E6
66
66
66
66
66
7E
66
66
66
66
66
06
ENDCHAR
STARTCHAR K+2441
ENCODING 9281
SWIDTH 960 0
DWIDTH 16 0
BBX 7 14 6 -2
BITMAP
E0
60
60
60
6C
7E
60
60
6C
7E
60
60
60
60
ENDCHAR
STARTCHAR K+2442
ENCODING 9282
SWIDTH 960 0
DWIDTH 16 0
BBX 6 14 6 -2
BITMAP
1C
CC
CC
CC
FC
CC
CC
CC
FC
CC
CC
CC
CC
0C
ENDCHAR
STARTCHAR K+2443
ENCODING 9283
SWIDTH 960 0
DWIDTH 16 0
BBX 7 14 4 -2
BITMAP
1C
06
06
06
06
06
FE
06
06
06
06
06
06
06
ENDCHAR
STARTCHAR K+2444
ENCODING 9284
SWIDTH 960 0
DWIDTH 16 0
BBX 9 14 4 -2
BITMAP
0380
3180
1980
1980
1980
1980
1980
F980
1980
1980
1980
1980
1980
0180
ENDCHAR
STARTCHAR K+2445
ENCODING 9285
SWIDTH 960 0
DWIDTH 16 0
BBX 7 14 4 -2
BITMAP
0E
06
06
06
FE
66
06
06
FE
06
06
06
06
06
ENDCHAR
STARTCHAR K+2446
ENCODING 9286
SWIDTH 960 0
DWIDTH 16 0
BBX 10 14 3 -2
BITMAP
01C0
0CC0
0CC0
0CC0
FCC0
0CC0
0CC0
0CC0
1CC0
7CC0
0CC0
0CC0
0CC0
00C0
ENDCHAR
STARTCHAR K+2447
ENCODING 9287
SWIDTH 960 0
DWIDTH 16 0
BBX 14 8 2 1
BITMAP
0700
0300
0300
0300
0300
0318
07FC
FC00
ENDCHAR
STARTCHAR K+2448
ENCODING 9288
SWIDTH 960 0
DWIDTH 16 0
BBX 15 14 1 -2
BITMAP
0070
0030
0030
1C30
0C30
0C30
0C36
0C3C
0CF0
FFB0
6030
0030
0030
0030
ENDCHAR
STARTCHAR K+2449
ENCODING 9289
SWIDTH 960 0
DWIDTH 16 0
BBX 12 14 3 -2
BITMAP
00E0
0630
0330
7330
3330
3330
3330
33F0
3330
3F30
E330
0330
0330
0030
ENDCHAR
STARTCHAR K+244A
ENCODING 9290
SWIDTH 960 0
DWIDTH 16 0
BBX 12 14 2 -2
BITMAP
00E0
0030
0030
1C30
0C30
0C30
0C30
0C30
0CF0
1FB0
F030
0030
0030
0030
ENDCHAR
STARTCHAR K+244B
ENCODING 9291
SWIDTH 960 0
DWIDTH 16 0
BBX 15 7 1 2
BITMAP
0060
0C60
0C60
0C60
0C60
0C60
FFFE
ENDCHAR
STARTCHAR K+244C
ENCODING 9292
SWIDTH 960 0
DWIDTH 16 0
BBX 15 11 1 -2
BITMAP
0006
FFFE
3180
0180
0180
0180
0180
0180
0180
0180
0180
ENDCHAR
STARTCHAR K+244D
ENCODING 9293
SWIDTH 960 0
DWIDTH 16 0
BBX 12 14 2 -2
BITMAP
00C0
0070
0030
0030
03B0
FE30
0C30
0FF0
0C30
0C30
0C30
0C30
0030
0030
ENDCHAR
STARTCHAR K+244E
ENCODING 9294
SWIDTH 960 0
DWIDTH 16 0
BBX 14 14 1 -2
BITMAP
001C
00CC
006C
006C
006C
FF6C
0C6C
0FEC
0C6C
0C6C
0C6C
006C
000C
000C
ENDCHAR
STARTCHAR K+244F
ENCODING 9295
SWIDTH 960 0
DWIDTH 16 0
BBX 13 14 1 -2
BITMAP
0070
0018
0018
0018
0018
C7F8
7E18
0618
0618
0618
0618
0618
0018
0018
ENDCHAR
STARTCHAR K+2450
ENCODING 9296
SWIDTH 960 0
DWIDTH 16 0
BBX 15 11 1 -2
BITMAP
000E
FFFE
7C60
0C60
0C60
0C60
0C60
0C60
0C60
0C60
0C60
ENDCHAR
STARTCHAR K+2451
ENCODING 9297
SWIDTH 960 0
DWIDTH 16 0
BBX 15 2 1 4
BITMAP
001E
FFFE
ENDCHAR
STARTCHAR K+2452
ENCODING 9298
SWIDTH 960 0
DWIDTH 16 0
BBX 13 14 1 -2
BITMAP
0070
0018
0018
0018
0018
0018
0018
0078
DFD8
7018
0018
0018
0018
0018
ENDCHAR
STARTCHAR K+2453
ENCODING 9299
SWIDTH 960 0
DWIDTH 16 0
BBX 3 14 7 -2
BITMAP
E0
60
60
60
60
60
60
60
60
60
60
60
60
60
ENDCHAR
STARTCHAR K+2454
ENCODING 9300
SWIDTH 960 0
DWIDTH 16 0
BBX 0 0 0 0
BITMAP
ENDCHAR
STARTCHAR K+2455
ENCODING 9301
SWIDTH 960 0
DWIDTH 16 0
BBX 13 8 3 1
BITMAP
0600
C300
C300
C300
C300
CF00
FB00
E3F8
ENDCHAR
STARTCHAR K+2456
ENCODING 9302
SWIDTH 960 0
DWIDTH 16 0
BBX 13 9 3 1
BITMAP
0030
03F0
C300
C300
C300
C300
C300
DB38
F3F8
ENDCHAR
STARTCHAR K+2457
ENCODING 9303
SWIDTH 960 0
DWIDTH 16 0
BBX 13 8 2 1
BITMAP
E0E0
60C0
60C0
61C0
61E0
6330
7E18
0C00
ENDCHAR
STARTCHAR K+2458
ENCODING 9304
SWIDTH 960 0
DWIDTH 16 0
BBX 14 8 2 1
BITMAP
C0C0
60E0
61E0
61B0
6330
6718
6F18
7FFC
ENDCHAR
STARTCHAR K+2459
ENCODING 9305
SWIDTH 960 0
DWIDTH 16 0
BBX 15 8 1 1
BITMAP
FFB8
1998
19B0
F9B0
71B8
61EC
67CE
7DC6
ENDCHAR
STARTCHAR K+245A
ENCODING 9306
SWIDTH 960 0
DWIDTH 16 0
BBX 14 9 2 1
BITMAP
0018
FFFC
0D80
0D80
FD80
6180
6180
6380
7FFC
ENDCHAR
STARTCHAR K+245B
ENCODING 9307
SWIDTH 960 0
DWIDTH 16 0
BBX 15 9 1 0
BITMAP
DED8
7FD8
0FD8
FFD8
63D8
63FC
63F6
7BE6
03C0
ENDCHAR
STARTCHAR K+245C
ENCODING 9308
SWIDTH 960 0
DWIDTH 16 0
BBX 13 8 2 1
BITMAP
FE60
06E0
0CE0
7EF0
61B0
6198
6718
7FF8
ENDCHAR
STARTCHAR K+245D
ENCODING 9309
SWIDTH 960 0
DWIDTH 16 0
BBX 15 8 1 1
BITMAP
FE00
0DFE
0C60
FCF0
6198
6198
6798
7CF0
ENDCHAR
STARTCHAR K+245E
ENCODING 9310
SWIDTH 960 0
DWIDTH 16 0
BBX 13 10 2 0
BITMAP
0030
0318
FD98
CD98
CDF8
CD98
CD98
CD98
FDF8
C198
ENDCHAR
STARTCHAR K+245F
ENCODING 9311
SWIDTH 960 0
DWIDTH 16 0
BBX 13 9 2 0
BITMAP
00C0
FCE0
CCC0
CCC0
CCE0
D9B0
DB38
FE18
CC00
ENDCHAR
STARTCHAR K+2460
ENCODING 9312
SWIDTH 960 0
DWIDTH 16 0
BBX 13 8 2 1
BITMAP
00E0
FCE0
CCE0
CCF0
CDB0
D9B0
DB18
FFF8
ENDCHAR
STARTCHAR K+2461
ENCODING 9313
SWIDTH 960 0
DWIDTH 16 0
BBX 8 11 5 -1
BITMAP
FF
C3
C3
C6
FF
7C
E6
C6
C6
EE
7C
ENDCHAR
STARTCHAR K+2462
ENCODING 9314
SWIDTH 960 0
DWIDTH 16 0
BBX 12 9 2 0
BITMAP
EE30
67F0
6630
7E30
6630
6630
6630
7E30
0600
ENDCHAR
STARTCHAR K+2463
ENCODING 9315
SWIDTH 960 0
DWIDTH 16 0
BBX 13 9 2 0
BITMAP
EFF8
6780
6780
7F80
6780
6780
6798
7FF8
6600
ENDCHAR
STARTCHAR K+2464
ENCODING 9316
SWIDTH 960 0
DWIDTH 16 0
BBX 14 10 1 0
BITMAP
1800
EDCC
6CFC
6CCC
7D8C
6DCC
6F6C
6E3C
7E0C
6000
ENDCHAR
STARTCHAR K+2465
ENCODING 9317
SWIDTH 960 0
DWIDTH 16 0
BBX 15 8 1 1
BITMAP
CD8E
6DB8
6DB0
7DB0
6FB0
6FF0
6EF0
7C3E
ENDCHAR
STARTCHAR K+2466
ENCODING 9318
SWIDTH 960 0
DWIDTH 16 0
BBX 14 9 1 0
BITMAP
CFFC
6660
6660
7E60
6670
66D8
678C
7F0C
6600
ENDCHAR
STARTCHAR K+2467
ENCODING 9319
SWIDTH 960 0
DWIDTH 16 0
BBX 14 10 1 0
BITMAP
0018
E7FC
6780
6780
7FF8
6780
6780
6780
7FFC
6000
ENDCHAR
STARTCHAR K+2468
ENCODING 9320
SWIDTH 960 0
DWIDTH 16 0
BBX 8 13 5 -2
BITMAP
C3
C3
FF
C3
C3
FF
C0
7C
C6
C3
C3
C6
7C
ENDCHAR
STARTCHAR K+2469
ENCODING 9321
SWIDTH 960 0
DWIDTH 16 0
BBX 12 13 2 -2
BITMAP
EDB0
6DB0
7DF0
6DB0
6DB0
7DF0
6180
0FC0
1CE0
1860
1860
1CE0
0FC0
ENDCHAR
STARTCHAR K+246A
ENCODING 9322
SWIDTH 960 0
DWIDTH 16 0
BBX 13 8 2 1
BITMAP
1818
0DF8
1818
1818
3C18
3618
6718
C318
ENDCHAR
STARTCHAR K+246B
ENCODING 9323
SWIDTH 960 0
DWIDTH 16 0
BBX 15 8 1 1
BITMAP
0DC0
0CC0
0CC0
18C0
1CC0
37C0
63CC
C0FE
ENDCHAR
STARTCHAR K+246C
ENCODING 9324
SWIDTH 960 0
DWIDTH 16 0
BBX 15 8 1 1
BITMAP
0CFC
0CC0
0CC0
18C0
1CC0
36C0
63C0
C0FE
ENDCHAR
STARTCHAR K+246D
ENCODING 9325
SWIDTH 960 0
DWIDTH 16 0
BBX 14 8 1 1
BITMAP
0DCC
0CCC
0CCC
18FC
1CCC
37CC
63FC
C0CC
ENDCHAR
STARTCHAR K+246E
ENCODING 9326
SWIDTH 960 0
DWIDTH 16 0
BBX 14 8 1 1
BITMAP
1DFC
0C60
1C30
1860
3C70
36D8
638C
C18C
ENDCHAR
STARTCHAR K+246F
ENCODING 9327
SWIDTH 960 0
DWIDTH 16 0
BBX 10 9 4 1
BITMAP
1800
0C00
1C00
3600
3600
6300
C180
C180
FFC0
ENDCHAR
STARTCHAR K+2470
ENCODING 9328
SWIDTH 960 0
DWIDTH 16 0
BBX 13 7 2 1
BITMAP
78F0
CD98
CD98
CF18
CD98
CD98
78F0
ENDCHAR
STARTCHAR K+2471
ENCODING 9329
SWIDTH 960 0
DWIDTH 16 0
BBX 9 9 4 1
BITMAP
1C00
0C00
7E00
E380
C180
C180
C180
6300
3E00
ENDCHAR
STARTCHAR K+2472
ENCODING 9330
SWIDTH 960 0
DWIDTH 16 0
BBX 13 9 2 1
BITMAP
3800
18E0
7C60
EEC0
C6C0
C7E0
C7B0
EF18
7E18
ENDCHAR
STARTCHAR K+2473
ENCODING 9331
SWIDTH 960 0
DWIDTH 16 0
BBX 14 9 2 1
BITMAP
30C0
3060
78E0
CCE0
CDB0
CDB0
CF18
CF18
7BFC
ENDCHAR
STARTCHAR K+2474
ENCODING 9332
SWIDTH 960 0
DWIDTH 16 0
BBX 11 12 3 -1
BITMAP
7FE0
0300
0380
1B00
1B00
FFE0
0000
1F00
3180
3180
3180
1F00
ENDCHAR
STARTCHAR K+2475
ENCODING 9333
SWIDTH 960 0
DWIDTH 16 0
BBX 15 9 1 0
BITMAP
3C78
0706
FFFE
0000
7CF8
66CC
66CC
66CC
3C78
ENDCHAR
STARTCHAR K+2476
ENCODING 9334
SWIDTH 960 0
DWIDTH 16 0
BBX 11 10 3 0
BITMAP
00E0
FFE0
0000
0000
1F00
3B80
3180
3180
3B80
1F00
ENDCHAR
STARTCHAR K+2477
ENCODING 9335
SWIDTH 960 0
DWIDTH 16 0
BBX 15 14 1 -2
BITMAP
0070
0030
0030
01B0
19B0
19BE
19B0
19B0
19F0
FFFE
0030
0030
0030
0030
ENDCHAR
STARTCHAR K+2478
ENCODING 9336
SWIDTH 960 0
DWIDTH 16 0
BBX 12 14 2 -2
BITMAP
0070
01B0
01B0
07F0
77F0
37F0
37F0
37F0
37F0
3FF0
E1F0
01F0
01F0
0030
ENDCHAR
STARTCHAR K+2479
ENCODING 9337
SWIDTH 960 0
DWIDTH 16 0
BBX 12 14 2 -2
BITMAP
0070
0030
0030
0730
3330
1B30
1B30
1B30
1BF0
FFB0
6030
0030
0030
0030
ENDCHAR
STARTCHAR K+247A
ENCODING 9338
SWIDTH 960 0
DWIDTH 16 0
BBX 13 14 1 -2
BITMAP
0038
0018
0018
0018
03D8
FF18
1BF8
1B18
1B18
1BF8
1B18
0318
0018
0018
ENDCHAR
STARTCHAR K+247B
ENCODING 9339
SWIDTH 960 0
DWIDTH 16 0
BBX 12 14 2 -2
BITMAP
0070
0030
00F0
00F0
00F0
3EF0
FCF0
3DF0
3CF0
3FF0
3CF0
00F0
0030
0030
ENDCHAR
STARTCHAR K+247C
ENCODING 9340
SWIDTH 960 0
DWIDTH 16 0
BBX 12 14 2 -2
BITMAP
0070
0030
0030
0030
0030
DFB0
7B30
1B30
1B30
1B30
1B30
1B30
0030
0030
ENDCHAR
STARTCHAR K+247D
ENCODING 9341
SWIDTH 960 0
DWIDTH 16 0
BBX 4 3 7 4
BITMAP
E0
F0
E0
ENDCHAR
STARTCHAR K+247E
ENCODING 9342
SWIDTH 960 0
DWIDTH 16 0
BBX 9 14 4 -2
BITMAP
0380
0180
0180
0180
F180
F180
F180
0180
0180
0180
0180
0180
0180
0180
ENDCHAR
STARTCHAR K+2521
ENCODING 9505
SWIDTH 960 0
DWIDTH 16 0
BBX 3 11 7 0
BITMAP
60
00
00
00
E0
60
60
60
60
60
60
ENDCHAR
STARTCHAR K+2522
ENCODING 9506
SWIDTH 960 0
DWIDTH 16 0
BBX 8 11 4 0
BITMAP
63
00
00
00
E7
63
63
63
63
63
63
ENDCHAR
STARTCHAR K+2523
ENCODING 9507
SWIDTH 960 0
DWIDTH 16 0
BBX 10 11 3 0
BITMAP
66C0
0000
0000
0000
EFC0
66C0
66C0
66C0
66C0
66C0
66C0
ENDCHAR
STARTCHAR K+2524
ENCODING 9508
SWIDTH 960 0
DWIDTH 16 0
BBX 11 11 3 0
BITMAP
6000
6000
0000
0000
EC60
6CC0
66C0
6780
6380
6380
6000
ENDCHAR
STARTCHAR K+2525
ENCODING 9509
SWIDTH 960 0
DWIDTH 16 0
BBX 8 7 5 0
BITMAP
E7
66
6C
3C
3C
18
18
ENDCHAR
STARTCHAR K+2526
ENCODING 9510
SWIDTH 960 0
DWIDTH 16 0
BBX 10 11 4 0
BITMAP
00C0
00C0
0000
0000
CDC0
CCC0
D8C0
78C0
70C0
30C0
30C0
ENDCHAR
STARTCHAR K+2527
ENCODING 9511
SWIDTH 960 0
DWIDTH 16 0
BBX 12 11 3 0
BITMAP
0330
0330
0000
0000
CF70
DB30
DB30
7330
7330
7330
0330
ENDCHAR
STARTCHAR K+2528
ENCODING 9512
SWIDTH 960 0
DWIDTH 16 0
BBX 14 12 2 -1
BITMAP
036C
036C
0000
0000
CF78
DB78
7B78
7B78
7378
3378
3378
01F0
ENDCHAR
STARTCHAR K+2529
ENCODING 9513
SWIDTH 960 0
DWIDTH 16 0
BBX 12 11 3 0
BITMAP
6000
6000
0000
E000
7FE0
6EC0
6780
6700
6D80
6CC0
FFF0
ENDCHAR
STARTCHAR K+252A
ENCODING 9514
SWIDTH 960 0
DWIDTH 16 0
BBX 9 7 4 0
BITMAP
7700
3600
1C00
1C00
3C00
6600
E780
ENDCHAR
STARTCHAR K+2530
ENCODING 9520
SWIDTH 960 0
DWIDTH 16 0
BBX 5 11 6 0
BITMAP
F8
60
60
60
60
60
60
60
60
60
F8
ENDCHAR
STARTCHAR K+2531
ENCODING 9521
SWIDTH 960 0
DWIDTH 16 0
BBX 11 11 3 0
BITMAP
FFC0
3180
3180
3180
3180
3180
3180
3180
3180
3180
7FE0
ENDCHAR
STARTCHAR K+2532
ENCODING 9522
SWIDTH 960 0
DWIDTH 16 0
BBX 14 12 2 -1
BITMAP
FFFC
6330
6330
6330
6330
6330
6330
6330
6330
6330
F7F8
1CC0
ENDCHAR
STARTCHAR K+2533
ENCODING 9523
SWIDTH 960 0
DWIDTH 16 0
BBX 14 11 2 0
BITMAP
FF7C
6C30
6E30
6660
6660
6760
63C0
63C0
63C0
6180
F180
ENDCHAR
STARTCHAR K+2534
ENCODING 9524
SWIDTH 960 0
DWIDTH 16 0
BBX 13 11 2 0
BITMAP
FCF8
3060
3060
18C0
18C0
1D80
0D80
0D80
0700
0700
0600
ENDCHAR
STARTCHAR K+2535
ENCODING 9525
SWIDTH 960 0
DWIDTH 16 0
BBX 14 11 2 0
BITMAP
FBFC
61B0
6330
3330
3330
3630
3E30
1E30
1C30
1C30
0078
ENDCHAR
STARTCHAR K+2536
ENCODING 9526
SWIDTH 960 0
DWIDTH 16 0
BBX 15 12 1 -1
BITMAP
FBFE
71EC
336C
336C
336C
1E6C
1E6C
1E6C
1E6C
0C6C
0C6C
0038
ENDCHAR
STARTCHAR K+2537
ENCODING 9527
SWIDTH 960 0
DWIDTH 16 0
BBX 15 12 1 -1
BITMAP
F7FE
63FC
76FC
36FC
36FC
3CFC
3CFC
3CFC
1CFC
18FC
19FE
0078
ENDCHAR
STARTCHAR K+2538
ENCODING 9528
SWIDTH 960 0
DWIDTH 16 0
BBX 13 11 2 0
BITMAP
FF78
6630
6660
63C0
6380
6180
63C0
66C0
6660
6C70
FE78
ENDCHAR
STARTCHAR K+2539
ENCODING 9529
SWIDTH 960 0
DWIDTH 16 0
BBX 12 11 3 0
BITMAP
FBE0
3180
3300
1B00
0E00
0E00
1E00
3300
6180
61C0
FBF0
ENDCHAR
STARTCHAR K+2541
ENCODING 9537
SWIDTH 960 0
DWIDTH 16 0
BBX 13 11 2 0
BITMAP
00E0
01E0
0360
0360
0660
0C60
1860
1FE0
3060
6030
F078
ENDCHAR
STARTCHAR K+2542
ENCODING 9538
SWIDTH 960 0
DWIDTH 16 0
BBX 13 12 2 -1
BITMAP
1FE0
0630
0C18
0C30
0C60
1FC0
1860
1830
3030
3060
F9C0
0F00
ENDCHAR
STARTCHAR K+2543
ENCODING 9539
SWIDTH 960 0
DWIDTH 16 0
BBX 12 11 3 0
BITMAP
3FF0
0C60
1860
1860
1800
3000
3000
3000
3000
6000
F000
ENDCHAR
STARTCHAR K+2544
ENCODING 9540
SWIDTH 960 0
DWIDTH 16 0
BBX 11 11 3 0
BITMAP
0060
00E0
01E0
0360
0660
0CC0
18C0
30C0
60C0
C0C0
FFC0
ENDCHAR
STARTCHAR K+2545
ENCODING 9541
SWIDTH 960 0
DWIDTH 16 0
BBX 13 11 2 0
BITMAP
1FF0
0618
0C18
0C00
0CC0
1F80
1980
1980
3030
3060
FFE0
ENDCHAR
STARTCHAR K+2546
ENCODING 9542
SWIDTH 960 0
DWIDTH 16 0
BBX 11 11 3 0
BITMAP
1FE0
38C0
3180
0300
0600
0C00
1800
1800
3000
6380
FF80
ENDCHAR
STARTCHAR K+2547
ENCODING 9543
SWIDTH 960 0
DWIDTH 16 0
BBX 15 11 1 0
BITMAP
1F3E
0C18
0C18
0C30
1830
1FF0
1830
3060
3060
3060
FBE0
ENDCHAR
STARTCHAR K+2548
ENCODING 9544
SWIDTH 960 0
DWIDTH 16 0
BBX 11 12 3 -1
BITMAP
0FC0
3860
7060
6060
FB60
DF60
C360
C0C0
C0C0
6180
3700
1C00
ENDCHAR
STARTCHAR K+2549
ENCODING 9545
SWIDTH 960 0
DWIDTH 16 0
BBX 8 11 5 0
BITMAP
3F
0C
18
18
18
30
30
30
30
60
F0
ENDCHAR
STARTCHAR K+254A
ENCODING 9546
SWIDTH 960 0
DWIDTH 16 0
BBX 15 11 1 0
BITMAP
1FBE
0618
0C70
0CC0
0F80
1F80
1D80
18C0
30C0
3060
FDF8
ENDCHAR
STARTCHAR K+254B
ENCODING 9547
SWIDTH 960 0
DWIDTH 16 0
BBX 12 11 3 0
BITMAP
01C0
03C0
03C0
06C0
0CC0
0CC0
18C0
30C0
30C0
60C0
F3F0
ENDCHAR
STARTCHAR K+254C
ENCODING 9548
SWIDTH 960 0
DWIDTH 16 0
BBX 16 11 1 0
BITMAP
1E0E
0E1C
1E3C
1E3C
1E78
36D8
36D8
3798
6730
6730
F6F9
ENDCHAR
STARTCHAR K+254D
ENCODING 9549
SWIDTH 960 0
DWIDTH 16 0
BBX 15 11 1 0
BITMAP
1E3E
0618
0E18
1B18
1B30
19B0
19B0
31E0
30E0
30E0
F800
ENDCHAR
STARTCHAR K+254E
ENCODING 9550
SWIDTH 960 0
DWIDTH 16 0
BBX 13 11 2 0
BITMAP
1FF8
1830
0030
0000
00C0
1FC0
1800
0000
6060
60C0
FFC0
ENDCHAR
STARTCHAR K+254F
ENCODING 9551
SWIDTH 960 0
DWIDTH 16 0
BBX 11 12 3 -1
BITMAP
0FC0
18C0
3060
6060
6060
C0C0
C0C0
C0C0
C180
6300
3600
1C00
ENDCHAR
STARTCHAR K+2550
ENCODING 9552
SWIDTH 960 0
DWIDTH 16 0
BBX 14 11 2 0
BITMAP
1FFC
0C30
1830
1860
1860
1860
30C0
30C0
30C0
6180
F3C0
ENDCHAR
STARTCHAR K+2551
ENCODING 9553
SWIDTH 960 0
DWIDTH 16 0
BBX 13 11 2 0
BITMAP
0FF0
0638
0C18
0C30
0C70
1FE0
1800
1800
3000
3000
FC00
ENDCHAR
STARTCHAR K+2552
ENCODING 9554
SWIDTH 960 0
DWIDTH 16 0
BBX 11 11 3 0
BITMAP
1FE0
1860
0C00
0C00
0600
0700
0600
1C00
30C0
6180
FF80
ENDCHAR
STARTCHAR K+2553
ENCODING 9555
SWIDTH 960 0
DWIDTH 16 0
BBX 13 11 2 0
BITMAP
3FF0
6330
C318
0600
0600
0600
0C00
0C00
0C00
1800
7E00
ENDCHAR
STARTCHAR K+2554
ENCODING 9556
SWIDTH 960 0
DWIDTH 16 0
BBX 11 12 3 0
BITMAP
3060
F9E0
0F00
0C00
0C00
1800
1800
1800
3000
3000
3000
F800
ENDCHAR
STARTCHAR K+2555
ENCODING 9557
SWIDTH 960 0
DWIDTH 16 0
BBX 11 11 3 0
BITMAP
07C0
0F80
3EC0
66C0
6660
CCE0
CCC0
CDC0
7B80
3F00
7C00
ENDCHAR
STARTCHAR K+2556
ENCODING 9558
SWIDTH 960 0
DWIDTH 16 0
BBX 14 11 1 0
BITMAP
0F3C
0630
0660
06C0
0380
0380
0780
0CC0
18C0
3060
F9F8
ENDCHAR
STARTCHAR K+2557
ENCODING 9559
SWIDTH 960 0
DWIDTH 16 0
BBX 12 12 3 0
BITMAP
6000
3EF0
3DF0
6D80
CD80
D980
D980
DB00
7E00
3000
3000
FC00
ENDCHAR
STARTCHAR K+2558
ENCODING 9560
SWIDTH 960 0
DWIDTH 16 0
BBX 13 11 2 0
BITMAP
03E0
0E30
1818
1818
3018
3030
3030
18E0
0F80
CE00
FBE0
ENDCHAR
STARTCHAR K+2561
ENCODING 9569
SWIDTH 960 0
DWIDTH 16 0
BBX 9 7 4 0
BITMAP
1F80
3780
6700
CE00
C600
CC00
FF00
ENDCHAR
STARTCHAR K+2562
ENCODING 9570
SWIDTH 960 0
DWIDTH 16 0
BBX 9 13 4 -2
BITMAP
0780
1D80
1980
3180
3180
3F00
6300
6300
6300
6300
FE00
C000
C000
ENDCHAR
STARTCHAR K+2563
ENCODING 9571
SWIDTH 960 0
DWIDTH 16 0
BBX 9 9 4 -2
BITMAP
F380
1B00
1E00
1C00
1800
3000
3000
6000
6000
ENDCHAR
STARTCHAR K+2564
ENCODING 9572
SWIDTH 960 0
DWIDTH 16 0
BBX 9 11 4 0
BITMAP
1E00
3300
1B00
0D80
1C00
7600
6300
C700
C600
6E00
7C00
ENDCHAR
STARTCHAR K+2565
ENCODING 9573
SWIDTH 960 0
DWIDTH 16 0
BBX 8 7 4 0
BITMAP
1F
30
60
7E
C0
60
7E
ENDCHAR
STARTCHAR K+2566
ENCODING 9574
SWIDTH 960 0
DWIDTH 16 0
BBX 8 13 4 -2
BITMAP
30
63
3E
38
30
60
C0
C0
60
7C
0C
0C
78
ENDCHAR
STARTCHAR K+2567
ENCODING 9575
SWIDTH 960 0
DWIDTH 16 0
BBX 7 9 5 -2
BITMAP
FE
36
66
66
CC
CC
18
18
38
ENDCHAR
STARTCHAR K+2568
ENCODING 9576
SWIDTH 960 0
DWIDTH 16 0
BBX 9 12 4 -1
BITMAP
0F00
1980
3180
3180
6300
7F00
6300
C600
C600
CC00
7800
3000
ENDCHAR
STARTCHAR K+2569
ENCODING 9577
SWIDTH 960 0
DWIDTH 16 0
BBX 5 7 6 0
BITMAP
38
30
60
60
C0
D8
F0
ENDCHAR
STARTCHAR K+256A
ENCODING 9578
SWIDTH 960 0
DWIDTH 16 0
BBX 8 7 4 0
BITMAP
1F
3C
38
38
6C
6C
EE
ENDCHAR
STARTCHAR K+256B
ENCODING 9579
SWIDTH 960 0
DWIDTH 16 0
BBX 8 11 5 0
BITMAP
1C
0E
06
06
06
0E
1E
36
66
66
C7
ENDCHAR
STARTCHAR K+256C
ENCODING 9580
SWIDTH 960 0
DWIDTH 16 0
BBX 9 9 4 -2
BITMAP
1800
1980
3180
3300
6300
6600
7F80
D800
C000
ENDCHAR
STARTCHAR K+256D
ENCODING 9581
SWIDTH 960 0
DWIDTH 16 0
BBX 7 7 5 0
BITMAP
E0
66
66
CC
D8
F8
E0
ENDCHAR
STARTCHAR K+256E
ENCODING 9582
SWIDTH 960 0
DWIDTH 16 0
BBX 9 13 4 -2
BITMAP
0F00
1800
1F80
3000
6000
3E00
3F00
E000
C000
C000
7C00
0600
3C00
ENDCHAR
STARTCHAR K+256F
ENCODING 9583
SWIDTH 960 0
DWIDTH 16 0
BBX 7 8 5 -1
BITMAP
3E
66
C6
C6
C6
CC
D8
70
ENDCHAR
STARTCHAR K+2570
ENCODING 9584
SWIDTH 960 0
DWIDTH 16 0
BBX 9 7 4 0
BITMAP
7F80
F600
3C00
6C00
6C00
EC00
CE00
ENDCHAR
STARTCHAR K+2571
ENCODING 9585
SWIDTH 960 0
DWIDTH 16 0
BBX 9 9 4 -2
BITMAP
0600
1F00
3180
3180
7180
F300
F600
DC00
E000
ENDCHAR
STARTCHAR K+2572
ENCODING 9586
SWIDTH 960 0
DWIDTH 16 0
BBX 9 9 4 -1
BITMAP
0780
3C00
6600
6300
C600
C600
C600
7C00
3000
ENDCHAR
STARTCHAR K+2573
ENCODING 9587
SWIDTH 960 0
DWIDTH 16 0
BBX 7 7 5 0
BITMAP
7E
F0
30
60
60
60
70
ENDCHAR
STARTCHAR K+2574
ENCODING 9588
SWIDTH 960 0
DWIDTH 16 0
BBX 7 8 5 -1
BITMAP
76
66
66
C6
CC
18
F0
60
ENDCHAR
STARTCHAR K+2575
ENCODING 9589
SWIDTH 960 0
DWIDTH 16 0
BBX 9 8 4 -2
BITMAP
7780
CD80
D980
D980
DB00
7E00
3000
7000
ENDCHAR
STARTCHAR K+2576
ENCODING 9590
SWIDTH 960 0
DWIDTH 16 0
BBX 9 9 4 -2
BITMAP
3980
6F80
0F00
0E00
0C00
3C00
3C00
6D80
CF00
ENDCHAR
STARTCHAR K+2577
ENCODING 9591
SWIDTH 960 0
DWIDTH 16 0
BBX 9 13 4 -2
BITMAP
0700
0600
0600
0C00
0D80
6D80
D980
DB00
DB00
7E00
3800
3000
7000
ENDCHAR
STARTCHAR K+2578
ENCODING 9592
SWIDTH 960 0
DWIDTH 16 0
BBX 10 7 4 0
BITMAP
3000
66C0
CCC0
CCC0
D9C0
D980
FF00
ENDCHAR
STARTCHAR K+2621
ENCODING 9761
SWIDTH 960 0
DWIDTH 16 0
BBX 16 1 0 4
BITMAP
FFFF
ENDCHAR
STARTCHAR K+2622
ENCODING 9762
SWIDTH 960 0
DWIDTH 16 0
BBX 0 0 0 0
BITMAP
ENDCHAR
STARTCHAR K+2623
ENCODING 9763
SWIDTH 960 0
DWIDTH 16 0
BBX 8 1 8 4
BITMAP
FF
ENDCHAR
STARTCHAR K+2624
ENCODING 9764
SWIDTH 960 0
DWIDTH 16 0
BBX 9 8 0 -3
BITMAP
FF80
0180
0180
0180
0180
0180
0180
0180
ENDCHAR
STARTCHAR K+2625
ENCODING 9765
SWIDTH 960 0
DWIDTH 16 0
BBX 9 9 0 4
BITMAP
0180
0180
0180
0180
0180
0180
0180
0180
FF80
ENDCHAR
STARTCHAR K+2626
ENCODING 9766
SWIDTH 960 0
DWIDTH 16 0
BBX 8 1 8 4
BITMAP
FF
ENDCHAR
STARTCHAR K+2627
ENCODING 9767
SWIDTH 960 0
DWIDTH 16 0
BBX 8 1 8 4
BITMAP
FF
ENDCHAR
STARTCHAR K+2628
ENCODING 9768
SWIDTH 960 0
DWIDTH 16 0
BBX 17 8 0 -3
BITMAP
FFFF80
018000
018000
018000
018000
018000
018000
018000
ENDCHAR
STARTCHAR K+2629
ENCODING 9769
SWIDTH 960 0
DWIDTH 16 0
BBX 9 16 0 -3
BITMAP
0180
0180
0180
0180
0180
0180
0180
0180
FF80
0180
0180
0180
0180
0180
0180
0180
ENDCHAR
STARTCHAR K+262A
ENCODING 9770
SWIDTH 960 0
DWIDTH 16 0
BBX 17 9 0 4
BITMAP
018000
018000
018000
018000
018000
018000
018000
018000
FFFF80
ENDCHAR
STARTCHAR K+262B
ENCODING 9771
SWIDTH 960 0
DWIDTH 16 0
BBX 16 16 0 -3
BITMAP
0180
0180
0180
0180
0180
0180
0180
0180
FFFF
0180
0180
0180
0180
0180
0180
0180
ENDCHAR
STARTCHAR K+262C
ENCODING 9772
SWIDTH 960 0
DWIDTH 16 0
BBX 16 16 0 -3
BITMAP
0001
0001
0001
0001
0001
0001
0001
0001
FFFF
0001
0001
0001
0001
0001
0001
0001
ENDCHAR
STARTCHAR K+262D
ENCODING 9773
SWIDTH 960 0
DWIDTH 16 0
BBX 2 16 7 -3
BITMAP
C0
C0
C0
C0
C0
C0
C0
C0
C0
C0
C0
C0
C0
C0
C0
C0
ENDCHAR
STARTCHAR K+262E
ENCODING 9774
SWIDTH 960 0
DWIDTH 16 0
BBX 9 8 7 -3
BITMAP
FF80
C000
C000
C000
C000
C000
C000
C000
ENDCHAR
STARTCHAR K+262F
ENCODING 9775
SWIDTH 960 0
DWIDTH 16 0
BBX 9 8 0 -3
BITMAP
FF80
0180
0180
0180
0180
0180
0180
0180
ENDCHAR
STARTCHAR K+2630
ENCODING 9776
SWIDTH 960 0
DWIDTH 16 0
BBX 9 9 0 4
BITMAP
0180
0180
0180
0180
0180
0180
0180
0180
FF80
ENDCHAR
STARTCHAR K+2631
ENCODING 9777
SWIDTH 960 0
DWIDTH 16 0
BBX 9 9 7 4
BITMAP
C000
C000
C000
C000
C000
C000
C000
C000
FF80
ENDCHAR
STARTCHAR K+2632
ENCODING 9778
SWIDTH 960 0
DWIDTH 16 0
BBX 10 16 7 -3
BITMAP
C000
C000
C000
C000
C000
C000
C000
C000
FF80
C000
C000
C000
C000
C000
C000
C000
ENDCHAR
STARTCHAR K+2633
ENCODING 9779
SWIDTH 960 0
DWIDTH 16 0
BBX 16 8 0 -3
BITMAP
FFFF
0180
0180
0180
0180
0180
0180
0180
ENDCHAR
STARTCHAR K+2634
ENCODING 9780
SWIDTH 960 0
DWIDTH 16 0
BBX 9 16 0 -3
BITMAP
0180
0180
0180
0180
0180
0180
0180
0180
FF80
0180
0180
0180
0180
0180
0180
0180
ENDCHAR
STARTCHAR K+2635
ENCODING 9781
SWIDTH 960 0
DWIDTH 16 0
BBX 15 9 1 4
BITMAP
0180
0180
0180
0180
0180
0180
0180
0180
FFFE
ENDCHAR
STARTCHAR K+2636
ENCODING 9782
SWIDTH 960 0
DWIDTH 16 0
BBX 15 16 1 -3
BITMAP
0180
0180
0180
0180
0180
0180
0180
0180
FFFE
0180
0180
0180
0180
0180
0180
0180
ENDCHAR
STARTCHAR K+2637
ENCODING 9783
SWIDTH 960 0
DWIDTH 16 0
BBX 8 16 8 -3
BITMAP
C0
C0
C0
C0
C0
C0
C0
C0
FF
C0
C0
C0
C0
C0
C0
C0
ENDCHAR
STARTCHAR K+2638
ENCODING 9784
SWIDTH 960 0
DWIDTH 16 0
BBX 16 8 0 -3
BITMAP
FFFF
0180
0180
0180
0180
0180
0180
0180
ENDCHAR
STARTCHAR K+2639
ENCODING 9785
SWIDTH 960 0
DWIDTH 16 0
BBX 9 16 1 -3
BITMAP
0180
0180
0180
0180
0180
0180
0180
0180
FF80
0180
0180
0180
0180
0180
0180
0180
ENDCHAR
STARTCHAR K+263A
ENCODING 9786
SWIDTH 960 0
DWIDTH 16 0
BBX 16 9 0 4
BITMAP
0180
0180
0180
0180
0180
0180
0180
0180
FFFF
ENDCHAR
STARTCHAR K+263B
ENCODING 9787
SWIDTH 960 0
DWIDTH 16 0
BBX 16 16 0 -3
BITMAP
0180
0180
0180
0180
0180
0180
0180
0180
FFFF
0180
0180
0180
0180
0180
0180
0180
ENDCHAR
STARTCHAR K+263C
ENCODING 9788
SWIDTH 960 0
DWIDTH 16 0
BBX 8 1 8 4
BITMAP
FF
ENDCHAR
STARTCHAR K+263D
ENCODING 9789
SWIDTH 960 0
DWIDTH 16 0
BBX 16 8 0 -3
BITMAP
FFFF
0180
0180
0180
0180
0180
0180
0180
ENDCHAR
STARTCHAR K+263E
ENCODING 9790
SWIDTH 960 0
DWIDTH 16 0
BBX 9 16 0 -3
BITMAP
0180
0180
0180
0180
0180
0180
0180
0180
FF80
0180
0180
0180
0180
0180
0180
0180
ENDCHAR
STARTCHAR K+263F
ENCODING 9791
SWIDTH 960 0
DWIDTH 16 0
BBX 16 9 0 4
BITMAP
0180
0180
0180
0180
0180
0180
0180
0180
FFFF
ENDCHAR
STARTCHAR K+2640
ENCODING 9792
SWIDTH 960 0
DWIDTH 16 0
BBX 16 16 0 -3
BITMAP
0180
0180
0180
0180
0180
0180
0180
0180
FFFF
0180
0180
0180
0180
0180
0180
0180
ENDCHAR
STARTCHAR K+2641
ENCODING 9793
SWIDTH 960 0
DWIDTH 16 0
BBX 9 8 0 -3
BITMAP
FF80
0180
0180
0180
0180
0180
0180
0180
ENDCHAR
STARTCHAR K+2642
ENCODING 9794
SWIDTH 960 0
DWIDTH 16 0
BBX 9 8 0 -3
BITMAP
FF80
0180
0180
0180
0180
0180
0180
0180
ENDCHAR
STARTCHAR K+2643
ENCODING 9795
SWIDTH 960 0
DWIDTH 16 0
BBX 9 9 1 4
BITMAP
0180
0180
0180
0180
0180
0180
0180
0180
FF80
ENDCHAR
STARTCHAR K+2644
ENCODING 9796
SWIDTH 960 0
DWIDTH 16 0
BBX 10 9 0 4
BITMAP
00C0
00C0
00C0
00C0
00C0
00C0
00C0
00C0
FFC0
ENDCHAR
STARTCHAR K+2645
ENCODING 9797
SWIDTH 960 0
DWIDTH 16 0
BBX 9 9 7 4
BITMAP
C000
C000
C000
C000
C000
C000
C000
C000
FF80
ENDCHAR
STARTCHAR K+2646
ENCODING 9798
SWIDTH 960 0
DWIDTH 16 0
BBX 8 1 8 4
BITMAP
FF
ENDCHAR
STARTCHAR K+2647
ENCODING 9799
SWIDTH 960 0
DWIDTH 16 0
BBX 8 8 8 -3
BITMAP
FF
C0
C0
C0
C0
C0
C0
C0
ENDCHAR
STARTCHAR K+2648
ENCODING 9800
SWIDTH 960 0
DWIDTH 16 0
BBX 8 1 8 4
BITMAP
FF
ENDCHAR
STARTCHAR K+2649
ENCODING 9801
SWIDTH 960 0
DWIDTH 16 0
BBX 8 16 8 -3
BITMAP
C0
C0
C0
C0
C0
C0
C0
C0
FF
C0
C0
C0
C0
C0
C0
C0
ENDCHAR
STARTCHAR K+264A
ENCODING 9802
SWIDTH 960 0
DWIDTH 16 0
BBX 8 16 8 -3
BITMAP
C0
C0
C0
C0
C0
C0
C0
C0
FF
C0
C0
C0
C0
C0
C0
C0
ENDCHAR
STARTCHAR K+264B
ENCODING 9803
SWIDTH 960 0
DWIDTH 16 0
BBX 9 16 7 -3
BITMAP
C000
C000
C000
C000
C000
C000
C000
C000
FF80
C000
C000
C000
C000
C000
C000
C000
ENDCHAR
STARTCHAR K+264C
ENCODING 9804
SWIDTH 960 0
DWIDTH 16 0
BBX 8 16 8 -3
BITMAP
C0
C0
C0
C0
C0
C0
C0
C0
FF
C0
C0
C0
C0
C0
C0
C0
ENDCHAR
STARTCHAR K+264D
ENCODING 9805
SWIDTH 960 0
DWIDTH 16 0
BBX 9 16 0 -3
BITMAP
0180
0180
0180
0180
0180
0180
0180
0180
FF80
0180
0180
0180
0180
0180
0180
0180
ENDCHAR
STARTCHAR K+264E
ENCODING 9806
SWIDTH 960 0
DWIDTH 16 0
BBX 9 16 1 -3
BITMAP
0180
0180
0180
0180
0180
0180
0180
0180
FF80
0180
0180
0180
0180
0180
0180
0180
ENDCHAR
STARTCHAR K+264F
ENCODING 9807
SWIDTH 960 0
DWIDTH 16 0
BBX 9 16 1 -3
BITMAP
0180
0180
0180
0180
0180
0180
0180
0180
FF80
0180
0180
0180
0180
0180
0180
0180
ENDCHAR
STARTCHAR K+2650
ENCODING 9808
SWIDTH 960 0
DWIDTH 16 0
BBX 8 16 1 -3
BITMAP
03
03
03
03
03
03
03
03
FF
03
03
03
03
03
03
03
ENDCHAR
STARTCHAR K+2651
ENCODING 9809
SWIDTH 960 0
DWIDTH 16 0
BBX 16 8 0 -3
BITMAP
FFFF
0180
0180
0180
0180
0180
0180
0180
ENDCHAR
STARTCHAR K+2652
ENCODING 9810
SWIDTH 960 0
DWIDTH 16 0
BBX 16 8 0 -3
BITMAP
FFFF
0180
0180
0180
0180
0180
0180
0180
ENDCHAR
STARTCHAR K+2653
ENCODING 9811
SWIDTH 960 0
DWIDTH 16 0
BBX 16 8 0 -3
BITMAP
FFFF
0180
0180
0180
0180
0180
0180
0180
ENDCHAR
STARTCHAR K+2654
ENCODING 9812
SWIDTH 960 0
DWIDTH 16 0
BBX 16 8 0 -3
BITMAP
FFFF
0180
0180
0180
0180
0180
0180
0180
ENDCHAR
STARTCHAR K+2655
ENCODING 9813
SWIDTH 960 0
DWIDTH 16 0
BBX 16 9 0 4
BITMAP
0180
0180
0180
0180
0180
0180
0180
0180
FFFF
ENDCHAR
STARTCHAR K+2656
ENCODING 9814
SWIDTH 960 0
DWIDTH 16 0
BBX 16 9 0 4
BITMAP
0180
0180
0180
0180
0180
0180
0180
0180
FFFF
ENDCHAR
STARTCHAR K+2657
ENCODING 9815
SWIDTH 960 0
DWIDTH 16 0
BBX 16 9 0 4
BITMAP
0180
0180
0180
0180
0180
0180
0180
0180
FFFF
ENDCHAR
STARTCHAR K+2658
ENCODING 9816
SWIDTH 960 0
DWIDTH 16 0
BBX 16 9 0 4
BITMAP
0180
0180
0180
0180
0180
0180
0180
0180
FFFF
ENDCHAR
STARTCHAR K+2659
ENCODING 9817
SWIDTH 960 0
DWIDTH 16 0
BBX 16 16 0 -3
BITMAP
0180
0180
0180
0180
0180
0180
0180
0180
FFFF
0180
0180
0180
0180
0180
0180
0180
ENDCHAR
STARTCHAR K+265A
ENCODING 9818
SWIDTH 960 0
DWIDTH 16 0
BBX 16 16 0 -3
BITMAP
0180
0180
0180
0180
0180
0180
0180
0180
FFFF
0180
0180
0180
0180
0180
0180
0180
ENDCHAR
STARTCHAR K+265B
ENCODING 9819
SWIDTH 960 0
DWIDTH 16 0
BBX 16 16 0 -3
BITMAP
0180
0180
0180
0180
0180
0180
0180
0180
FFFF
0180
0180
0180
0180
0180
0180
0180
ENDCHAR
STARTCHAR K+265C
ENCODING 9820
SWIDTH 960 0
DWIDTH 16 0
BBX 16 16 0 -3
BITMAP
0180
0180
0180
0180
0180
0180
0180
0180
FFFF
0180
0180
0180
0180
0180
0180
0180
ENDCHAR
STARTCHAR K+265D
ENCODING 9821
SWIDTH 960 0
DWIDTH 16 0
BBX 16 16 0 -3
BITMAP
0180
0180
0180
0180
0180
0180
0180
0180
FFFF
0180
0180
0180
0180
0180
0180
0180
ENDCHAR
STARTCHAR K+265E
ENCODING 9822
SWIDTH 960 0
DWIDTH 16 0
BBX 16 16 0 -3
BITMAP
0180
0180
0180
0180
0180
0180
0180
0180
FFFF
0180
0180
0180
0180
0180
0180
0180
ENDCHAR
STARTCHAR K+265F
ENCODING 9823
SWIDTH 960 0
DWIDTH 16 0
BBX 16 16 0 -3
BITMAP
0180
0180
0180
0180
0180
0180
0180
0180
FFFF
0180
0180
0180
0180
0180
0180
0180
ENDCHAR
STARTCHAR K+2660
ENCODING 9824
SWIDTH 960 0
DWIDTH 16 0
BBX 16 16 0 -3
BITMAP
0180
0180
0180
0180
0180
0180
0180
0180
FFFF
0180
0180
0180
0180
0180
0180
0180
ENDCHAR
STARTCHAR K+2661
ENCODING 9825
SWIDTH 960 0
DWIDTH 16 0
BBX 15 16 1 -3
BITMAP
0180
0180
0180
0180
0180
0180
0180
0180
FFFE
0300
0300
0300
0300
0300
0300
0300
ENDCHAR
STARTCHAR K+2662
ENCODING 9826
SWIDTH 960 0
DWIDTH 16 0
BBX 15 16 1 -3
BITMAP
0180
0180
0180
0180
0180
0180
0180
0180
FFFE
0180
0180
0180
0180
0180
0180
0180
ENDCHAR
STARTCHAR K+2663
ENCODING 9827
SWIDTH 960 0
DWIDTH 16 0
BBX 16 16 0 -3
BITMAP
0180
0180
0180
0180
0180
0180
0180
0180
FFFF
0180
0180
0180
0180
0180
0180
0180
ENDCHAR
STARTCHAR K+2664
ENCODING 9828
SWIDTH 960 0
DWIDTH 16 0
BBX 16 16 0 -3
BITMAP
0180
0180
0180
0180
0180
0180
0180
0180
FFFF
0180
0180
0180
0180
0180
0180
0180
ENDCHAR
STARTCHAR K+2721
ENCODING 10017
SWIDTH 960 0
DWIDTH 16 0
BBX 17 14 0 -3
BITMAP
000E00
000F00
001B00
001E00
0CDE80
18DE80
19DC80
319880
31B980
337B80
77CF80
7C0600
600000
E00000
ENDCHAR
STARTCHAR K+2722
ENCODING 10018
SWIDTH 960 0
DWIDTH 16 0
BBX 15 12 1 -1
BITMAP
001E
001E
0036
0036
FF3C
DB3C
DB38
DB30
DB72
DBF6
DB1E
000C
ENDCHAR
STARTCHAR K+2723
ENCODING 10019
SWIDTH 960 0
DWIDTH 16 0
BBX 15 12 1 -1
BITMAP
031E
031E
0336
0336
3F3C
673C
C338
C330
C370
C336
6F1C
3800
ENDCHAR
STARTCHAR K+2724
ENCODING 10020
SWIDTH 960 0
DWIDTH 16 0
BBX 7 12 5 -1
BITMAP
38
3C
6C
6C
78
78
70
60
E6
6C
3C
18
ENDCHAR
STARTCHAR K+2725
ENCODING 10021
SWIDTH 960 0
DWIDTH 16 0
BBX 15 12 1 -1
BITMAP
E01E
601E
6036
6036
603C
663C
7C38
7C30
6672
6636
631E
000C
ENDCHAR
STARTCHAR K+2726
ENCODING 10022
SWIDTH 960 0
DWIDTH 16 0
BBX 15 8 1 -1
BITMAP
3C7E
6666
C6C0
C0C0
C0C0
C0C6
6C6C
3838
ENDCHAR
STARTCHAR K+2727
ENCODING 10023
SWIDTH 960 0
DWIDTH 16 0
BBX 15 13 1 -1
BITMAP
0006
0006
0006
001E
000C
FEFE
DEF6
DEF6
DEF6
DEF6
DEF6
DEF6
0C00
ENDCHAR
STARTCHAR K+2728
ENCODING 10024
SWIDTH 960 0
DWIDTH 16 0
BBX 14 13 1 -1
BITMAP
001C
000C
000C
000C
0000
7DFC
6DEC
C1EC
C1EC
C1EC
67EC
6DEC
3800
ENDCHAR
STARTCHAR K+2729
ENCODING 10025
SWIDTH 960 0
DWIDTH 16 0
BBX 11 12 4 0
BITMAP
01E0
00C0
0060
01E0
00C0
FFC0
CCC0
CCC0
CCC0
CCC0
CCC0
CCC0
ENDCHAR
STARTCHAR K+272A
ENCODING 10026
SWIDTH 960 0
DWIDTH 16 0
BBX 15 12 1 0
BITMAP
001C
600C
600C
601E
6E0C
6DFC
79BC
79BC
7DBC
6DBC
6DBC
E7BC
ENDCHAR
STARTCHAR K+272B
ENCODING 10027
SWIDTH 960 0
DWIDTH 16 0
BBX 13 12 2 0
BITMAP
3800
6000
6000
6000
F800
67F8
66D8
66D8
66D8
66D8
66D8
66D8
ENDCHAR
STARTCHAR K+272C
ENCODING 10028
SWIDTH 960 0
DWIDTH 16 0
BBX 15 7 1 0
BITMAP
DDFE
F7B6
C7B6
C7B6
C7B6
C7B6
C7B6
ENDCHAR
STARTCHAR K+272D
ENCODING 10029
SWIDTH 960 0
DWIDTH 16 0
BBX 17 16 0 -3
BITMAP
000080
000000
000000
000000
000000
000080
19FF00
1BEF80
336F00
336F00
376F00
666F80
3FEF00
780000
600000
C00000
ENDCHAR
STARTCHAR K+272E
ENCODING 10030
SWIDTH 960 0
DWIDTH 16 0
BBX 15 8 1 -1
BITMAP
FEFE
DEF6
DEF6
DEF6
DEF6
DEF6
DEFE
0C60
ENDCHAR
STARTCHAR K+272F
ENCODING 10031
SWIDTH 960 0
DWIDTH 16 0
BBX 15 8 1 -1
BITMAP
7DFE
CDB6
C1B6
01B6
01B6
C1B6
79B6
3000
ENDCHAR
STARTCHAR K+2730
ENCODING 10032
SWIDTH 960 0
DWIDTH 16 0
BBX 14 11 2 0
BITMAP
C000
C000
C000
C000
C3FC
FB6C
F36C
F36C
DB6C
DB6C
CF6C
ENDCHAR
STARTCHAR K+2731
ENCODING 10033
SWIDTH 960 0
DWIDTH 16 0
BBX 15 13 1 -1
BITMAP
001C
000E
001E
001C
0000
FEFC
DEFC
DEFC
DEFC
DEFC
DEFC
DEFC
0060
ENDCHAR
STARTCHAR K+2732
ENCODING 10034
SWIDTH 960 0
DWIDTH 16 0
BBX 14 13 2 -1
BITMAP
003C
0018
0030
0060
0038
FBF8
CFD8
03D8
03D8
C3D8
CFD8
7BD8
3000
ENDCHAR
STARTCHAR K+2733
ENCODING 10035
SWIDTH 960 0
DWIDTH 16 0
BBX 11 12 4 0
BITMAP
01E0
0060
01C0
0360
01C0
FFC0
CCC0
CCC0
CCC0
CCC0
CCC0
CCC0
ENDCHAR
STARTCHAR K+2734
ENCODING 10036
SWIDTH 960 0
DWIDTH 16 0
BBX 15 12 1 0
BITMAP
001C
E00E
601E
601C
6000
61FC
7DEC
79EC
79EC
6DEC
6DEC
67EC
ENDCHAR
STARTCHAR K+2735
ENCODING 10037
SWIDTH 960 0
DWIDTH 16 0
BBX 17 14 0 -3
BITMAP
600000
600000
600000
603C00
7E6600
736600
631E00
637600
636600
636600
F77F00
000000
000000
000080
ENDCHAR
STARTCHAR K+2736
ENCODING 10038
SWIDTH 960 0
DWIDTH 16 0
BBX 16 10 0 -3
BITMAP
0CDF
19F3
19B3
31B6
333C
3330
33DF
7FF3
6061
C037
ENDCHAR
STARTCHAR K+2737
ENCODING 10039
SWIDTH 960 0
DWIDTH 16 0
BBX 16 16 1 -3
BITMAP
0001
0000
0001
0001
0001
0000
FF7E
DB6C
DBCC
DB6C
DBF8
DBC0
DB7C
00C6
00C6
00CC
ENDCHAR
STARTCHAR K+2738
ENCODING 10040
SWIDTH 960 0
DWIDTH 16 0
BBX 15 14 1 -3
BITMAP
C000
C000
C000
C000
DE7E
D8CC
F0CC
F878
D8F0
CCC0
CE7C
00C6
0186
00DC
ENDCHAR
STARTCHAR K+2739
ENCODING 10041
SWIDTH 960 0
DWIDTH 16 0
BBX 15 11 1 0
BITMAP
E000
6000
6000
6030
603C
6630
6C30
7C30
7C30
6636
631C
ENDCHAR
STARTCHAR K+273A
ENCODING 10042
SWIDTH 960 0
DWIDTH 16 0
BBX 17 12 0 -1
BITMAP
000780
000300
000300
000300
7CFB00
67DB00
C01B00
C0FB00
C1B300
E7B300
6CF300
386000
ENDCHAR
STARTCHAR K+273B
ENCODING 10043
SWIDTH 960 0
DWIDTH 16 0
BBX 17 12 0 -1
BITMAP
E00300
600300
600300
600300
6FFF00
7BFF00
7E0F80
7E3F80
7E6F80
6E6F80
6FFF00
01B000
ENDCHAR
STARTCHAR K+273C
ENCODING 10044
SWIDTH 960 0
DWIDTH 16 0
BBX 17 14 0 -1
BITMAP
000080
000000
0EFE00
066300
066300
066380
3E6300
6E7E80
C66300
C66100
C66100
C66180
6E6700
383C00
ENDCHAR
STARTCHAR K+273D
ENCODING 10045
SWIDTH 960 0
DWIDTH 16 0
BBX 15 14 1 -3
BITMAP
FF00
DB06
DB0C
DB18
DB70
DBC0
01FC
03CC
06E0
0C7C
180C
30CC
606C
0038
ENDCHAR
STARTCHAR K+273E
ENCODING 10046
SWIDTH 960 0
DWIDTH 16 0
BBX 15 14 1 -3
BITMAP
FE00
DE06
DE0C
DE18
DE36
DE62
01E6
03FE
06CE
0C70
1818
3018
60F8
0030
ENDCHAR
STARTCHAR K+273F
ENCODING 10047
SWIDTH 960 0
DWIDTH 16 0
BBX 13 10 2 -3
BITMAP
FDF8
EF80
C6C0
C678
C618
C798
CCD8
F870
C000
C000
ENDCHAR
STARTCHAR K+2740
ENCODING 10048
SWIDTH 960 0
DWIDTH 16 0
BBX 13 8 2 -1
BITMAP
FFF8
E780
C7C0
C6F0
C618
C798
C7D8
0070
ENDCHAR
STARTCHAR K+2741
ENCODING 10049
SWIDTH 960 0
DWIDTH 16 0
BBX 15 10 1 -3
BITMAP
19FC
19E6
39F0
333C
3306
6666
77F6
7C1C
C000
C000
ENDCHAR
STARTCHAR K+2742
ENCODING 10050
SWIDTH 960 0
DWIDTH 16 0
BBX 14 8 2 -1
BITMAP
FFF8
DBCC
DBE0
DB38
DB0C
DBCC
DBEC
0038
ENDCHAR
STARTCHAR K+2743
ENCODING 10051
SWIDTH 960 0
DWIDTH 16 0
BBX 15 14 1 -3
BITMAP
07CE
038C
018C
FD8C
ED98
C6D8
C6D8
C6D8
C670
C670
FC30
C000
C000
C000
ENDCHAR
STARTCHAR K+2744
ENCODING 10052
SWIDTH 960 0
DWIDTH 16 0
BBX 15 11 1 0
BITMAP
07CE
018C
018C
018C
DCD8
F6D8
C6D8
C670
C670
C670
C600
ENDCHAR
STARTCHAR K+2745
ENCODING 10053
SWIDTH 960 0
DWIDTH 16 0
BBX 16 14 0 -3
BITMAP
01E7
00C3
00C6
0066
18E6
19E6
39BC
33BC
331C
6618
7798
7C00
E000
C000
ENDCHAR
STARTCHAR K+2746
ENCODING 10054
SWIDTH 960 0
DWIDTH 16 0
BBX 16 13 1 0
BITMAP
0001
0000
0187
0187
018D
00CC
FFCC
DBD8
DB78
DB78
DB78
DB30
DB30
ENDCHAR
STARTCHAR K+2747
ENCODING 10055
SWIDTH 960 0
DWIDTH 16 0
BBX 14 12 2 -1
BITMAP
079C
C318
C198
C198
C198
CDB0
D8F0
F0F0
F8E0
CC60
CC60
0600
ENDCHAR
STARTCHAR K+2748
ENCODING 10056
SWIDTH 960 0
DWIDTH 16 0
BBX 17 11 0 0
BITMAP
E3FF00
633300
673300
773600
7F1E80
7F1E00
7F1E00
7F1C00
7F0C00
7B0C00
630C00
ENDCHAR
STARTCHAR K+2749
ENCODING 10057
SWIDTH 960 0
DWIDTH 16 0
BBX 14 13 1 -3
BITMAP
0030
0070
0070
FED8
76D8
63D8
63F8
639C
638C
678C
7C00
6000
6000
ENDCHAR
STARTCHAR K+274A
ENCODING 10058
SWIDTH 960 0
DWIDTH 16 0
BBX 15 10 1 0
BITMAP
0030
0038
0078
FE78
E66C
C6CC
C6FC
C6CC
C786
C7E6
ENDCHAR
STARTCHAR K+274B
ENCODING 10059
SWIDTH 960 0
DWIDTH 16 0
BBX 17 16 0 -3
BITMAP
000080
000000
000000
000C00
001C00
001C80
1CFC00
19B680
39B600
333E00
336700
666380
77E300
7CF700
E00000
C00000
ENDCHAR
STARTCHAR K+274C
ENCODING 10060
SWIDTH 960 0
DWIDTH 16 0
BBX 16 12 1 -1
BITMAP
0001
0031
0039
0079
FE79
FE79
F6CD
F6FD
F6CD
F6CF
F787
6000
ENDCHAR
STARTCHAR K+274D
ENCODING 10061
SWIDTH 960 0
DWIDTH 16 0
BBX 15 11 1 0
BITMAP
C000
C000
C038
C078
CE78
D86C
F0CC
F07C
D8CC
CCC6
CE06
ENDCHAR
STARTCHAR K+274E
ENCODING 10062
SWIDTH 960 0
DWIDTH 16 0
BBX 15 14 1 -3
BITMAP
0FF6
0662
0676
0776
FF76
C7F6
C7DE
C7DC
C7DC
C7CC
ED8C
F800
C000
C000
ENDCHAR
STARTCHAR K+274F
ENCODING 10063
SWIDTH 960 0
DWIDTH 16 0
BBX 16 14 1 -3
BITMAP
0FFE
0666
0676
03F6
FFFC
CFFC
CFDC
CDDC
CDDC
CD8C
CC00
0000
0001
0001
ENDCHAR
STARTCHAR K+2750
ENCODING 10064
SWIDTH 960 0
DWIDTH 16 0
BBX 17 16 0 -3
BITMAP
000080
000000
01FB00
00DB80
00DB00
00DB80
19FE80
1BFE00
3B7E80
336E00
366E00
666600
7FE000
780000
C00000
C00080
ENDCHAR
STARTCHAR K+2751
ENCODING 10065
SWIDTH 960 0
DWIDTH 16 0
BBX 15 11 1 0
BITMAP
07FE
0336
01B6
01BC
FFFC
F7FC
F7FC
F7DC
F6DC
F6D8
F6C0
ENDCHAR
STARTCHAR K+2752
ENCODING 10066
SWIDTH 960 0
DWIDTH 16 0
BBX 15 11 1 0
BITMAP
C7FE
C336
C1B6
C1BC
CFFC
D9FC
F1DC
F0DC
D8DC
CCD8
CEC0
ENDCHAR
STARTCHAR K+2753
ENCODING 10067
SWIDTH 960 0
DWIDTH 16 0
BBX 17 11 0 0
BITMAP
E3FD80
636F00
636F00
776F00
7F6F00
7F7F00
7F3E00
7F3600
7F3600
7B3600
633600
ENDCHAR
STARTCHAR K+2754
ENCODING 10068
SWIDTH 960 0
DWIDTH 16 0
BBX 17 12 0 -1
BITMAP
F3C000
618000
618000
618000
61BF00
7F8700
618600
618C00
619900
61B300
61E780
003C00
ENDCHAR
STARTCHAR K+2755
ENCODING 10069
SWIDTH 960 0
DWIDTH 16 0
BBX 17 14 0 -1
BITMAP
000080
000000
67F880
633080
633080
633000
6F3F00
6FFB00
7B3B00
7B3600
7B3C00
6F3D00
EF3F00
001800
ENDCHAR
STARTCHAR K+2756
ENCODING 10070
SWIDTH 960 0
DWIDTH 16 0
BBX 17 12 0 -1
BITMAP
E7F800
6FB080
6FB080
FFB080
FFBF80
FFFF80
FFB380
FFB680
F7B680
F7BD80
07BF80
000600
ENDCHAR
STARTCHAR K+2757
ENCODING 10071
SWIDTH 960 0
DWIDTH 16 0
BBX 17 12 0 -1
BITMAP
733080
DB3000
CF3000
C33000
C33F00
C3FB00
DF3B00
CF3600
CF3600
CF3C00
FF3D00
37FF00
ENDCHAR
STARTCHAR K+2758
ENCODING 10072
SWIDTH 960 0
DWIDTH 16 0
BBX 17 11 0 0
BITMAP
FF3000
363000
363080
363080
363F80
37FB80
363B00
363600
363D00
363D00
373F80
ENDCHAR
STARTCHAR K+2759
ENCODING 10073
SWIDTH 960 0
DWIDTH 16 0
BBX 12 11 3 0
BITMAP
1F00
73C0
E0E0
C0E0
C0E0
C0E0
60C0
3180
1F30
0E30
FFF0
ENDCHAR
STARTCHAR K+275A
ENCODING 10074
SWIDTH 960 0
DWIDTH 16 0
BBX 17 13 0 0
BITMAP
000080
000000
E03E00
60E300
60C100
60C180
60C100
66C180
7CC300
7C7600
6C3D00
67BD80
67FF00
ENDCHAR
STARTCHAR K+275B
ENCODING 10075
SWIDTH 960 0
DWIDTH 16 0
BBX 16 11 0 0
BITMAP
E3BE
6363
63C1
77C1
7FC1
7FC1
7F63
7F36
7FDD
7BDD
63FF
ENDCHAR
STARTCHAR K+275C
ENCODING 10076
SWIDTH 960 0
DWIDTH 16 0
BBX 14 14 2 -3
BITMAP
03FC
018C
0180
0180
FD80
C7F0
C780
C780
C780
C780
ED80
FBC0
C000
C000
ENDCHAR
STARTCHAR K+275D
ENCODING 10077
SWIDTH 960 0
DWIDTH 16 0
BBX 15 11 1 0
BITMAP
01FE
00C6
00C0
00C0
FCC0
76F8
66C0
66C0
66C0
66C0
66C0
ENDCHAR
STARTCHAR K+275E
ENCODING 10078
SWIDTH 960 0
DWIDTH 16 0
BBX 16 14 0 -3
BITMAP
007F
0031
0030
0030
0CF0
19FE
19B0
31B0
3330
3330
77B0
7C00
6000
C000
ENDCHAR
STARTCHAR K+275F
ENCODING 10079
SWIDTH 960 0
DWIDTH 16 0
BBX 16 16 1 -3
BITMAP
0001
0000
0006
0007
0006
FEE7
FFB7
F71E
F71F
F71E
F71E
F71E
61BE
00F0
0000
0001
ENDCHAR
STARTCHAR K+2760
ENCODING 10080
SWIDTH 960 0
DWIDTH 16 0
BBX 15 12 1 -1
BITMAP
000E
0006
0006
0006
7C06
CCFE
C186
C186
C186
C186
6CCE
3878
ENDCHAR
STARTCHAR K+2761
ENCODING 10081
SWIDTH 960 0
DWIDTH 16 0
BBX 16 11 1 0
BITMAP
0006
0006
0007
0007
FFBF
CDE7
C3E6
C7E6
CDE6
CDB6
CF9E
ENDCHAR
STARTCHAR K+2762
ENCODING 10082
SWIDTH 960 0
DWIDTH 16 0
BBX 15 15 1 -3
BITMAP
0060
0060
01E0
FF60
CE60
FE60
F760
1DCC
0038
00E0
03BE
0E1C
3806
601E
000C
ENDCHAR
STARTCHAR K+2763
ENCODING 10083
SWIDTH 960 0
DWIDTH 16 0
BBX 15 14 1 -2
BITMAP
0060
0060
01E0
FF60
CE60
FE60
F760
1DC0
003E
00E6
01FC
0736
1C18
7038
ENDCHAR
STARTCHAR K+2764
ENCODING 10084
SWIDTH 960 0
DWIDTH 16 0
BBX 14 8 2 -1
BITMAP
FCFC
C0E0
E0C0
38C0
0CC0
CCC0
F8C0
3000
ENDCHAR
STARTCHAR K+2765
ENCODING 10085
SWIDTH 960 0
DWIDTH 16 0
BBX 15 12 1 -1
BITMAP
FC00
6700
6300
6300
63F8
63CC
7E0C
607C
60CC
618C
60DE
0070
ENDCHAR
STARTCHAR K+2766
ENCODING 10086
SWIDTH 960 0
DWIDTH 16 0
BBX 17 12 0 -1
BITMAP
E3E080
61B000
61B000
61B000
7FBF00
79BB80
71E380
718F80
799B80
799B80
6D9F00
000C00
ENDCHAR
STARTCHAR K+2767
ENCODING 10087
SWIDTH 960 0
DWIDTH 16 0
BBX 17 11 0 0
BITMAP
EFE000
6DB080
7DB080
7DB080
7DBF80
FDBB80
FDE380
FD8F80
FD9B80
FD9B80
0D9F00
ENDCHAR
STARTCHAR K+2768
ENCODING 10088
SWIDTH 960 0
DWIDTH 16 0
BBX 17 12 0 -1
BITMAP
7BE080
CF7080
CF3080
C33000
C33F00
C33B00
DFE300
CF9F00
CF1B00
CF1B00
7F9F00
300C00
ENDCHAR
STARTCHAR K+2769
ENCODING 10089
SWIDTH 960 0
DWIDTH 16 0
BBX 15 12 1 -1
BITMAP
D8E0
DB60
CF60
7F60
7E6C
7E7E
7E62
7E62
7E62
6C62
0076
001C
ENDCHAR
STARTCHAR K+276A
ENCODING 10090
SWIDTH 960 0
DWIDTH 16 0
BBX 12 11 2 0
BITMAP
E000
6000
6000
6000
67F0
67B0
67B0
67B0
67B0
67B0
67F0
ENDCHAR
STARTCHAR K+276B
ENCODING 10091
SWIDTH 960 0
DWIDTH 16 0
BBX 12 11 2 0
BITMAP
E000
6000
6000
6000
6630
6360
63C0
6180
63C0
6660
6E30
ENDCHAR
STARTCHAR K+276C
ENCODING 10092
SWIDTH 960 0
DWIDTH 16 0
BBX 17 14 0 -3
BITMAP
FE0000
630000
638080
638080
633F80
7E6380
636380
61E380
61E380
63E380
673F00
3C0F00
000300
000300
ENDCHAR
STARTCHAR K+276D
ENCODING 10093
SWIDTH 960 0
DWIDTH 16 0
BBX 15 14 1 -3
BITMAP
7800
6C00
C600
C600
C0C6
C0CC
CFCC
C678
C678
C630
6E30
3860
0060
01C0
ENDCHAR
STARTCHAR K+276E
ENCODING 10094
SWIDTH 960 0
DWIDTH 16 0
BBX 17 16 0 -3
BITMAP
000080
000000
7E0000
C30080
C00000
C00080
78E380
1E6600
036680
01BC00
01BC00
C31800
7E1800
000000
000000
000080
ENDCHAR
STARTCHAR K+276F
ENCODING 10095
SWIDTH 960 0
DWIDTH 16 0
BBX 16 15 0 -3
BITMAP
1800
7C00
C6C0
C0C0
C180
C300
6E00
3F80
0DFF
19DB
31EF
31BC
601F
001B
000E
ENDCHAR
STARTCHAR K+2821
ENCODING 10273
SWIDTH 960 0
DWIDTH 16 0
BBX 16 11 0 0
BITMAP
01FF
03C7
06C0
06C0
0CCC
0CFC
0FCC
18C0
30C0
60C7
F1FF
ENDCHAR
STARTCHAR K+2822
ENCODING 10274
SWIDTH 960 0
DWIDTH 16 0
BBX 11 11 3 0
BITMAP
7F00
31C0
30C0
3060
3060
FC60
3060
3060
30C0
31C0
7F00
ENDCHAR
STARTCHAR K+2823
ENCODING 10275
SWIDTH 960 0
DWIDTH 16 0
BBX 9 10 4 0
BITMAP
7F00
3300
0300
3F00
6300
C300
6700
3F80
0000
FF80
ENDCHAR
STARTCHAR K+2824
ENCODING 10276
SWIDTH 960 0
DWIDTH 16 0
BBX 13 11 2 0
BITMAP
FDF8
3060
FFF8
3060
3060
3FE0
3060
3060
3060
3060
FDF8
ENDCHAR
STARTCHAR K+2826
ENCODING 10278
SWIDTH 960 0
DWIDTH 16 0
BBX 12 12 3 -1
BITMAP
FBF0
60C0
60C0
60C0
60C0
60C0
60C0
60C0
60C0
60C0
FF80
0700
ENDCHAR
STARTCHAR K+2828
ENCODING 10280
SWIDTH 960 0
DWIDTH 16 0
BBX 10 12 4 -1
BITMAP
F800
6000
6000
6000
6000
6600
6000
6000
60C0
6180
F780
1C00
ENDCHAR
STARTCHAR K+2829
ENCODING 10281
SWIDTH 960 0
DWIDTH 16 0
BBX 10 12 3 -1
BITMAP
FC00
3000
3C00
3800
3000
3000
7000
F000
3000
30C0
7FC0
0C00
ENDCHAR
STARTCHAR K+282A
ENCODING 10282
SWIDTH 960 0
DWIDTH 16 0
BBX 13 13 2 -1
BITMAP
0018
1FB0
30E0
60F0
C1B0
C318
C318
C618
CC30
7830
7030
78E0
CF80
ENDCHAR
STARTCHAR K+282B
ENCODING 10283
SWIDTH 960 0
DWIDTH 16 0
BBX 16 12 1 -1
BITMAP
1FFE
7187
6181
C181
C199
C1F9
C199
C180
6182
6186
3BDF
0E70
ENDCHAR
STARTCHAR K+282C
ENCODING 10284
SWIDTH 960 0
DWIDTH 16 0
BBX 8 11 5 0
BITMAP
7C
EE
C6
C6
C6
C6
EE
7C
00
00
FF
ENDCHAR
STARTCHAR K+282D
ENCODING 10285
SWIDTH 960 0
DWIDTH 16 0
BBX 11 12 3 -1
BITMAP
F800
3000
3F80
30C0
3060
3060
3060
30E0
3FC0
3000
F000
1800
ENDCHAR
STARTCHAR K+282E
ENCODING 10286
SWIDTH 960 0
DWIDTH 16 0
BBX 12 11 2 0
BITMAP
7FE0
E670
C630
0600
0600
3FC0
0600
0600
0600
0600
1F80
ENDCHAR
STARTCHAR K+282F
ENCODING 10287
SWIDTH 960 0
DWIDTH 16 0
BBX 9 12 4 -1
BITMAP
FF00
7180
6180
6180
6180
6180
6180
6180
6D80
7D80
FF00
0600
ENDCHAR
STARTCHAR K+2831
ENCODING 10289
SWIDTH 960 0
DWIDTH 16 0
BBX 15 14 1 -2
BITMAP
07E0
1C38
300C
6006
FFF6
C032
C032
C032
C032
E036
6036
303C
1C38
07E0
ENDCHAR
STARTCHAR K+2832
ENCODING 10290
SWIDTH 960 0
DWIDTH 16 0
BBX 15 15 1 -3
BITMAP
07E0
1C38
300C
6006
6006
DC02
CC02
CC02
CC02
CC02
67FE
6006
300C
1C38
07E0
ENDCHAR
STARTCHAR K+2833
ENCODING 10291
SWIDTH 960 0
DWIDTH 16 0
BBX 15 15 1 -3
BITMAP
0FE0
1C70
3018
600C
6FFC
CC06
CC06
CC06
CC06
CC06
6FFC
600C
3018
1C70
0FE0
ENDCHAR
STARTCHAR K+2834
ENCODING 10292
SWIDTH 960 0
DWIDTH 16 0
BBX 15 15 1 -3
BITMAP
0FE0
1C70
3018
600C
6FFC
C036
C036
CFF6
CC06
CC06
EFFE
600C
3018
1C70
0FE0
ENDCHAR
STARTCHAR K+2835
ENCODING 10293
SWIDTH 960 0
DWIDTH 16 0
BBX 15 15 1 -3
BITMAP
0FE0
1C70
3018
600C
7FFC
CC36
CC36
CC66
CC66
CFF6
6C0C
600C
3018
1C70
0FE0
ENDCHAR
STARTCHAR K+2836
ENCODING 10294
SWIDTH 960 0
DWIDTH 16 0
BBX 15 15 1 -3
BITMAP
0FE0
1C70
3018
606C
6C3C
CC36
CFF6
CC36
CC36
CFF6
6C3C
600C
3018
1C70
0FE0
ENDCHAR
STARTCHAR K+2837
ENCODING 10295
SWIDTH 960 0
DWIDTH 16 0
BBX 15 15 1 -3
BITMAP
0FE0
1C70
3018
630C
61CC
C186
C386
C6C6
CC76
D83E
600C
600C
3018
1C70
0FE0
ENDCHAR
STARTCHAR K+2838
ENCODING 10296
SWIDTH 960 0
DWIDTH 16 0
BBX 15 15 1 -3
BITMAP
0FE0
1C70
3018
618C
67CC
CC76
D836
D836
D836
CC66
67CC
600C
3018
1C70
0FE0
ENDCHAR
STARTCHAR K+2839
ENCODING 10297
SWIDTH 960 0
DWIDTH 16 0
BBX 15 15 1 -3
BITMAP
0FE0
1C70
3018
600C
7FFC
CC66
C066
C0C6
C1C6
C776
7C3C
600C
3018
1C70
0FE0
ENDCHAR
STARTCHAR K+283A
ENCODING 10298
SWIDTH 960 0
DWIDTH 16 0
BBX 15 15 1 -3
BITMAP
0FE0
1C70
3618
63CC
606C
DFF6
CC66
C0C6
C186
C7F6
7C3C
600C
3018
1C70
0FE0
ENDCHAR
STARTCHAR K+283B
ENCODING 10299
SWIDTH 960 0
DWIDTH 16 0
BBX 15 15 1 -3
BITMAP
0FE0
1C70
3018
603C
7FFC
C036
C036
F3F6
DE36
C066
606C
60CC
3198
1C70
0FE0
ENDCHAR
STARTCHAR K+283C
ENCODING 10300
SWIDTH 960 0
DWIDTH 16 0
BBX 15 15 1 -3
BITMAP
0FE0
1C70
3018
600C
6FFC
CC06
CC06
CFF6
CC06
CC06
6FFC
600C
3018
1C70
0FE0
ENDCHAR
STARTCHAR K+283D
ENCODING 10301
SWIDTH 960 0
DWIDTH 16 0
BBX 15 15 1 -3
BITMAP
0FE0
1C70
3018
600C
7FFC
CCE6
C6C6
C6C6
C786
C1FE
7F0C
600C
3018
1C70
0FE0
ENDCHAR
STARTCHAR K+283E
ENCODING 10302
SWIDTH 960 0
DWIDTH 16 0
BBX 15 15 1 -3
BITMAP
0FE0
1C70
3018
67CC
600C
C0FE
FF86
C7C6
CC66
CC66
6C6C
67CC
3018
1C70
0FE0
ENDCHAR
STARTCHAR K+283F
ENCODING 10303
SWIDTH 960 0
DWIDTH 16 0
BBX 15 15 1 -3
BITMAP
0FE0
1C70
30F8
606C
7FEC
C366
C366
C67E
CC66
F866
606C
606C
3078
1C70
0FE0
ENDCHAR
STARTCHAR K+2840
ENCODING 10304
SWIDTH 960 0
DWIDTH 16 0
BBX 15 15 1 -3
BITMAP
0FE0
1C70
30F8
606C
786C
D866
D866
D87E
D9E6
DF66
606C
606C
3078
1C70
0FE0
ENDCHAR
STARTCHAR K+2841
ENCODING 10305
SWIDTH 960 0
DWIDTH 16 0
BBX 15 15 1 -3
BITMAP
0FE0
1C70
30F8
606C
7FEC
D866
D866
D87E
D8E6
DFE6
606C
606C
3078
1C70
0FE0
ENDCHAR
STARTCHAR K+2842
ENCODING 10306
SWIDTH 960 0
DWIDTH 16 0
BBX 15 15 1 -3
BITMAP
0FE0
1C70
30D8
606C
7FEC
C366
FFE6
D87E
D866
DFE6
606C
606C
3078
1C70
0FE0
ENDCHAR
STARTCHAR K+2843
ENCODING 10307
SWIDTH 960 0
DWIDTH 16 0
BBX 15 15 1 -3
BITMAP
0FE0
1C70
30D8
606C
606C
DFE6
DB66
DB7E
DF66
D866
606C
606C
3078
1C70
0FE0
ENDCHAR
STARTCHAR K+2844
ENCODING 10308
SWIDTH 960 0
DWIDTH 16 0
BBX 15 15 1 -3
BITMAP
0FE0
1C70
30F8
666C
736C
F366
FF66
F37E
F366
FF66
706C
606C
3078
1C70
0FE0
ENDCHAR
STARTCHAR K+2845
ENCODING 10309
SWIDTH 960 0
DWIDTH 16 0
BBX 15 15 1 -3
BITMAP
0FE0
1C70
30F8
606C
676C
C666
CC66
CF7E
D9E6
F066
606C
606C
3078
1C70
0FE0
ENDCHAR
STARTCHAR K+2846
ENCODING 10310
SWIDTH 960 0
DWIDTH 16 0
BBX 15 15 1 -3
BITMAP
0FE0
1C70
30D8
6C6C
7F6C
F366
F1E6
F1FE
F366
DF66
606C
606C
3078
1C70
0FE0
ENDCHAR
STARTCHAR K+2847
ENCODING 10311
SWIDTH 960 0
DWIDTH 16 0
BBX 15 15 1 -3
BITMAP
0FE0
1C70
30D8
606C
63EC
DF66
C666
CE7E
DFE6
F066
606C
606C
3078
1C70
0FE0
ENDCHAR
STARTCHAR K+2848
ENCODING 10312
SWIDTH 960 0
DWIDTH 16 0
BBX 15 15 1 -3
BITMAP
0FE0
1C70
30F8
6C6C
666C
FFE6
C366
C67E
CF66
D9E6
606C
606C
3078
1C70
0FE0
ENDCHAR
STARTCHAR K+2849
ENCODING 10313
SWIDTH 960 0
DWIDTH 16 0
BBX 15 15 1 -3
BITMAP
0FE0
1C70
30F8
606C
7FEC
C366
CF66
DE7E
C666
CC66
786C
606C
3078
1C70
0FE0
ENDCHAR
STARTCHAR K+284A
ENCODING 10314
SWIDTH 960 0
DWIDTH 16 0
BBX 15 15 1 -3
BITMAP
0FE0
1C70
30D8
606C
736C
DE66
DB66
DE7E
D8E6
DFE6
606C
606C
3078
1C70
0FE0
ENDCHAR
STARTCHAR K+284B
ENCODING 10315
SWIDTH 960 0
DWIDTH 16 0
BBX 15 15 1 -3
BITMAP
0FE0
1C70
30F8
606C
7FEC
C066
DB66
DE7E
C7E6
FF66
606C
606C
3078
1C70
0FE0
ENDCHAR
STARTCHAR K+284C
ENCODING 10316
SWIDTH 960 0
DWIDTH 16 0
BBX 15 15 1 -3
BITMAP
0FE0
1C70
30F8
7C6C
666C
FFE6
DF66
D9FE
F1E6
D9E6
7F6C
606C
3078
1C70
0FE0
ENDCHAR
STARTCHAR K+284D
ENCODING 10317
SWIDTH 960 0
DWIDTH 16 0
BBX 15 15 1 -3
BITMAP
0FE0
1C70
3018
600C
678C
CCC6
C0C6
C7C6
CCC6
CCC6
6FEC
600C
3018
1C70
0FE0
ENDCHAR
STARTCHAR K+284E
ENCODING 10318
SWIDTH 960 0
DWIDTH 16 0
BBX 15 15 1 -3
BITMAP
0FE0
1C70
3618
660C
660C
C6C6
C7E6
C636
C636
C636
663C
676C
31D8
1C70
0FE0
ENDCHAR
STARTCHAR K+284F
ENCODING 10319
SWIDTH 960 0
DWIDTH 16 0
BBX 15 15 1 -3
BITMAP
0FE0
1C70
3018
600C
67CC
CCC6
CC06
CC06
CC06
C666
63CC
600C
3018
1C70
0FE0
ENDCHAR
STARTCHAR K+2850
ENCODING 10320
SWIDTH 960 0
DWIDTH 16 0
BBX 15 15 1 -3
BITMAP
0FE0
1C70
30D8
60CC
60CC
C0C6
CFC6
D8C6
D8C6
D8C6
78CC
6DCC
3778
1C70
0FE0
ENDCHAR
STARTCHAR K+2851
ENCODING 10321
SWIDTH 960 0
DWIDTH 16 0
BBX 15 15 1 -3
BITMAP
0FE0
1C70
3018
600C
67CC
CC66
CFE6
CC06
CC06
C666
63CC
600C
3018
1C70
0FE0
ENDCHAR
STARTCHAR K+2852
ENCODING 10322
SWIDTH 960 0
DWIDTH 16 0
BBX 15 15 1 -3
BITMAP
0FE0
1C70
30D8
63CC
630C
C306
C7C6
C306
C306
C306
630C
630C
3798
1C70
0FE0
ENDCHAR
STARTCHAR K+2853
ENCODING 10323
SWIDTH 960 0
DWIDTH 16 0
BBX 15 15 1 -3
BITMAP
0FE0
1C70
3018
67FC
66EC
CC66
CCC6
C786
CF06
CDE6
6C6C
6FEC
3018
1C70
0FE0
ENDCHAR
STARTCHAR K+2854
ENCODING 10324
SWIDTH 960 0
DWIDTH 16 0
BBX 15 15 1 -3
BITMAP
0FE0
1C70
3018
660C
660C
C606
C7E6
C766
C666
C666
666C
666C
3018
1C70
0FE0
ENDCHAR
STARTCHAR K+2855
ENCODING 10325
SWIDTH 960 0
DWIDTH 16 0
BBX 15 15 1 -3
BITMAP
0FE0
1C70
3398
600C
600C
C186
C186
C186
C186
C186
618C
63CC
3018
1C70
0FE0
ENDCHAR
STARTCHAR K+2856
ENCODING 10326
SWIDTH 960 0
DWIDTH 16 0
BBX 15 15 1 -3
BITMAP
0FE0
1DF0
3018
600C
600C
C386
C186
C186
C186
C186
618C
618C
3718
1C70
0FE0
ENDCHAR
STARTCHAR K+2857
ENCODING 10327
SWIDTH 960 0
DWIDTH 16 0
BBX 15 15 1 -3
BITMAP
0FE0
1C70
3E18
660C
660C
C606
C666
C7C6
C786
C7C6
666C
6F7C
3018
1C70
0FE0
ENDCHAR
STARTCHAR K+2858
ENCODING 10328
SWIDTH 960 0
DWIDTH 16 0
BBX 15 15 1 -3
BITMAP
0FE0
1C70
3198
618C
618C
C186
C186
C186
C186
C186
618C
618C
3018
1C70
0FE0
ENDCHAR
STARTCHAR K+2859
ENCODING 10329
SWIDTH 960 0
DWIDTH 16 0
BBX 15 15 1 -3
BITMAP
0FE0
1C70
3018
600C
7FFC
DDDE
D99E
D99E
D99E
D99E
600C
600C
3018
1C70
0FE0
ENDCHAR
STARTCHAR K+285A
ENCODING 10330
SWIDTH 960 0
DWIDTH 16 0
BBX 15 15 1 -3
BITMAP
0FE0
1C70
3018
600C
7FCC
CE66
CC66
CC66
CC66
CC66
600C
600C
3018
1C70
0FE0
ENDCHAR
STARTCHAR K+285B
ENCODING 10331
SWIDTH 960 0
DWIDTH 16 0
BBX 15 15 1 -3
BITMAP
0FE0
1C70
3018
600C
67CC
C6C6
CC66
CC66
CC66
C6C6
67CC
600C
3018
1C70
0FE0
ENDCHAR
STARTCHAR K+285C
ENCODING 10332
SWIDTH 960 0
DWIDTH 16 0
BBX 15 15 1 -3
BITMAP
0FE0
1C70
3018
67CC
676C
C636
C636
C636
C676
C7C6
660C
660C
3018
1C70
0FE0
ENDCHAR
STARTCHAR K+285D
ENCODING 10333
SWIDTH 960 0
DWIDTH 16 0
BBX 15 15 1 -3
BITMAP
0FE0
1C70
3018
6FCC
78CC
D8C6
D8C6
D8C6
CCC6
C7C6
60CC
61EC
3018
1C70
0FE0
ENDCHAR
STARTCHAR K+285E
ENCODING 10334
SWIDTH 960 0
DWIDTH 16 0
BBX 15 15 1 -3
BITMAP
0FE0
1C70
3018
600C
636C
C3E6
C306
C306
C306
C306
678C
600C
3018
1C70
0FE0
ENDCHAR
STARTCHAR K+285F
ENCODING 10335
SWIDTH 960 0
DWIDTH 16 0
BBX 15 15 1 -3
BITMAP
0FE0
1C70
3018
600C
67CC
C666
C606
C3C6
CC66
C666
63CC
600C
3018
1C70
0FE0
ENDCHAR
STARTCHAR K+2860
ENCODING 10336
SWIDTH 960 0
DWIDTH 16 0
BBX 15 15 1 -3
BITMAP
0FE0
1C70
3018
630C
630C
C7C6
C306
C306
C306
C306
630C
63CC
3018
1C70
0FE0
ENDCHAR
STARTCHAR K+2861
ENCODING 10337
SWIDTH 960 0
DWIDTH 16 0
BBX 15 15 1 -3
BITMAP
0FE0
1C70
3018
600C
6C6C
CC66
CC66
CC66
CC66
CC66
67FC
600C
3018
1C70
0FE0
ENDCHAR
STARTCHAR K+2862
ENCODING 10338
SWIDTH 960 0
DWIDTH 16 0
BBX 15 15 1 -3
BITMAP
0FE0
1C70
3018
600C
7EFC
C6C6
C6C6
C6C6
C386
C386
600C
600C
3018
1C70
0FE0
ENDCHAR
STARTCHAR K+2863
ENCODING 10339
SWIDTH 960 0
DWIDTH 16 0
BBX 15 15 1 -3
BITMAP
0FE0
1C70
3018
600C
600C
D986
D9B6
CFB6
CEE6
CEE6
660C
600C
3018
1C70
0FE0
ENDCHAR
STARTCHAR K+2864
ENCODING 10340
SWIDTH 960 0
DWIDTH 16 0
BBX 15 15 1 -3
BITMAP
0FE0
1C70
3018
600C
6FFC
C6C6
C386
C186
C7C6
C6C6
6EFC
600C
3018
1C70
0FE0
ENDCHAR
STARTCHAR K+2865
ENCODING 10341
SWIDTH 960 0
DWIDTH 16 0
BBX 15 15 1 -3
BITMAP
0FE0
1C70
3018
6FFC
666C
C6C6
C3C6
C386
C186
C186
630C
6E0C
3018
1C70
0FE0
ENDCHAR
STARTCHAR K+2866
ENCODING 10342
SWIDTH 960 0
DWIDTH 16 0
BBX 15 15 1 -3
BITMAP
0FE0
1C70
3018
600C
67EC
C0C6
C186
C306
C606
C666
6FCC
600C
3018
1C70
0FE0
ENDCHAR
STARTCHAR K+2867
ENCODING 10343
SWIDTH 960 0
DWIDTH 16 0
BBX 15 15 1 -3
BITMAP
0FE0
1C70
3718
630C
630C
C306
C306
C306
C306
C306
630C
6FCC
3018
1C70
0FE0
ENDCHAR
STARTCHAR K+2868
ENCODING 10344
SWIDTH 960 0
DWIDTH 16 0
BBX 15 14 1 -3
BITMAP
0FE0
1C70
37D8
6E6C
E06E
C0C6
C186
C306
C606
EC6E
6FEC
3018
1C70
0FE0
ENDCHAR
STARTCHAR K+2869
ENCODING 10345
SWIDTH 960 0
DWIDTH 16 0
BBX 15 15 1 -3
BITMAP
0FE0
1C70
33D8
666C
666C
C066
C0C6
C1C6
C066
C066
6C6C
6CCC
3798
1C70
0FE0
ENDCHAR
STARTCHAR K+286A
ENCODING 10346
SWIDTH 960 0
DWIDTH 16 0
BBX 15 15 1 -3
BITMAP
0FE0
1C70
3198
618C
638C
C786
CD86
CD86
D986
DFE6
618C
618C
3018
1C70
0FE0
ENDCHAR
STARTCHAR K+286B
ENCODING 10347
SWIDTH 960 0
DWIDTH 16 0
BBX 15 15 1 -3
BITMAP
0FE0
3C78
3FD8
6C0C
EC0E
CC06
CF86
CEC6
C066
C066
6C6C
6CCC
3CD8
1FF0
0FE0
ENDCHAR
STARTCHAR K+286C
ENCODING 10348
SWIDTH 960 0
DWIDTH 16 0
BBX 15 15 1 -3
BITMAP
0FE0
1C70
3018
63CC
666C
CC06
CC06
CFC6
CC66
CC66
6C6C
66EC
33D8
1C70
0FE0
ENDCHAR
STARTCHAR K+286D
ENCODING 10349
SWIDTH 960 0
DWIDTH 16 0
BBX 15 15 1 -3
BITMAP
0FE0
1C70
3018
6FEC
6C6C
CCC6
C186
C186
C186
C306
630C
630C
3718
1C70
0FE0
ENDCHAR
STARTCHAR K+286E
ENCODING 10350
SWIDTH 960 0
DWIDTH 16 0
BBX 15 15 1 -3
BITMAP
0FE0
1C70
37D8
6EEC
6C6C
CCC6
C786
C3C6
CE66
CC66
6C6C
6E6C
37D8
1C70
0FE0
ENDCHAR
STARTCHAR K+286F
ENCODING 10351
SWIDTH 960 0
DWIDTH 16 0
BBX 15 15 1 -3
BITMAP
0FE0
1C70
3798
66CC
6C6C
CC66
CC66
CDE6
C766
C066
66CC
678C
3318
1C70
0FE0
ENDCHAR
STARTCHAR K+2870
ENCODING 10352
SWIDTH 960 0
DWIDTH 16 0
BBX 15 15 1 -3
BITMAP
0FE0
1C70
3018
607C
7CDC
CD8E
CD8E
CD8E
CD8E
CD8E
6CDC
7F7C
3018
1C70
0FE0
ENDCHAR
STARTCHAR K+2871
ENCODING 10353
SWIDTH 960 0
DWIDTH 16 0
BBX 15 15 1 -3
BITMAP
0FE0
1C70
3018
600C
7CEC
CC66
CC66
CC66
CC66
CC66
6C6C
7FFC
3018
1C70
0FE0
ENDCHAR
STARTCHAR K+2872
ENCODING 10354
SWIDTH 960 0
DWIDTH 16 0
BBX 15 15 1 -3
BITMAP
0FE0
1C70
3018
60FC
7CDC
CC1E
CC36
CC66
CCC6
CD86
6CFC
7F0C
3018
1C70
0FE0
ENDCHAR
STARTCHAR K+2873
ENCODING 10355
SWIDTH 960 0
DWIDTH 16 0
BBX 15 15 1 -3
BITMAP
0FE0
1C70
3018
600C
7DFC
CC1E
CC36
CCF6
CC1E
CD9E
6D9C
7FFC
3018
1C70
0FE0
ENDCHAR
STARTCHAR K+2874
ENCODING 10356
SWIDTH 960 0
DWIDTH 16 0
BBX 15 15 1 -3
BITMAP
0FE0
1C70
3038
603C
7C7C
CCF6
CCF6
CDB6
CDFE
CC36
6C3C
7F7C
3018
1C70
0FE0
ENDCHAR
STARTCHAR K+2875
ENCODING 10357
SWIDTH 960 0
DWIDTH 16 0
BBX 15 15 1 -3
BITMAP
0FE0
1C70
3018
6DFC
7D8C
CD86
CDF6
CC1E
CC1E
CD9E
6DBC
66EC
3018
1C70
0FE0
ENDCHAR
STARTCHAR K+2876
ENCODING 10358
SWIDTH 960 0
DWIDTH 16 0
BBX 13 13 2 -2
BITMAP
6000
6070
6060
60C0
6180
6300
07F0
0D98
1830
3060
60C0
C198
C1F0
ENDCHAR
STARTCHAR K+2877
ENCODING 10359
SWIDTH 960 0
DWIDTH 16 0
BBX 13 14 2 -3
BITMAP
6000
6070
60C0
60C0
6180
6300
06E0
0DB0
19B0
3060
6038
C198
C1B0
00E0
ENDCHAR
STARTCHAR K+2878
ENCODING 10360
SWIDTH 960 0
DWIDTH 16 0
BBX 13 15 2 -3
BITMAP
F800
CC18
1830
3060
60C0
CD80
FF00
0670
0DD8
0C18
1870
3018
6198
C198
00F0
ENDCHAR
STARTCHAR K+2879
ENCODING 10361
SWIDTH 960 0
DWIDTH 16 0
BBX 12 14 2 -2
BITMAP
3000
3000
3030
3060
30C0
3180
3300
0660
0CE0
19E0
3360
3660
67F0
C060
ENDCHAR
STARTCHAR K+287A
ENCODING 10362
SWIDTH 960 0
DWIDTH 16 0
BBX 13 13 2 -2
BITMAP
FC18
CC30
1860
0CC0
CD80
CD80
7B60
06E0
0DE0
1B60
3660
67F0
0060
ENDCHAR
STARTCHAR K+287B
ENCODING 10363
SWIDTH 960 0
DWIDTH 16 0
BBX 13 14 2 -3
BITMAP
3000
3030
3060
30C0
3180
3300
0660
0DF8
1998
30F0
3198
6198
C198
00F0
ENDCHAR
STARTCHAR K+287C
ENCODING 10364
SWIDTH 960 0
DWIDTH 16 0
BBX 13 14 2 -3
BITMAP
FC18
CC30
1860
0CC0
CD80
CF00
7E60
07F8
0D98
18F0
3198
6198
C198
00F0
ENDCHAR
STARTCHAR K+287D
ENCODING 10365
SWIDTH 960 0
DWIDTH 16 0
BBX 13 15 2 -3
BITMAP
FC00
C018
C030
FC60
0CC0
CD80
DB00
73F8
0798
0D98
18F0
31F8
6318
01B0
00E0
ENDCHAR
STARTCHAR K+287E
ENCODING 10366
SWIDTH 960 0
DWIDTH 16 0
BBX 13 15 2 -3
BITMAP
7000
DC00
1870
1860
18C0
3180
3300
06F0
0D98
1998
30F0
6198
C198
C198
00F0
ENDCHAR
STARTCHAR K+2921
ENCODING 10529
SWIDTH 960 0
DWIDTH 16 0
BBX 13 9 2 -1
BITMAP
3DE0
6730
6718
07F8
3E00
6600
E730
7FE0
3000
ENDCHAR
STARTCHAR K+2922
ENCODING 10530
SWIDTH 960 0
DWIDTH 16 0
BBX 10 12 4 -1
BITMAP
0700
0300
1FC0
0300
3F00
6700
C300
C300
C300
C300
7700
1C00
ENDCHAR
STARTCHAR K+2923
ENCODING 10531
SWIDTH 960 0
DWIDTH 16 0
BBX 8 11 4 -1
BITMAP
30
1C
3C
06
7E
C3
C3
C3
C3
66
3C
ENDCHAR
STARTCHAR K+2924
ENCODING 10532
SWIDTH 960 0
DWIDTH 16 0
BBX 9 11 3 0
BITMAP
3000
3000
FE00
3000
3F00
3980
3180
3180
3180
3180
3180
ENDCHAR
STARTCHAR K+2925
ENCODING 10533
SWIDTH 960 0
DWIDTH 16 0
BBX 4 8 7 -1
BITMAP
E0
60
60
60
60
60
60
30
ENDCHAR
STARTCHAR K+2926
ENCODING 10534
SWIDTH 960 0
DWIDTH 16 0
BBX 8 13 4 -2
BITMAP
63
63
00
00
E7
63
63
63
63
63
63
3F
0E
ENDCHAR
STARTCHAR K+2927
ENCODING 10535
SWIDTH 960 0
DWIDTH 16 0
BBX 7 7 5 0
BITMAP
CE
D8
F0
F8
D8
CC
CE
ENDCHAR
STARTCHAR K+2928
ENCODING 10536
SWIDTH 960 0
DWIDTH 16 0
BBX 6 12 6 -1
BITMAP
C0
C0
C0
C0
C0
CC
CC
C0
C0
C0
C0
60
ENDCHAR
STARTCHAR K+2929
ENCODING 10537
SWIDTH 960 0
DWIDTH 16 0
BBX 6 11 6 0
BITMAP
70
30
3C
38
30
30
70
F0
30
30
78
ENDCHAR
STARTCHAR K+292A
ENCODING 10538
SWIDTH 960 0
DWIDTH 16 0
BBX 9 9 4 -1
BITMAP
1C00
7700
C700
CD80
D980
F380
6300
F600
1C00
ENDCHAR
STARTCHAR K+292B
ENCODING 10539
SWIDTH 960 0
DWIDTH 16 0
BBX 13 8 2 -1
BITMAP
7FF0
C318
C3F8
C300
C300
C380
6FF0
3860
ENDCHAR
STARTCHAR K+292C
ENCODING 10540
SWIDTH 960 0
DWIDTH 16 0
BBX 9 12 4 -1
BITMAP
3E00
7700
6300
6300
6300
6E00
6300
6380
6180
6180
7F00
FF00
ENDCHAR
STARTCHAR K+292D
ENCODING 10541
SWIDTH 960 0
DWIDTH 16 0
BBX 9 12 4 -2
BITMAP
E000
6000
6000
7E00
6300
6180
6180
6180
6180
7700
7C00
E000
ENDCHAR
STARTCHAR K+292E
ENCODING 10542
SWIDTH 960 0
DWIDTH 16 0
BBX 5 11 6 0
BITMAP
60
60
60
F8
60
60
60
60
60
60
78
ENDCHAR
STARTCHAR K+292F
ENCODING 10543
SWIDTH 960 0
DWIDTH 16 0
BBX 8 10 4 -3
BITMAP
FE
63
63
63
63
63
63
1B
1B
0E
ENDCHAR
STARTCHAR K+2930
ENCODING 10544
SWIDTH 960 0
DWIDTH 16 0
BBX 9 10 3 0
BITMAP
6000
E000
C000
3F80
1D80
1980
1980
1980
1980
1980
ENDCHAR
STARTCHAR K+2931
ENCODING 10545
SWIDTH 960 0
DWIDTH 16 0
BBX 15 12 1 -2
BITMAP
E018
C00C
1FFC
0036
0036
0036
0036
0036
C03C
C03C
6018
0030
ENDCHAR
STARTCHAR K+2932
ENCODING 10546
SWIDTH 960 0
DWIDTH 16 0
BBX 15 12 1 -2
BITMAP
6018
C00C
D80C
0C06
0C06
0C06
0C06
0C3E
0FEC
C00C
C018
6030
ENDCHAR
STARTCHAR K+2933
ENCODING 10547
SWIDTH 960 0
DWIDTH 16 0
BBX 15 12 1 -2
BITMAP
E018
C00C
0FFC
0C06
0C06
0C06
0C06
0C06
CFFC
C00C
6018
0030
ENDCHAR
STARTCHAR K+2934
ENCODING 10548
SWIDTH 960 0
DWIDTH 16 0
BBX 15 12 1 -2
BITMAP
E018
C00C
1FFC
0036
0066
0FF6
0C06
0C06
CFFC
C00C
6018
0030
ENDCHAR
STARTCHAR K+2935
ENCODING 10549
SWIDTH 960 0
DWIDTH 16 0
BBX 15 12 1 -2
BITMAP
E018
C00C
000C
1FF6
0C36
0C36
0C66
0FF6
CC0C
C00C
6018
0030
ENDCHAR
STARTCHAR K+2936
ENCODING 10550
SWIDTH 960 0
DWIDTH 16 0
BBX 15 12 1 -2
BITMAP
E018
C06C
0C3C
0C36
0FF6
0C36
0C36
0C36
CFFC
CC3C
6018
0030
ENDCHAR
STARTCHAR K+2937
ENCODING 10551
SWIDTH 960 0
DWIDTH 16 0
BBX 15 12 1 -2
BITMAP
E018
C30C
01CC
0186
0386
07C6
0676
1C3E
C00C
C00C
6018
0030
ENDCHAR
STARTCHAR K+2938
ENCODING 10552
SWIDTH 960 0
DWIDTH 16 0
BBX 15 11 1 -1
BITMAP
E018
C38C
0FEC
1C76
1836
1836
1836
0C66
C7CC
C00C
6018
ENDCHAR
STARTCHAR K+2939
ENCODING 10553
SWIDTH 960 0
DWIDTH 16 0
BBX 15 12 1 -2
BITMAP
E018
C00C
1FFC
0C66
00C6
01C6
0386
06F6
DC3C
C00C
6018
0030
ENDCHAR
STARTCHAR K+293A
ENCODING 10554
SWIDTH 960 0
DWIDTH 16 0
BBX 15 12 1 -2
BITMAP
E018
C3CC
000C
0006
1FE6
00C6
0186
07E6
DC3C
C00C
6018
0030
ENDCHAR
STARTCHAR K+293B
ENCODING 10555
SWIDTH 960 0
DWIDTH 16 0
BBX 15 12 1 -2
BITMAP
E018
C00C
1FFC
0C36
0036
03F6
1E66
0066
C06C
C0CC
6198
0030
ENDCHAR
STARTCHAR K+293C
ENCODING 10556
SWIDTH 960 0
DWIDTH 16 0
BBX 15 12 1 -2
BITMAP
E018
C00C
0FFC
0C06
0C66
0FF6
0C06
0C06
CFFC
C00C
6018
0030
ENDCHAR
STARTCHAR K+293D
ENCODING 10557
SWIDTH 960 0
DWIDTH 16 0
BBX 15 12 1 -2
BITMAP
6018
C00C
DFFC
0006
0066
06C6
06C6
0186
3FFC
C00C
C018
6030
ENDCHAR
STARTCHAR K+293E
ENCODING 10558
SWIDTH 960 0
DWIDTH 16 0
BBX 15 12 1 -2
BITMAP
E018
C7CC
000C
01FE
3F86
07C6
0C66
0C66
CC6C
C7CC
6018
0030
ENDCHAR
STARTCHAR K+293F
ENCODING 10559
SWIDTH 960 0
DWIDTH 16 0
BBX 15 12 1 -2
BITMAP
E078
C06C
3FEC
01E6
0366
067E
0C66
1866
C06C
C06C
6078
0030
ENDCHAR
STARTCHAR K+2940
ENCODING 10560
SWIDTH 960 0
DWIDTH 16 0
BBX 15 12 1 -2
BITMAP
E078
C06C
386C
1866
1866
187E
18E6
1FE6
C06C
C06C
6078
0030
ENDCHAR
STARTCHAR K+2941
ENCODING 10561
SWIDTH 960 0
DWIDTH 16 0
BBX 15 12 1 -2
BITMAP
E078
C06C
1FEC
1866
1866
187E
18E6
1FE6
C06C
C06C
6078
0030
ENDCHAR
STARTCHAR K+2942
ENCODING 10562
SWIDTH 960 0
DWIDTH 16 0
BBX 15 12 1 -2
BITMAP
E078
C06C
3FEC
01E6
0366
1FFE
1866
1866
DFEC
DC6C
6078
0030
ENDCHAR
STARTCHAR K+2943
ENCODING 10563
SWIDTH 960 0
DWIDTH 16 0
BBX 15 12 1 -2
BITMAP
E078
C06C
3FEC
19E6
19E6
1B7E
1FE6
0066
C06C
C06C
6078
0030
ENDCHAR
STARTCHAR K+2944
ENCODING 10564
SWIDTH 960 0
DWIDTH 16 0
BBX 15 12 1 -2
BITMAP
E078
C66C
1B6C
1B66
1F66
1B7E
1B66
1F66
D86C
C06C
6078
0030
ENDCHAR
STARTCHAR K+2945
ENCODING 10565
SWIDTH 960 0
DWIDTH 16 0
BBX 15 12 1 -2
BITMAP
E078
C06C
076C
0666
0C66
0F7E
19E6
3066
C06C
C06C
6078
0030
ENDCHAR
STARTCHAR K+2946
ENCODING 10566
SWIDTH 960 0
DWIDTH 16 0
BBX 15 13 1 -2
BITMAP
00C0
E078
CC6C
1F6C
33E6
31E6
31FE
33E6
1F66
C06C
C06C
6078
0030
ENDCHAR
STARTCHAR K+2947
ENCODING 10567
SWIDTH 960 0
DWIDTH 16 0
BBX 15 12 1 -2
BITMAP
E078
C06C
37EC
1F66
0666
0E7E
1BE6
3066
C06C
C06C
6078
0030
ENDCHAR
STARTCHAR K+2948
ENCODING 10568
SWIDTH 960 0
DWIDTH 16 0
BBX 15 13 1 -2
BITMAP
00C0
E078
CF6C
006C
1F66
0366
067E
0FE6
19E6
C06C
C06C
6078
0030
ENDCHAR
STARTCHAR K+2949
ENCODING 10569
SWIDTH 960 0
DWIDTH 16 0
BBX 15 12 1 -2
BITMAP
E078
C06C
3FEC
0366
0766
1E7E
0C66
1866
F06C
C06C
6078
0030
ENDCHAR
STARTCHAR K+294A
ENCODING 10570
SWIDTH 960 0
DWIDTH 16 0
BBX 15 12 1 -2
BITMAP
E078
C06C
3FEC
1866
1FE6
187E
1866
1FE6
C06C
C06C
6078
0030
ENDCHAR
STARTCHAR K+294B
ENCODING 10571
SWIDTH 960 0
DWIDTH 16 0
BBX 15 12 1 -2
BITMAP
E078
C06C
3FEC
0366
0366
0F7E
0366
3FE6
C06C
C06C
6078
0030
ENDCHAR
STARTCHAR K+294C
ENCODING 10572
SWIDTH 960 0
DWIDTH 16 0
BBX 15 11 1 -1
BITMAP
E078
CF78
006C
3FE6
0F66
19FE
19E6
19E6
CF6C
C06C
6078
ENDCHAR
STARTCHAR K+294D
ENCODING 10573
SWIDTH 960 0
DWIDTH 16 0
BBX 15 12 1 -2
BITMAP
E018
C00C
07CC
0CC6
00C6
07C6
0CC6
0CC6
CFEC
C00C
6018
0030
ENDCHAR
STARTCHAR K+294E
ENCODING 10574
SWIDTH 960 0
DWIDTH 16 0
BBX 15 12 1 -2
BITMAP
E618
C60C
060C
0606
07C6
0666
0666
0666
C66C
C6CC
6398
0030
ENDCHAR
STARTCHAR K+294F
ENCODING 10575
SWIDTH 960 0
DWIDTH 16 0
BBX 15 12 1 -2
BITMAP
E018
C00C
03CC
0666
0C06
0C06
0C06
0666
C3CC
C00C
6018
0030
ENDCHAR
STARTCHAR K+2950
ENCODING 10576
SWIDTH 960 0
DWIDTH 16 0
BBX 15 12 1 -2
BITMAP
E1D8
C0CC
00CC
07C6
0DC6
18C6
18C6
18C6
D8CC
CFCC
6078
0030
ENDCHAR
STARTCHAR K+2951
ENCODING 10577
SWIDTH 960 0
DWIDTH 16 0
BBX 15 12 1 -2
BITMAP
E018
C3CC
06EC
0C66
0FE6
0C06
0C06
0E66
C3CC
C00C
6018
0030
ENDCHAR
STARTCHAR K+2952
ENCODING 10578
SWIDTH 960 0
DWIDTH 16 0
BBX 15 12 1 -2
BITMAP
E0D8
C3CC
030C
0306
07C6
0306
0306
0306
C30C
C30C
6798
0030
ENDCHAR
STARTCHAR K+2953
ENCODING 10579
SWIDTH 960 0
DWIDTH 16 0
BBX 15 12 1 -2
BITMAP
E018
C7FC
0CCC
0CC6
0CC6
0F86
0F06
0DE6
D86C
CFCC
6018
0030
ENDCHAR
STARTCHAR K+2954
ENCODING 10580
SWIDTH 960 0
DWIDTH 16 0
BBX 15 12 1 -2
BITMAP
E618
C60C
060C
0606
07E6
0666
0666
0666
C66C
C66C
6018
0030
ENDCHAR
STARTCHAR K+2955
ENCODING 10581
SWIDTH 960 0
DWIDTH 16 0
BBX 15 12 1 -2
BITMAP
E398
C00C
000C
0006
0186
0186
0186
0186
C18C
C18C
6018
0030
ENDCHAR
STARTCHAR K+2956
ENCODING 10582
SWIDTH 960 0
DWIDTH 16 0
BBX 15 13 1 -2
BITMAP
0180
E018
C00C
000C
0386
0186
0186
0186
0186
C18C
C18C
6718
0030
ENDCHAR
STARTCHAR K+2957
ENCODING 10583
SWIDTH 960 0
DWIDTH 16 0
BBX 15 12 1 -2
BITMAP
E618
C60C
060C
0606
0666
07C6
0786
07C6
C66C
C67C
6018
0030
ENDCHAR
STARTCHAR K+2958
ENCODING 10584
SWIDTH 960 0
DWIDTH 16 0
BBX 15 12 1 -2
BITMAP
E198
C18C
018C
0186
0186
0186
0186
0186
C18C
C18C
6018
0030
ENDCHAR
STARTCHAR K+2959
ENCODING 10585
SWIDTH 960 0
DWIDTH 16 0
BBX 15 12 1 -2
BITMAP
E018
C00C
7FFC
399E
319E
319E
319E
319E
C00C
C00C
6018
0030
ENDCHAR
STARTCHAR K+295A
ENCODING 10586
SWIDTH 960 0
DWIDTH 16 0
BBX 15 12 1 -2
BITMAP
E018
C00C
1FCC
0E66
0C66
0C66
0C66
0C66
C00C
C00C
6018
0030
ENDCHAR
STARTCHAR K+295B
ENCODING 10587
SWIDTH 960 0
DWIDTH 16 0
BBX 15 12 1 -2
BITMAP
E018
C00C
07CC
06E6
0C66
0C66
0C66
0EC6
C7CC
C00C
6018
0030
ENDCHAR
STARTCHAR K+295C
ENCODING 10588
SWIDTH 960 0
DWIDTH 16 0
BBX 15 12 1 -2
BITMAP
E018
C7CC
077C
0636
0636
0636
0636
07E6
C60C
C60C
6018
0030
ENDCHAR
STARTCHAR K+295D
ENCODING 10589
SWIDTH 960 0
DWIDTH 16 0
BBX 15 12 1 -2
BITMAP
E018
C70C
0DCC
18C6
18C6
18C6
0CC6
07C6
C0CC
C0CC
6078
0030
ENDCHAR
STARTCHAR K+295E
ENCODING 10590
SWIDTH 960 0
DWIDTH 16 0
BBX 15 12 1 -2
BITMAP
E018
C00C
07EC
0386
0306
0306
0306
0306
C00C
C00C
6018
0030
ENDCHAR
STARTCHAR K+295F
ENCODING 10591
SWIDTH 960 0
DWIDTH 16 0
BBX 15 12 1 -2
BITMAP
E018
C00C
07CC
0C06
0706
01C6
0C66
0666
C3CC
C00C
6018
0030
ENDCHAR
STARTCHAR K+2960
ENCODING 10592
SWIDTH 960 0
DWIDTH 16 0
BBX 15 12 1 -2
BITMAP
E018
C30C
030C
07C6
0306
0306
0306
0306
C30C
C3CC
6018
0030
ENDCHAR
STARTCHAR K+2961
ENCODING 10593
SWIDTH 960 0
DWIDTH 16 0
BBX 15 12 1 -2
BITMAP
E018
C00C
1CEC
0C66
0C66
0C66
0C66
0CE6
C78C
C00C
6018
0030
ENDCHAR
STARTCHAR K+2962
ENCODING 10594
SWIDTH 960 0
DWIDTH 16 0
BBX 15 12 1 -2
BITMAP
E018
C00C
0E0C
0C66
06C6
06C6
0386
0386
C30C
C00C
6018
0030
ENDCHAR
STARTCHAR K+2963
ENCODING 10595
SWIDTH 960 0
DWIDTH 16 0
BBX 15 12 1 -2
BITMAP
E018
C00C
000C
1986
19B6
1BE6
0EE6
0EE6
C00C
C00C
6018
0030
ENDCHAR
STARTCHAR K+2964
ENCODING 10596
SWIDTH 960 0
DWIDTH 16 0
BBX 15 12 1 -2
BITMAP
E018
C00C
0EEC
06C6
0386
0386
07C6
0CC6
DEFC
C00C
6018
0030
ENDCHAR
STARTCHAR K+2965
ENCODING 10597
SWIDTH 960 0
DWIDTH 16 0
BBX 15 12 1 -2
BITMAP
E018
C00C
066C
06C6
06C6
03C6
0386
0186
C30C
CF0C
6018
0030
ENDCHAR
STARTCHAR K+2966
ENCODING 10598
SWIDTH 960 0
DWIDTH 16 0
BBX 15 11 1 -1
BITMAP
E018
C00C
07EC
06C6
0186
0306
0666
06C6
CFCC
C00C
6018
ENDCHAR
STARTCHAR K+2967
ENCODING 10599
SWIDTH 960 0
DWIDTH 16 0
BBX 15 12 1 -2
BITMAP
E398
C18C
018C
0186
0186
0186
0186
0186
C18C
C18C
67F8
0030
ENDCHAR
STARTCHAR K+2968
ENCODING 10600
SWIDTH 960 0
DWIDTH 16 0
BBX 15 12 1 -2
BITMAP
E3D8
C66C
0C6C
0C66
00C6
0186
0706
0C06
CC6C
CFEC
6018
0030
ENDCHAR
STARTCHAR K+2969
ENCODING 10601
SWIDTH 960 0
DWIDTH 16 0
BBX 15 12 1 -2
BITMAP
E7D8
CE6C
006C
0066
01C6
00C6
0066
0066
CC6C
CCCC
6798
0030
ENDCHAR
STARTCHAR K+296A
ENCODING 10602
SWIDTH 960 0
DWIDTH 16 0
BBX 15 12 1 -2
BITMAP
E198
C38C
078C
0D86
0D86
1986
1986
1FE6
C18C
C18C
60D8
0030
ENDCHAR
STARTCHAR K+296B
ENCODING 10603
SWIDTH 960 0
DWIDTH 16 0
BBX 15 12 1 -2
BITMAP
EFF8
CC0C
0C0C
0C06
0FC6
0C66
0066
0066
CC6C
CC6C
67D8
0030
ENDCHAR
STARTCHAR K+296C
ENCODING 10604
SWIDTH 960 0
DWIDTH 16 0
BBX 15 12 1 -2
BITMAP
E3F8
C66C
0C0C
0C06
0FC6
0C66
0C66
0C66
CC6C
C6CC
6398
0030
ENDCHAR
STARTCHAR K+296D
ENCODING 10605
SWIDTH 960 0
DWIDTH 16 0
BBX 15 12 1 -2
BITMAP
E7F8
CC6C
0CCC
00C6
0186
0186
0306
0306
C30C
C30C
6018
0030
ENDCHAR
STARTCHAR K+296E
ENCODING 10606
SWIDTH 960 0
DWIDTH 16 0
BBX 15 12 1 -2
BITMAP
E7D8
CC6C
0C6C
0CC6
0786
07E6
0C66
0C66
CC6C
C6CC
6398
0030
ENDCHAR
STARTCHAR K+296F
ENCODING 10607
SWIDTH 960 0
DWIDTH 16 0
BBX 15 12 1 -2
BITMAP
E398
CECC
0C6C
0C66
0C66
06E6
03E6
0066
C0CC
CECC
6398
0030
ENDCHAR
STARTCHAR K+2970
ENCODING 10608
SWIDTH 960 0
DWIDTH 16 0
BBX 15 12 1 -2
BITMAP
ECF8
DCFC
0D9C
0D9E
0D9E
0D9E
0D9E
0D9E
CD9C
CDBC
60F8
0030
ENDCHAR
STARTCHAR K+2971
ENCODING 10609
SWIDTH 960 0
DWIDTH 16 0
BBX 15 12 1 -2
BITMAP
E018
DCEC
0C6C
0C66
0C66
0C66
0C66
0C66
DFFC
C00C
6018
0030
ENDCHAR
STARTCHAR K+2972
ENCODING 10610
SWIDTH 960 0
DWIDTH 16 0
BBX 15 13 1 -2
BITMAP
6000
C018
DCFC
0CDC
0C1E
0C36
0C66
0CC6
0D86
DFFC
C00C
6018
0030
ENDCHAR
STARTCHAR K+2973
ENCODING 10611
SWIDTH 960 0
DWIDTH 16 0
BBX 15 12 1 -2
BITMAP
E018
DDFC
0C1C
0C36
0C76
0C1E
0D9E
0D9E
DFFC
C00C
6018
0030
ENDCHAR
STARTCHAR K+2974
ENCODING 10612
SWIDTH 960 0
DWIDTH 16 0
BBX 15 12 1 -2
BITMAP
E038
DC3C
0C7C
0CF6
0DB6
0DB6
0DFE
0C36
DF3C
C00C
6018
0030
ENDCHAR
STARTCHAR K+2975
ENCODING 10613
SWIDTH 960 0
DWIDTH 16 0
BBX 15 12 1 -2
BITMAP
E018
CDFC
1D8C
0D86
0DF6
0C1E
0C1E
0D9E
CDBC
C6EC
6018
0030
ENDCHAR
STARTCHAR K+2976
ENCODING 10614
SWIDTH 960 0
DWIDTH 16 0
BBX 4 7 7 5
BITMAP
E0
60
60
60
60
60
F0
ENDCHAR
STARTCHAR K+2977
ENCODING 10615
SWIDTH 960 0
DWIDTH 16 0
BBX 5 7 6 5
BITMAP
70
D8
D8
38
60
C0
F8
ENDCHAR
STARTCHAR K+2978
ENCODING 10616
SWIDTH 960 0
DWIDTH 16 0
BBX 5 8 6 4
BITMAP
70
D8
18
70
18
D8
D8
70
ENDCHAR
STARTCHAR K+2979
ENCODING 10617
SWIDTH 960 0
DWIDTH 16 0
BBX 5 6 6 5
BITMAP
30
70
F0
30
F8
30
ENDCHAR
STARTCHAR K+297A
ENCODING 10618
SWIDTH 960 0
DWIDTH 16 0
BBX 7 6 6 5
BITMAP
3C
EC
CC
CC
CC
CE
ENDCHAR
STARTCHAR K+297B
ENCODING 10619
SWIDTH 960 0
DWIDTH 16 0
BBX 4 7 6 -3
BITMAP
E0
60
60
60
60
60
F0
ENDCHAR
STARTCHAR K+297C
ENCODING 10620
SWIDTH 960 0
DWIDTH 16 0
BBX 5 7 6 -3
BITMAP
70
D8
D8
30
60
C0
F8
ENDCHAR
STARTCHAR K+297D
ENCODING 10621
SWIDTH 960 0
DWIDTH 16 0
BBX 5 7 6 -3
BITMAP
70
D8
18
70
18
D8
D8
ENDCHAR
STARTCHAR K+297E
ENCODING 10622
SWIDTH 960 0
DWIDTH 16 0
BBX 5 6 6 -2
BITMAP
30
70
F0
30
F8
30
ENDCHAR
STARTCHAR K+2A21
ENCODING 10785
SWIDTH 960 0
DWIDTH 16 0
BBX 9 10 4 -2
BITMAP
1800
1E00
7C00
3000
3F00
3D80
F980
3180
E180
0700
ENDCHAR
STARTCHAR K+2A22
ENCODING 10786
SWIDTH 960 0
DWIDTH 16 0
BBX 13 12 2 -1
BITMAP
0600
0600
67C0
3C00
0D80
0FC0
1F70
3F38
6E38
CC30
FC30
60E0
ENDCHAR
STARTCHAR K+2A23
ENCODING 10787
SWIDTH 960 0
DWIDTH 16 0
BBX 9 6 4 -1
BITMAP
C000
C600
C380
D980
F180
6000
ENDCHAR
STARTCHAR K+2A24
ENCODING 10788
SWIDTH 960 0
DWIDTH 16 0
BBX 12 8 3 1
BITMAP
C000
C000
C0C0
C060
C060
D8F0
7030
7000
ENDCHAR
STARTCHAR K+2A25
ENCODING 10789
SWIDTH 960 0
DWIDTH 16 0
BBX 7 9 5 -1
BITMAP
1C
00
0C
FC
06
06
0C
0C
18
ENDCHAR
STARTCHAR K+2A26
ENCODING 10790
SWIDTH 960 0
DWIDTH 16 0
BBX 8 13 4 -2
BITMAP
0E
07
00
00
FF
63
03
03
03
06
06
0C
18
ENDCHAR
STARTCHAR K+2A27
ENCODING 10791
SWIDTH 960 0
DWIDTH 16 0
BBX 9 10 4 -2
BITMAP
1800
0C00
0000
7E00
1800
3000
3000
7800
CD80
0700
ENDCHAR
STARTCHAR K+2A28
ENCODING 10792
SWIDTH 960 0
DWIDTH 16 0
BBX 11 11 3 -1
BITMAP
0E00
0300
0000
7F00
3600
0C00
1800
3000
7C00
EC00
C7E0
ENDCHAR
STARTCHAR K+2A29
ENCODING 10793
SWIDTH 960 0
DWIDTH 16 0
BBX 11 9 3 -1
BITMAP
1800
1800
18C0
7CE0
1800
1FC0
38C0
F8C0
3F80
ENDCHAR
STARTCHAR K+2A2A
ENCODING 10794
SWIDTH 960 0
DWIDTH 16 0
BBX 13 12 2 -1
BITMAP
1800
1C00
18F0
1E38
3800
1800
1FE0
1C30
3830
F870
3BE0
1800
ENDCHAR
STARTCHAR K+2A2B
ENCODING 10795
SWIDTH 960 0
DWIDTH 16 0
BBX 13 12 2 -1
BITMAP
1800
0C00
0C00
0C60
3FB0
F998
31F8
3180
6300
6300
CE00
0C00
ENDCHAR
STARTCHAR K+2A2C
ENCODING 10796
SWIDTH 960 0
DWIDTH 16 0
BBX 14 11 2 0
BITMAP
1C00
0C0C
0C18
1F60
F9B0
3198
31F8
3318
6300
DF00
CE00
ENDCHAR
STARTCHAR K+2A2D
ENCODING 10797
SWIDTH 960 0
DWIDTH 16 0
BBX 9 12 4 -1
BITMAP
7000
3600
1C00
7C00
0F80
FE00
0300
3F80
E780
0000
C000
7E00
ENDCHAR
STARTCHAR K+2A2E
ENCODING 10798
SWIDTH 960 0
DWIDTH 16 0
BBX 12 12 4 -1
BITMAP
7060
36F0
1CC0
7C00
0F80
FE00
0300
3F80
E780
0000
C000
7E00
ENDCHAR
STARTCHAR K+2A2F
ENCODING 10799
SWIDTH 960 0
DWIDTH 16 0
BBX 7 12 5 -1
BITMAP
0C
0C
18
30
60
C0
C0
60
30
18
0C
0E
ENDCHAR
STARTCHAR K+2A30
ENCODING 10800
SWIDTH 960 0
DWIDTH 16 0
BBX 10 12 5 -1
BITMAP
0C00
0C00
1800
33C0
6180
C000
C000
6000
3000
1800
0C00
0E00
ENDCHAR
STARTCHAR K+2A31
ENCODING 10801
SWIDTH 960 0
DWIDTH 16 0
BBX 13 12 2 -1
BITMAP
61C0
60C0
60C0
61F8
C7C0
C0C0
F0C0
E0C0
E0C0
E180
6180
0300
ENDCHAR
STARTCHAR K+2A32
ENCODING 10802
SWIDTH 960 0
DWIDTH 16 0
BBX 14 12 2 -1
BITMAP
61FC
60D8
60C0
61F8
C7C0
C0C0
F0C0
E0C0
E0C0
E180
6180
0300
ENDCHAR
STARTCHAR K+2A33
ENCODING 10803
SWIDTH 960 0
DWIDTH 16 0
BBX 11 10 3 0
BITMAP
1F80
0780
0000
0000
0000
0000
C000
C000
6000
3FE0
ENDCHAR
STARTCHAR K+2A34
ENCODING 10804
SWIDTH 960 0
DWIDTH 16 0
BBX 13 10 3 0
BITMAP
1FF0
07F8
0000
0000
0000
0000
C000
C000
6000
3FE0
ENDCHAR
STARTCHAR K+2A35
ENCODING 10805
SWIDTH 960 0
DWIDTH 16 0
BBX 11 12 3 -1
BITMAP
1F00
19C0
CF80
7F00
0180
00C0
1FE0
70E0
6000
6000
3800
0F80
ENDCHAR
STARTCHAR K+2A36
ENCODING 10806
SWIDTH 960 0
DWIDTH 16 0
BBX 13 12 3 -1
BITMAP
1F38
19F8
CFB0
7F00
0180
00C0
1FE0
70E0
6000
6000
3800
0F80
ENDCHAR
STARTCHAR K+2A37
ENCODING 10807
SWIDTH 960 0
DWIDTH 16 0
BBX 10 12 4 -1
BITMAP
C000
6000
6000
6000
C000
C000
C000
C000
C000
C0C0
6380
7E00
ENDCHAR
STARTCHAR K+2A38
ENCODING 10808
SWIDTH 960 0
DWIDTH 16 0
BBX 10 12 4 -1
BITMAP
C000
6000
6600
CF00
C000
C000
C000
C000
C000
C0C0
6380
7E00
ENDCHAR
STARTCHAR K+2A39
ENCODING 10809
SWIDTH 960 0
DWIDTH 16 0
BBX 13 13 2 -1
BITMAP
0700
0300
0300
0FF8
FB00
0700
1F00
1B00
1B00
0F00
0300
0600
0600
ENDCHAR
STARTCHAR K+2A3A
ENCODING 10810
SWIDTH 960 0
DWIDTH 16 0
BBX 13 14 2 -2
BITMAP
0700
0370
0378
0FF8
FB00
0700
0F00
1B00
1B00
0F00
0300
0300
0600
0C00
ENDCHAR
STARTCHAR K+2A3B
ENCODING 10811
SWIDTH 960 0
DWIDTH 16 0
BBX 15 11 1 0
BITMAP
00E0
0070
0C60
0C60
0FFE
FE60
6C60
0DE0
0CC0
0C00
07F8
ENDCHAR
STARTCHAR K+2A3C
ENCODING 10812
SWIDTH 960 0
DWIDTH 16 0
BBX 15 11 1 0
BITMAP
00C0
007E
1C6C
0C60
0DFE
FF60
6C60
0DE0
0CC0
0C00
07F8
ENDCHAR
STARTCHAR K+2A3D
ENCODING 10813
SWIDTH 960 0
DWIDTH 16 0
BBX 12 12 2 -1
BITMAP
1B80
0FC0
0300
0600
0CF0
3F80
7F00
EC00
0C00
0C00
0600
03C0
ENDCHAR
STARTCHAR K+2A3E
ENCODING 10814
SWIDTH 960 0
DWIDTH 16 0
BBX 14 12 2 -1
BITMAP
1B80
0FCC
033C
0600
0CF0
3F80
7E00
EC00
0C00
0C00
0600
03C0
ENDCHAR
STARTCHAR K+2A3F
ENCODING 10815
SWIDTH 960 0
DWIDTH 16 0
BBX 13 12 2 -1
BITMAP
1C00
0C00
1F00
FDE0
1830
3078
3000
6000
6600
E600
C600
03F8
ENDCHAR
STARTCHAR K+2A40
ENCODING 10816
SWIDTH 960 0
DWIDTH 16 0
BBX 14 11 2 -1
BITMAP
1C0C
0C18
1F00
FDE0
7830
3078
3000
3000
6600
6600
C3F8
ENDCHAR
STARTCHAR K+2A41
ENCODING 10817
SWIDTH 960 0
DWIDTH 16 0
BBX 11 12 3 -1
BITMAP
1800
1800
3F00
F800
3000
3000
37C0
7C60
7060
6060
00C0
0780
ENDCHAR
STARTCHAR K+2A42
ENCODING 10818
SWIDTH 960 0
DWIDTH 16 0
BBX 13 13 3 -1
BITMAP
3000
1800
1F30
FC78
3070
3000
3380
7EE0
7060
6060
00E0
03C0
0F00
ENDCHAR
STARTCHAR K+2A43
ENCODING 10819
SWIDTH 960 0
DWIDTH 16 0
BBX 11 6 3 -1
BITMAP
1FC0
F060
0060
0060
00C0
0380
ENDCHAR
STARTCHAR K+2A44
ENCODING 10820
SWIDTH 960 0
DWIDTH 16 0
BBX 13 9 2 -1
BITMAP
0FF0
3818
F018
0018
0018
0038
0070
01C0
0300
ENDCHAR
STARTCHAR K+2A45
ENCODING 10821
SWIDTH 960 0
DWIDTH 16 0
BBX 15 10 1 0
BITMAP
0006
000E
07F6
3C18
F018
001C
0018
0038
0070
01C0
ENDCHAR
STARTCHAR K+2A46
ENCODING 10822
SWIDTH 960 0
DWIDTH 16 0
BBX 13 11 2 -1
BITMAP
01F8
FF80
6300
0600
0C00
0C00
0C00
0C00
0600
03C0
00E0
ENDCHAR
STARTCHAR K+2A47
ENCODING 10823
SWIDTH 960 0
DWIDTH 16 0
BBX 14 11 2 -1
BITMAP
01F8
FF80
630C
061C
0C00
0C00
0C00
0C00
0600
03C0
00E0
ENDCHAR
STARTCHAR K+2A48
ENCODING 10824
SWIDTH 960 0
DWIDTH 16 0
BBX 10 12 3 -1
BITMAP
3000
1800
1800
1800
1BC0
1E00
1800
7000
6000
C000
6000
3FC0
ENDCHAR
STARTCHAR K+2A49
ENCODING 10825
SWIDTH 960 0
DWIDTH 16 0
BBX 11 12 4 -1
BITMAP
60C0
31E0
30C0
3000
3780
1C00
3000
6000
C000
C000
C000
7F80
ENDCHAR
STARTCHAR K+2A4A
ENCODING 10826
SWIDTH 960 0
DWIDTH 16 0
BBX 13 13 2 -2
BITMAP
0C00
0E00
0F00
7E00
1838
31F8
3180
6180
C180
0F80
19E0
1B80
0E00
ENDCHAR
STARTCHAR K+2A4B
ENCODING 10827
SWIDTH 960 0
DWIDTH 16 0
BBX 12 10 3 0
BITMAP
6000
63E0
66E0
C000
C000
F000
F000
EC00
E7F0
6000
ENDCHAR
STARTCHAR K+2A4C
ENCODING 10828
SWIDTH 960 0
DWIDTH 16 0
BBX 13 11 2 -1
BITMAP
0600
0600
0780
7FF0
7630
7C18
FC18
1818
38F8
FFF8
C3F8
ENDCHAR
STARTCHAR K+2A4D
ENCODING 10829
SWIDTH 960 0
DWIDTH 16 0
BBX 13 12 2 -2
BITMAP
1800
1800
3000
39E0
FF30
3830
3030
F030
F1F0
F370
F3F8
3000
ENDCHAR
STARTCHAR K+2A4E
ENCODING 10830
SWIDTH 960 0
DWIDTH 16 0
BBX 13 10 2 0
BITMAP
0780
1FE0
3330
6618
C618
CC18
D818
D830
7070
00C0
ENDCHAR
STARTCHAR K+2A4F
ENCODING 10831
SWIDTH 960 0
DWIDTH 16 0
BBX 12 12 3 -1
BITMAP
C180
60C0
C0C0
CCF0
C7C0
00C0
60C0
60C0
C0C0
CFF0
D8F0
CF80
ENDCHAR
STARTCHAR K+2A50
ENCODING 10832
SWIDTH 960 0
DWIDTH 16 0
BBX 13 12 3 -1
BITMAP
C198
60F8
E0C0
CCF0
C7C0
C0C0
60C0
60C0
60C0
CFF0
CCF0
C780
ENDCHAR
STARTCHAR K+2A51
ENCODING 10833
SWIDTH 960 0
DWIDTH 16 0
BBX 14 13 2 -1
BITMAP
001C
60F4
707C
606C
6678
63E0
C060
F060
E060
E060
67F8
6678
63C0
ENDCHAR
STARTCHAR K+2A52
ENCODING 10834
SWIDTH 960 0
DWIDTH 16 0
BBX 13 11 2 -1
BITMAP
18C0
F8C0
30E0
30E0
60F0
60F8
6198
C180
6380
6700
3C00
ENDCHAR
STARTCHAR K+2A53
ENCODING 10835
SWIDTH 960 0
DWIDTH 16 0
BBX 14 11 2 -1
BITMAP
3CFC
F8D8
30E0
30E0
60F0
60D8
C180
C180
6300
3E00
1800
ENDCHAR
STARTCHAR K+2A54
ENCODING 10836
SWIDTH 960 0
DWIDTH 16 0
BBX 14 12 2 -1
BITMAP
001C
3CF4
F8DC
30E0
30E0
60F0
60F8
C180
C180
6300
3E00
1800
ENDCHAR
STARTCHAR K+2A55
ENCODING 10837
SWIDTH 960 0
DWIDTH 16 0
BBX 13 10 2 0
BITMAP
0600
0380
0300
0600
0C00
0600
03E0
1F38
F198
EFB8
ENDCHAR
STARTCHAR K+2A56
ENCODING 10838
SWIDTH 960 0
DWIDTH 16 0
BBX 14 10 2 0
BITMAP
0600
0380
036C
0638
0C00
0600
03E0
1F38
F3B8
EF00
ENDCHAR
STARTCHAR K+2A57
ENCODING 10839
SWIDTH 960 0
DWIDTH 16 0
BBX 14 11 2 0
BITMAP
0600
0300
01FC
036C
066C
0678
0600
03F0
DF98
F1B8
6780
ENDCHAR
STARTCHAR K+2A58
ENCODING 10840
SWIDTH 960 0
DWIDTH 16 0
BBX 15 7 1 1
BITMAP
0600
1F00
3180
E0E0
0070
001C
000E
ENDCHAR
STARTCHAR K+2A59
ENCODING 10841
SWIDTH 960 0
DWIDTH 16 0
BBX 15 9 1 1
BITMAP
001C
0030
0618
1F00
3180
E0E0
0070
001C
000E
ENDCHAR
STARTCHAR K+2A5A
ENCODING 10842
SWIDTH 960 0
DWIDTH 16 0
BBX 15 9 1 1
BITMAP
007C
006C
067C
1F00
3180
E0E0
0070
001C
000E
ENDCHAR
STARTCHAR K+2A5B
ENCODING 10843
SWIDTH 960 0
DWIDTH 16 0
BBX 13 12 3 -1
BITMAP
C000
67E0
C0C0
C0F0
C7E0
00C0
00C0
60C0
60C0
C7F8
CCC0
C780
ENDCHAR
STARTCHAR K+2A5C
ENCODING 10844
SWIDTH 960 0
DWIDTH 16 0
BBX 14 12 2 -1
BITMAP
6000
67EC
60DC
60F0
CFC0
C0C0
C0C0
E0C0
E0C0
E7F8
ECC0
6780
ENDCHAR
STARTCHAR K+2A5D
ENCODING 10845
SWIDTH 960 0
DWIDTH 16 0
BBX 15 12 1 -1
BITMAP
600E
37FA
606E
607E
67E0
C060
C060
F060
E060
63F8
6660
63C0
ENDCHAR
STARTCHAR K+2A5E
ENCODING 10846
SWIDTH 960 0
DWIDTH 16 0
BBX 10 13 3 -2
BITMAP
0600
0600
06C0
7F80
0600
07C0
3E00
0600
0600
7F00
C7C0
6E00
3800
ENDCHAR
STARTCHAR K+2A5F
ENCODING 10847
SWIDTH 960 0
DWIDTH 16 0
BBX 13 10 2 0
BITMAP
0F80
1B00
0600
0660
0C60
3FE0
7870
F0F8
E0C0
E180
ENDCHAR
STARTCHAR K+2A60
ENCODING 10848
SWIDTH 960 0
DWIDTH 16 0
BBX 13 11 2 -1
BITMAP
1800
1F00
FC60
18F8
78D8
D8D8
D8C0
7060
3060
30E0
1FC0
ENDCHAR
STARTCHAR K+2A61
ENCODING 10849
SWIDTH 960 0
DWIDTH 16 0
BBX 13 11 2 -1
BITMAP
0300
6300
67C0
3F70
7638
F618
DC18
1C18
FC38
E060
01C0
ENDCHAR
STARTCHAR K+2A62
ENCODING 10850
SWIDTH 960 0
DWIDTH 16 0
BBX 9 13 4 -2
BITMAP
1800
1800
D800
7000
3800
F000
3300
F980
6180
6180
6180
3F00
0C00
ENDCHAR
STARTCHAR K+2A63
ENCODING 10851
SWIDTH 960 0
DWIDTH 16 0
BBX 11 9 3 -1
BITMAP
0600
3E00
37E0
1C60
F860
0DC0
0600
0600
0300
ENDCHAR
STARTCHAR K+2A64
ENCODING 10852
SWIDTH 960 0
DWIDTH 16 0
BBX 15 12 1 -1
BITMAP
0180
0FC0
18F0
1BFC
0E06
FE0E
737C
0300
0180
01C0
00C0
00C0
ENDCHAR
STARTCHAR K+2A65
ENCODING 10853
SWIDTH 960 0
DWIDTH 16 0
BBX 10 8 3 -1
BITMAP
1E00
FF80
FBC0
F3C0
F3C0
DBC0
0F80
0C00
ENDCHAR
STARTCHAR K+2A66
ENCODING 10854
SWIDTH 960 0
DWIDTH 16 0
BBX 13 12 2 -1
BITMAP
0600
1F00
DBE0
DFB0
D9B0
F998
F998
FDB0
EFF0
67C0
0300
0600
ENDCHAR
STARTCHAR K+2A67
ENCODING 10855
SWIDTH 960 0
DWIDTH 16 0
BBX 9 10 4 -2
BITMAP
1C00
0C00
0F80
0E00
0C00
0C00
0C00
7F00
CD80
7800
ENDCHAR
STARTCHAR K+2A68
ENCODING 10856
SWIDTH 960 0
DWIDTH 16 0
BBX 9 12 4 -1
BITMAP
3800
1800
1800
1F80
1C00
1800
1800
1800
1800
FE00
1B80
F800
ENDCHAR
STARTCHAR K+2A69
ENCODING 10857
SWIDTH 960 0
DWIDTH 16 0
BBX 11 13 3 -2
BITMAP
1800
0C00
0C00
7800
6000
6000
6000
7FC0
F060
E0E0
00C0
0380
0600
ENDCHAR
STARTCHAR K+2A6A
ENCODING 10858
SWIDTH 960 0
DWIDTH 16 0
BBX 7 11 5 0
BITMAP
DC
F6
E6
E6
C6
C6
C6
C6
0E
0C
18
ENDCHAR
STARTCHAR K+2A6B
ENCODING 10859
SWIDTH 960 0
DWIDTH 16 0
BBX 11 12 3 -1
BITMAP
0700
3F00
0600
0600
0C00
1F00
3DC0
7060
E060
1EC0
33C0
1F00
ENDCHAR
STARTCHAR K+2A6C
ENCODING 10860
SWIDTH 960 0
DWIDTH 16 0
BBX 14 12 2 -1
BITMAP
1800
1800
18C0
1BE0
FE60
3860
38C0
30C0
70C0
F0C0
F0DC
3070
ENDCHAR
STARTCHAR K+2A6D
ENCODING 10861
SWIDTH 960 0
DWIDTH 16 0
BBX 11 13 3 -2
BITMAP
0600
3F00
0600
0C00
1800
37C0
7C60
E060
C060
0060
01C0
0700
0C00
ENDCHAR
STARTCHAR K+2A6E
ENCODING 10862
SWIDTH 960 0
DWIDTH 16 0
BBX 10 9 4 -1
BITMAP
1800
1800
3000
7B80
3EC0
30C0
70C0
F180
F300
ENDCHAR
STARTCHAR K+2A6F
ENCODING 10863
SWIDTH 960 0
DWIDTH 16 0
BBX 13 12 2 -1
BITMAP
0C00
0C00
0C00
0C00
7DE0
1F38
1C18
1818
7818
7830
F860
19C0
ENDCHAR
STARTCHAR K+2A70
ENCODING 10864
SWIDTH 960 0
DWIDTH 16 0
BBX 11 12 3 -1
BITMAP
0600
3F00
0600
0C00
0C00
1FE0
7860
F060
3060
6FE0
ECE0
0780
ENDCHAR
STARTCHAR K+2A71
ENCODING 10865
SWIDTH 960 0
DWIDTH 16 0
BBX 13 12 2 -1
BITMAP
0180
1F80
0300
0780
0CE0
1860
1FC0
0F80
0C00
38E0
7FB0
C678
ENDCHAR
STARTCHAR K+2A72
ENCODING 10866
SWIDTH 960 0
DWIDTH 16 0
BBX 11 12 3 -1
BITMAP
0C00
0C00
1F00
7800
30C0
7DE0
CF00
1C00
3C00
6000
6000
3F80
ENDCHAR
STARTCHAR K+2A73
ENCODING 10867
SWIDTH 960 0
DWIDTH 16 0
BBX 12 12 2 -1
BITMAP
0600
0300
0600
0600
0C00
1800
1800
3F00
3300
6330
C3E0
C1C0
ENDCHAR
STARTCHAR K+2B21
ENCODING 11041
SWIDTH 960 0
DWIDTH 16 0
BBX 9 7 4 0
BITMAP
FF80
1B00
0E00
1800
1800
1800
3000
ENDCHAR
STARTCHAR K+2B22
ENCODING 11042
SWIDTH 960 0
DWIDTH 16 0
BBX 13 12 2 -1
BITMAP
C7F0
7C38
06E0
0380
0300
0700
0600
0600
0C00
0C00
1800
3000
ENDCHAR
STARTCHAR K+2B23
ENCODING 11043
SWIDTH 960 0
DWIDTH 16 0
BBX 8 9 4 -1
BITMAP
07
06
0C
1C
7C
CC
0C
0C
0C
ENDCHAR
STARTCHAR K+2B24
ENCODING 11044
SWIDTH 960 0
DWIDTH 16 0
BBX 9 13 4 -1
BITMAP
0300
0180
0380
0700
0E00
0E00
3E00
6600
C600
0600
0600
0600
0600
ENDCHAR
STARTCHAR K+2B25
ENCODING 11045
SWIDTH 960 0
DWIDTH 16 0
BBX 9 8 4 0
BITMAP
1800
1800
FF80
C180
C300
C300
0600
0C00
ENDCHAR
STARTCHAR K+2B26
ENCODING 11046
SWIDTH 960 0
DWIDTH 16 0
BBX 11 11 3 0
BITMAP
0E00
0C00
FFE0
C060
C0E0
E0C0
61C0
0180
0300
0600
0C00
ENDCHAR
STARTCHAR K+2B27
ENCODING 11047
SWIDTH 960 0
DWIDTH 16 0
BBX 11 6 3 -2
BITMAP
3F00
0600
0600
0C00
FFE0
6000
ENDCHAR
STARTCHAR K+2B28
ENCODING 11048
SWIDTH 960 0
DWIDTH 16 0
BBX 13 8 2 1
BITMAP
01E0
3F00
0300
0300
0300
0300
FFF8
7000
ENDCHAR
STARTCHAR K+2B29
ENCODING 11049
SWIDTH 960 0
DWIDTH 16 0
BBX 10 9 3 -1
BITMAP
0600
0600
DFC0
7E00
1E00
3600
6600
0600
0600
ENDCHAR
STARTCHAR K+2B2A
ENCODING 11050
SWIDTH 960 0
DWIDTH 16 0
BBX 12 12 3 -1
BITMAP
0700
0300
0300
FFF0
0700
0F00
1F00
3B00
6300
C300
0F00
0300
ENDCHAR
STARTCHAR K+2B2B
ENCODING 11051
SWIDTH 960 0
DWIDTH 16 0
BBX 11 12 3 -1
BITMAP
0600
0700
0600
07E0
7C60
0C60
18C0
30C0
30C0
6180
C780
0300
ENDCHAR
STARTCHAR K+2B2C
ENCODING 11052
SWIDTH 960 0
DWIDTH 16 0
BBX 13 12 3 -1
BITMAP
0600
0718
0638
07E0
7C60
0CC0
18C0
30C0
60C0
CD80
0780
0300
ENDCHAR
STARTCHAR K+2B2D
ENCODING 11053
SWIDTH 960 0
DWIDTH 16 0
BBX 11 12 3 -1
BITMAP
1C00
0C00
0F80
3C00
6C00
07E0
0F00
FE00
0300
0300
0300
0180
ENDCHAR
STARTCHAR K+2B2E
ENCODING 11054
SWIDTH 960 0
DWIDTH 16 0
BBX 13 12 3 -1
BITMAP
1830
1878
0FF0
1E00
7C00
0CF0
0780
FE00
6600
0300
0300
0380
ENDCHAR
STARTCHAR K+2B2F
ENCODING 11055
SWIDTH 960 0
DWIDTH 16 0
BBX 11 12 3 -1
BITMAP
0600
0EC0
0FE0
18C0
3180
6180
0300
0600
0C00
1800
3000
E000
ENDCHAR
STARTCHAR K+2B30
ENCODING 11056
SWIDTH 960 0
DWIDTH 16 0
BBX 13 12 3 -1
BITMAP
0018
0638
0FF0
0CE0
18C0
3180
E380
0300
0600
0C00
1800
7000
ENDCHAR
STARTCHAR K+2B31
ENCODING 11057
SWIDTH 960 0
DWIDTH 16 0
BBX 12 10 3 0
BITMAP
1800
3800
33F0
7F00
C300
0300
0600
0E00
0C00
1800
ENDCHAR
STARTCHAR K+2B32
ENCODING 11058
SWIDTH 960 0
DWIDTH 16 0
BBX 13 11 3 0
BITMAP
0078
1838
3800
37F0
7F00
C300
0700
0600
0C00
1800
3000
ENDCHAR
STARTCHAR K+2B33
ENCODING 11059
SWIDTH 960 0
DWIDTH 16 0
BBX 9 7 4 2
BITMAP
1F80
F180
0180
0180
0300
0300
FF80
ENDCHAR
STARTCHAR K+2B34
ENCODING 11060
SWIDTH 960 0
DWIDTH 16 0
BBX 13 10 3 1
BITMAP
0038
0068
01F0
7FE0
00C0
00C0
00C0
0180
CF80
7800
ENDCHAR
STARTCHAR K+2B35
ENCODING 11061
SWIDTH 960 0
DWIDTH 16 0
BBX 15 12 1 -1
BITMAP
00E0
0C60
0C60
FFFE
7C60
0C60
0C60
0CC0
00C0
0180
0180
0300
ENDCHAR
STARTCHAR K+2B36
ENCODING 11062
SWIDTH 960 0
DWIDTH 16 0
BBX 14 12 2 -1
BITMAP
01CC
18D8
18D8
3FFC
F8C0
18C0
18C0
1980
0180
0300
0300
0600
ENDCHAR
STARTCHAR K+2B37
ENCODING 11063
SWIDTH 960 0
DWIDTH 16 0
BBX 12 10 3 0
BITMAP
7000
1800
0030
0060
70C0
0180
0700
0E00
F800
7000
ENDCHAR
STARTCHAR K+2B38
ENCODING 11064
SWIDTH 960 0
DWIDTH 16 0
BBX 11 10 3 0
BITMAP
7060
1980
00C0
C060
70C0
0180
0300
0E00
DC00
7000
ENDCHAR
STARTCHAR K+2B39
ENCODING 11065
SWIDTH 960 0
DWIDTH 16 0
BBX 13 10 2 0
BITMAP
00C0
3FE0
18C0
0180
0300
0600
0F80
18E0
3030
E038
ENDCHAR
STARTCHAR K+2B3A
ENCODING 11066
SWIDTH 960 0
DWIDTH 16 0
BBX 14 11 2 0
BITMAP
001C
00FC
3FF8
19C0
0180
0300
0600
0F80
18E0
3030
E038
ENDCHAR
STARTCHAR K+2B3B
ENCODING 11067
SWIDTH 960 0
DWIDTH 16 0
BBX 12 10 3 0
BITMAP
0C00
0C00
0C60
0FF0
3C60
ECC0
0C00
0C00
0C00
07F0
ENDCHAR
STARTCHAR K+2B3C
ENCODING 11068
SWIDTH 960 0
DWIDTH 16 0
BBX 13 10 3 0
BITMAP
0C18
0C38
0C18
1FF0
3C60
F8C0
1800
1800
1800
0FE0
ENDCHAR
STARTCHAR K+2B3D
ENCODING 11069
SWIDTH 960 0
DWIDTH 16 0
BBX 10 10 4 0
BITMAP
0180
C1C0
E180
6300
0300
0600
0C00
1800
3000
6000
ENDCHAR
STARTCHAR K+2B3E
ENCODING 11070
SWIDTH 960 0
DWIDTH 16 0
BBX 12 11 4 0
BITMAP
0030
01F0
C1C0
E180
6300
0300
0600
0C00
1800
3000
6000
ENDCHAR
STARTCHAR K+2B3F
ENCODING 11071
SWIDTH 960 0
DWIDTH 16 0
BBX 10 12 4 -1
BITMAP
1800
0D80
1FC0
3180
6300
FF00
0E00
0C00
1800
3000
6000
C000
ENDCHAR
STARTCHAR K+2B40
ENCODING 11072
SWIDTH 960 0
DWIDTH 16 0
BBX 12 12 4 -1
BITMAP
1830
0DF0
1FC0
3180
7300
DF00
0E00
0C00
1800
3000
6000
C000
ENDCHAR
STARTCHAR K+2B41
ENCODING 11073
SWIDTH 960 0
DWIDTH 16 0
BBX 13 12 2 -1
BITMAP
03C0
0700
3F00
0300
0FF8
FB00
0300
0600
0600
0600
0C00
1800
ENDCHAR
STARTCHAR K+2B42
ENCODING 11074
SWIDTH 960 0
DWIDTH 16 0
BBX 14 12 2 -1
BITMAP
03C0
070C
3F3C
0300
0FF8
FB00
0300
0600
0600
0600
0C00
1800
ENDCHAR
STARTCHAR K+2B43
ENCODING 11075
SWIDTH 960 0
DWIDTH 16 0
BBX 9 7 4 -1
BITMAP
1980
D980
C300
0300
0600
0C00
1800
ENDCHAR
STARTCHAR K+2B44
ENCODING 11076
SWIDTH 960 0
DWIDTH 16 0
BBX 11 10 3 0
BITMAP
18C0
0C60
CCE0
E0C0
0180
0180
0300
0600
0C00
1800
ENDCHAR
STARTCHAR K+2B45
ENCODING 11077
SWIDTH 960 0
DWIDTH 16 0
BBX 13 11 3 0
BITMAP
0018
1838
0C78
CCE0
E0C0
01C0
0180
0300
0600
0C00
1800
ENDCHAR
STARTCHAR K+2B46
ENCODING 11078
SWIDTH 960 0
DWIDTH 16 0
BBX 13 11 2 0
BITMAP
07E0
0C00
0000
CFF8
7B00
0300
0300
0600
0600
0C00
1800
ENDCHAR
STARTCHAR K+2B47
ENCODING 11079
SWIDTH 960 0
DWIDTH 16 0
BBX 14 11 2 0
BITMAP
07EC
0C1C
000C
DFF8
7300
0300
0300
0600
0600
0C00
1800
ENDCHAR
STARTCHAR K+2B48
ENCODING 11080
SWIDTH 960 0
DWIDTH 16 0
BBX 7 13 6 -1
BITMAP
C0
60
60
60
60
70
7C
66
60
60
60
60
60
ENDCHAR
STARTCHAR K+2B49
ENCODING 11081
SWIDTH 960 0
DWIDTH 16 0
BBX 9 13 6 -1
BITMAP
C000
6000
6300
6780
6300
7000
7C00
6600
6000
6000
6000
6000
6000
ENDCHAR
STARTCHAR K+2B4A
ENCODING 11082
SWIDTH 960 0
DWIDTH 16 0
BBX 13 13 2 -2
BITMAP
0700
0300
0300
0300
1FF8
F300
0300
0300
0600
0600
0C00
0C00
1800
ENDCHAR
STARTCHAR K+2B4B
ENCODING 11083
SWIDTH 960 0
DWIDTH 16 0
BBX 13 6 2 2
BITMAP
3FE0
0000
0000
0000
FFF8
6018
ENDCHAR
STARTCHAR K+2B4C
ENCODING 11084
SWIDTH 960 0
DWIDTH 16 0
BBX 10 10 4 0
BITMAP
6F80
39C0
0380
3300
1E00
0E00
1F00
3B80
6000
C000
ENDCHAR
STARTCHAR K+2B4D
ENCODING 11085
SWIDTH 960 0
DWIDTH 16 0
BBX 11 12 3 -1
BITMAP
0E00
0700
0380
7F80
0700
0E00
1F80
76E0
C660
0600
0600
0600
ENDCHAR
STARTCHAR K+2B4E
ENCODING 11086
SWIDTH 960 0
DWIDTH 16 0
BBX 9 10 4 0
BITMAP
0180
0180
0300
0300
0600
0C00
1800
3000
6000
C000
ENDCHAR
STARTCHAR K+2B4F
ENCODING 11087
SWIDTH 960 0
DWIDTH 16 0
BBX 14 6 2 2
BITMAP
1800
1C60
1830
3038
601C
C000
ENDCHAR
STARTCHAR K+2B50
ENCODING 11088
SWIDTH 960 0
DWIDTH 16 0
BBX 15 8 1 2
BITMAP
000E
001E
0C0C
0E70
0C38
181C
300C
E000
ENDCHAR
STARTCHAR K+2B51
ENCODING 11089
SWIDTH 960 0
DWIDTH 16 0
BBX 14 8 2 2
BITMAP
001C
0034
181C
1CE0
1870
3038
6018
C000
ENDCHAR
STARTCHAR K+2B52
ENCODING 11090
SWIDTH 960 0
DWIDTH 16 0
BBX 11 11 3 0
BITMAP
E000
6000
6000
6180
7F80
6000
6000
6000
6000
60C0
3FE0
ENDCHAR
STARTCHAR K+2B53
ENCODING 11091
SWIDTH 960 0
DWIDTH 16 0
BBX 12 11 3 0
BITMAP
E000
6030
6060
61E0
7F80
6000
6000
6000
6000
60C0
3FE0
ENDCHAR
STARTCHAR K+2B54
ENCODING 11092
SWIDTH 960 0
DWIDTH 16 0
BBX 12 11 3 0
BITMAP
E070
60F0
6070
6180
7F80
6000
6000
6000
6000
60C0
3FE0
ENDCHAR
STARTCHAR K+2B55
ENCODING 11093
SWIDTH 960 0
DWIDTH 16 0
BBX 11 10 3 0
BITMAP
01E0
FF60
60C0
00C0
0180
0380
0300
0600
0C00
1800
ENDCHAR
STARTCHAR K+2B56
ENCODING 11094
SWIDTH 960 0
DWIDTH 16 0
BBX 14 11 2 0
BITMAP
001C
C1FC
7F70
6060
00E0
00C0
0180
0380
0300
0600
0C00
ENDCHAR
STARTCHAR K+2B57
ENCODING 11095
SWIDTH 960 0
DWIDTH 16 0
BBX 14 12 2 0
BITMAP
001C
0034
01FC
FF7C
6060
00C0
00C0
0180
0300
0600
0C00
1800
ENDCHAR
STARTCHAR K+2B58
ENCODING 11096
SWIDTH 960 0
DWIDTH 16 0
BBX 15 6 1 2
BITMAP
0F00
1980
F0C0
0070
003C
000E
ENDCHAR
STARTCHAR K+2B59
ENCODING 11097
SWIDTH 960 0
DWIDTH 16 0
BBX 15 8 1 2
BITMAP
001C
003C
0F18
1980
F0C0
0070
003C
000E
ENDCHAR
STARTCHAR K+2B5A
ENCODING 11098
SWIDTH 960 0
DWIDTH 16 0
BBX 15 8 1 2
BITMAP
007C
006C
0F7C
3980
F0C0
0070
003C
000E
ENDCHAR
STARTCHAR K+2B5B
ENCODING 11099
SWIDTH 960 0
DWIDTH 16 0
BBX 12 12 3 -1
BITMAP
0600
0600
0600
FFE0
6600
0600
0600
C6C0
C660
C670
0E00
0600
ENDCHAR
STARTCHAR K+2B5C
ENCODING 11100
SWIDTH 960 0
DWIDTH 16 0
BBX 14 12 2 -1
BITMAP
0300
030C
0338
7FF0
3300
0300
0300
6360
6330
E330
0700
0300
ENDCHAR
STARTCHAR K+2B5D
ENCODING 11101
SWIDTH 960 0
DWIDTH 16 0
BBX 13 13 3 -1
BITMAP
00F8
06D8
06F8
0600
FFE0
6600
0600
0600
C6C0
C660
C670
0E00
0600
ENDCHAR
STARTCHAR K+2B5E
ENCODING 11102
SWIDTH 960 0
DWIDTH 16 0
BBX 13 7 2 2
BITMAP
01F8
1FB8
F070
00E0
0F80
0700
0300
ENDCHAR
STARTCHAR K+2B5F
ENCODING 11103
SWIDTH 960 0
DWIDTH 16 0
BBX 8 11 4 0
BITMAP
60
3C
06
00
60
3C
06
00
C0
7C
0F
ENDCHAR
STARTCHAR K+2B60
ENCODING 11104
SWIDTH 960 0
DWIDTH 16 0
BBX 12 9 3 1
BITMAP
0600
0600
0E00
0C00
0C00
1980
30C0
30E0
FFF0
ENDCHAR
STARTCHAR K+2B61
ENCODING 11105
SWIDTH 960 0
DWIDTH 16 0
BBX 10 10 4 0
BITMAP
0180
01C0
0380
0300
0E00
0F00
1F00
3000
6000
C000
ENDCHAR
STARTCHAR K+2B62
ENCODING 11106
SWIDTH 960 0
DWIDTH 16 0
BBX 12 10 3 0
BITMAP
03C0
3E00
0C00
0C00
0FF0
FE00
0C00
0C00
0C00
07F0
ENDCHAR
STARTCHAR K+2B63
ENCODING 11107
SWIDTH 960 0
DWIDTH 16 0
BBX 11 8 3 -1
BITMAP
1800
18C0
1FE0
FD80
0C00
0C00
0600
0600
ENDCHAR
STARTCHAR K+2B64
ENCODING 11108
SWIDTH 960 0
DWIDTH 16 0
BBX 14 10 1 0
BITMAP
0600
0618
07FC
DF18
7370
0300
0300
0180
0180
01C0
ENDCHAR
STARTCHAR K+2B65
ENCODING 11109
SWIDTH 960 0
DWIDTH 16 0
BBX 11 5 3 -1
BITMAP
3F00
0300
0300
0600
FFE0
ENDCHAR
STARTCHAR K+2B66
ENCODING 11110
SWIDTH 960 0
DWIDTH 16 0
BBX 13 7 2 1
BITMAP
3FC0
01C0
0180
0180
0180
FFF8
E000
ENDCHAR
STARTCHAR K+2B67
ENCODING 11111
SWIDTH 960 0
DWIDTH 16 0
BBX 7 7 5 -1
BITMAP
06
FE
06
FE
06
0C
FE
ENDCHAR
STARTCHAR K+2B68
ENCODING 11112
SWIDTH 960 0
DWIDTH 16 0
BBX 10 8 4 1
BITMAP
FF80
01C0
0180
FF80
0180
0300
0300
FF00
ENDCHAR
STARTCHAR K+2B69
ENCODING 11113
SWIDTH 960 0
DWIDTH 16 0
BBX 11 12 3 -1
BITMAP
6380
3F80
0000
03C0
FEE0
00C0
0180
0300
0700
0E00
1800
3000
ENDCHAR
STARTCHAR K+2B6A
ENCODING 11114
SWIDTH 960 0
DWIDTH 16 0
BBX 7 11 5 0
BITMAP
0E
C6
C6
C6
C6
C6
C6
C6
0C
0C
18
ENDCHAR
STARTCHAR K+2B6B
ENCODING 11115
SWIDTH 960 0
DWIDTH 16 0
BBX 14 10 1 0
BITMAP
0300
19C0
1D80
1980
1980
198C
31B8
31E0
61C0
C000
ENDCHAR
STARTCHAR K+2B6C
ENCODING 11116
SWIDTH 960 0
DWIDTH 16 0
BBX 10 9 4 1
BITMAP
C000
6000
6000
6000
61C0
6300
6E00
7C00
7000
ENDCHAR
STARTCHAR K+2B6D
ENCODING 11117
SWIDTH 960 0
DWIDTH 16 0
BBX 11 8 3 1
BITMAP
FFC0
60E0
60C0
60C0
60C0
6180
7F80
6000
ENDCHAR
STARTCHAR K+2B6E
ENCODING 11118
SWIDTH 960 0
DWIDTH 16 0
BBX 9 7 4 -1
BITMAP
FF80
C180
C300
C300
0600
0C00
1800
ENDCHAR
STARTCHAR K+2B6F
ENCODING 11119
SWIDTH 960 0
DWIDTH 16 0
BBX 11 10 3 0
BITMAP
FFE0
C0E0
C0C0
C0C0
E180
0180
0300
0600
0C00
1800
ENDCHAR
STARTCHAR K+2B70
ENCODING 11120
SWIDTH 960 0
DWIDTH 16 0
BBX 13 13 2 -1
BITMAP
0180
0180
0180
3FF0
0180
0180
1980
1980
FFF8
0180
0180
0180
0180
ENDCHAR
STARTCHAR K+2B71
ENCODING 11121
SWIDTH 960 0
DWIDTH 16 0
BBX 13 8 2 1
BITMAP
3FE0
00C0
0780
0600
0600
0600
DFF8
F018
ENDCHAR
STARTCHAR K+2B72
ENCODING 11122
SWIDTH 960 0
DWIDTH 16 0
BBX 11 12 3 -1
BITMAP
00C0
7FE0
00C0
00C0
FFC0
7180
0300
0300
0600
0C00
1800
7000
ENDCHAR
STARTCHAR K+2B73
ENCODING 11123
SWIDTH 960 0
DWIDTH 16 0
BBX 11 8 4 1
BITMAP
E000
3060
00C0
0180
0700
0C00
3800
F000
ENDCHAR
STARTCHAR K+2B74
ENCODING 11124
SWIDTH 960 0
DWIDTH 16 0
BBX 13 12 3 -1
BITMAP
0E00
0C38
FFF8
E060
C0E0
C0C0
E0C0
0180
0300
0600
0C00
1800
ENDCHAR
STARTCHAR K+2B75
ENCODING 11125
SWIDTH 960 0
DWIDTH 16 0
BBX 8 8 5 -1
BITMAP
18
18
FF
36
66
66
C6
1C
ENDCHAR
STARTCHAR K+2B76
ENCODING 11126
SWIDTH 960 0
DWIDTH 16 0
BBX 8 8 4 -1
BITMAP
30
30
7F
C6
0C
0C
18
30
ENDCHAR
STARTCHAR K+2C21
ENCODING 11297
SWIDTH 960 0
DWIDTH 16 0
BBX 12 11 2 0
BITMAP
0600
0E00
0F00
0F00
1980
1980
30C0
3FC0
6060
6060
F0F0
ENDCHAR
STARTCHAR K+2C22
ENCODING 11298
SWIDTH 960 0
DWIDTH 16 0
BBX 10 11 3 0
BITMAP
7FC0
30C0
30C0
3000
3000
3F80
31C0
30C0
30C0
31C0
FF80
ENDCHAR
STARTCHAR K+2C23
ENCODING 11299
SWIDTH 960 0
DWIDTH 16 0
BBX 10 11 3 0
BITMAP
7F00
3180
30C0
3180
3180
3F00
3180
30C0
30C0
31C0
FF80
ENDCHAR
STARTCHAR K+2C24
ENCODING 11300
SWIDTH 960 0
DWIDTH 16 0
BBX 11 11 3 0
BITMAP
FFE0
3060
3060
3000
3000
3000
3000
3000
3000
3000
F800
ENDCHAR
STARTCHAR K+2C25
ENCODING 11301
SWIDTH 960 0
DWIDTH 16 0
BBX 13 14 2 -3
BITMAP
3FF8
0C60
0C60
0C60
0C60
1860
1860
3060
3060
6060
7FE0
C038
C018
0018
ENDCHAR
STARTCHAR K+2C26
ENCODING 11302
SWIDTH 960 0
DWIDTH 16 0
BBX 11 12 3 -1
BITMAP
FFC0
30C0
3000
3000
3000
3F80
3000
3000
3000
3060
71C0
1F00
ENDCHAR
STARTCHAR K+2C27
ENCODING 11303
SWIDTH 960 0
DWIDTH 16 0
BBX 11 12 3 0
BITMAP
3B80
0180
FFC0
30C0
3000
3000
3F80
3180
3000
3000
3060
FFC0
ENDCHAR
STARTCHAR K+2C28
ENCODING 11304
SWIDTH 960 0
DWIDTH 16 0
BBX 17 13 0 0
BITMAP
000080
600600
F7EF80
199880
19B080
19B000
0DB000
07E000
0FF000
1DB800
199800
318C00
77EE00
ENDCHAR
STARTCHAR K+2C29
ENCODING 11305
SWIDTH 960 0
DWIDTH 16 0
BBX 9 12 4 -1
BITMAP
7E00
6300
0300
0300
0700
1C00
0700
0300
0380
C300
6700
3C00
ENDCHAR
STARTCHAR K+2C2A
ENCODING 11306
SWIDTH 960 0
DWIDTH 16 0
BBX 13 11 2 0
BITMAP
FDF8
3060
31E0
31E0
3360
3660
3C60
3C60
3860
3060
FDF8
ENDCHAR
STARTCHAR K+2C2B
ENCODING 11307
SWIDTH 960 0
DWIDTH 16 0
BBX 11 12 3 0
BITMAP
3B80
0F00
F1E0
60C0
61C0
63C0
66C0
6CC0
78C0
70C0
60C0
F1E0
ENDCHAR
STARTCHAR K+2C2C
ENCODING 11308
SWIDTH 960 0
DWIDTH 16 0
BBX 12 12 2 -1
BITMAP
FCF0
31B0
3180
3300
3300
3E00
3700
3380
3180
30C0
FC60
0030
ENDCHAR
STARTCHAR K+2C2D
ENCODING 11309
SWIDTH 960 0
DWIDTH 16 0
BBX 13 11 2 0
BITMAP
3FF8
0C60
0C60
0C60
0C60
0C60
0C60
0C60
1860
D860
F0F0
ENDCHAR
STARTCHAR K+2C2E
ENCODING 11310
SWIDTH 960 0
DWIDTH 16 0
BBX 15 11 1 0
BITMAP
601C
7038
7078
7878
78D8
6CD8
6CD8
6798
6798
6318
F07E
ENDCHAR
STARTCHAR K+2C2F
ENCODING 11311
SWIDTH 960 0
DWIDTH 16 0
BBX 13 12 2 -1
BITMAP
FDF8
3060
3060
3060
3060
3FE0
3060
3060
3060
3060
FC78
00C0
ENDCHAR
STARTCHAR K+2C30
ENCODING 11312
SWIDTH 960 0
DWIDTH 16 0
BBX 11 11 3 0
BITMAP
1F00
71C0
60C0
C060
C060
C060
C060
C060
60C0
71C0
1F00
ENDCHAR
STARTCHAR K+2C31
ENCODING 11313
SWIDTH 960 0
DWIDTH 16 0
BBX 13 11 2 0
BITMAP
FFF0
3060
3060
3060
3060
3060
3060
3060
3060
3060
7CF8
ENDCHAR
STARTCHAR K+2C32
ENCODING 11314
SWIDTH 960 0
DWIDTH 16 0
BBX 10 11 4 0
BITMAP
7F00
61C0
60C0
60C0
61C0
7F00
6000
6000
6000
6000
F800
ENDCHAR
STARTCHAR K+2C33
ENCODING 11315
SWIDTH 960 0
DWIDTH 16 0
BBX 11 12 3 -1
BITMAP
1FE0
30E0
6060
C000
C000
C000
C000
C000
6000
7060
1DC0
0700
ENDCHAR
STARTCHAR K+2C34
ENCODING 11316
SWIDTH 960 0
DWIDTH 16 0
BBX 11 12 3 -1
BITMAP
FFE0
0C60
0C60
0C00
0C00
0C00
0C00
0C00
0C00
0C00
1C00
0600
ENDCHAR
STARTCHAR K+2C35
ENCODING 11317
SWIDTH 960 0
DWIDTH 16 0
BBX 13 11 2 0
BITMAP
FC78
3030
1860
1860
0CC0
0D80
0780
0700
0300
3600
3E00
ENDCHAR
STARTCHAR K+2C36
ENCODING 11318
SWIDTH 960 0
DWIDTH 16 0
BBX 12 12 2 -1
BITMAP
0FC0
0300
1F80
73E0
C330
C330
C330
E330
7360
1FC0
0F00
0180
ENDCHAR
STARTCHAR K+2C37
ENCODING 11319
SWIDTH 960 0
DWIDTH 16 0
BBX 13 11 2 0
BITMAP
7CF8
1860
18C0
0D80
0700
0600
0F00
1980
30C0
3060
E0F0
ENDCHAR
STARTCHAR K+2C38
ENCODING 11320
SWIDTH 960 0
DWIDTH 16 0
BBX 13 14 2 -3
BITMAP
7DF8
3060
3060
3060
3060
3060
3060
3060
3060
3060
FFE0
0038
0018
0018
ENDCHAR
STARTCHAR K+2C39
ENCODING 11321
SWIDTH 960 0
DWIDTH 16 0
BBX 12 11 3 0
BITMAP
FBF0
60C0
60C0
60C0
60C0
60C0
61C0
3FC0
00C0
00C0
01F0
ENDCHAR
STARTCHAR K+2C3A
ENCODING 11322
SWIDTH 960 0
DWIDTH 16 0
BBX 15 12 1 -1
BITMAP
FF9E
630C
630C
630C
630C
630C
630C
630C
630C
630C
E30C
3FF8
ENDCHAR
STARTCHAR K+2C3B
ENCODING 11323
SWIDTH 960 0
DWIDTH 16 0
BBX 15 13 1 -2
BITMAP
FFBE
630C
630C
630C
630C
630C
630C
630C
630C
630C
FFFC
0006
0002
ENDCHAR
STARTCHAR K+2C3C
ENCODING 11324
SWIDTH 960 0
DWIDTH 16 0
BBX 12 11 3 0
BITMAP
FE00
CC00
0C00
0C00
0C00
0FE0
0C70
0C30
0C30
0C70
3FE0
ENDCHAR
STARTCHAR K+2C3D
ENCODING 11325
SWIDTH 960 0
DWIDTH 16 0
BBX 15 11 1 0
BITMAP
F83E
300C
300C
300C
300C
3F8C
31CC
30CC
30CC
31CC
FFBC
ENDCHAR
STARTCHAR K+2C3E
ENCODING 11326
SWIDTH 960 0
DWIDTH 16 0
BBX 10 12 3 -1
BITMAP
FC00
3000
3000
3000
3000
3F00
31C0
30C0
30C0
30C0
7380
1E00
ENDCHAR
STARTCHAR K+2C3F
ENCODING 11327
SWIDTH 960 0
DWIDTH 16 0
BBX 11 12 3 -1
BITMAP
FF80
E0C0
C0C0
0060
0060
0FE0
0060
0060
00E0
C0C0
6380
3E00
ENDCHAR
STARTCHAR K+2C40
ENCODING 11328
SWIDTH 960 0
DWIDTH 16 0
BBX 15 12 1 -1
BITMAP
F9F0
639C
630C
6606
6606
7E06
6606
6606
6606
630C
FB9C
00F0
ENDCHAR
STARTCHAR K+2C41
ENCODING 11329
SWIDTH 960 0
DWIDTH 16 0
BBX 12 12 3 -1
BITMAP
1FF0
38C0
30C0
30C0
18C0
0FC0
0CC0
1CC0
18C0
30C0
E1C0
0060
ENDCHAR
STARTCHAR K+2C51
ENCODING 11345
SWIDTH 960 0
DWIDTH 16 0
BBX 7 7 4 0
BITMAP
7E
66
0E
3E
66
C6
7E
ENDCHAR
STARTCHAR K+2C52
ENCODING 11346
SWIDTH 960 0
DWIDTH 16 0
BBX 9 11 4 0
BITMAP
0180
3F00
6000
7C00
F600
C300
C180
C180
C180
6300
3E00
ENDCHAR
STARTCHAR K+2C53
ENCODING 11347
SWIDTH 960 0
DWIDTH 16 0
BBX 7 7 5 0
BITMAP
FC
66
66
7C
66
66
7E
ENDCHAR
STARTCHAR K+2C54
ENCODING 11348
SWIDTH 960 0
DWIDTH 16 0
BBX 7 7 5 0
BITMAP
7E
66
60
60
60
60
E0
ENDCHAR
STARTCHAR K+2C55
ENCODING 11349
SWIDTH 960 0
DWIDTH 16 0
BBX 11 9 3 -2
BITMAP
3FC0
1980
1980
3180
3180
6180
7F80
C0C0
C060
ENDCHAR
STARTCHAR K+2C56
ENCODING 11350
SWIDTH 960 0
DWIDTH 16 0
BBX 7 8 5 -1
BITMAP
F8
CE
FE
C0
C0
C0
6C
38
ENDCHAR
STARTCHAR K+2C57
ENCODING 11351
SWIDTH 960 0
DWIDTH 16 0
BBX 7 11 5 -1
BITMAP
6C
6C
00
7C
C6
FE
C0
C0
C0
6C
38
ENDCHAR
STARTCHAR K+2C58
ENCODING 11352
SWIDTH 960 0
DWIDTH 16 0
BBX 12 8 2 -1
BITMAP
FE70
37C0
1F80
1F80
36C0
66C0
6660
0030
ENDCHAR
STARTCHAR K+2C59
ENCODING 11353
SWIDTH 960 0
DWIDTH 16 0
BBX 7 8 5 -1
BITMAP
FC
CC
0C
1C
06
06
CC
78
ENDCHAR
STARTCHAR K+2C5A
ENCODING 11354
SWIDTH 960 0
DWIDTH 16 0
BBX 9 8 4 -1
BITMAP
F700
6300
6300
7F00
7300
6300
E300
0180
ENDCHAR
STARTCHAR K+2C5B
ENCODING 11355
SWIDTH 960 0
DWIDTH 16 0
BBX 9 11 4 -1
BITMAP
7700
7600
1C00
F700
6300
6300
7F00
7300
6300
E300
0180
ENDCHAR
STARTCHAR K+2C5C
ENCODING 11356
SWIDTH 960 0
DWIDTH 16 0
BBX 7 7 6 0
BITMAP
EE
F8
F0
F0
D8
D8
CC
ENDCHAR
STARTCHAR K+2C5D
ENCODING 11357
SWIDTH 960 0
DWIDTH 16 0
BBX 9 8 4 -1
BITMAP
7F00
3300
3300
3300
3300
3300
E780
C000
ENDCHAR
STARTCHAR K+2C5E
ENCODING 11358
SWIDTH 960 0
DWIDTH 16 0
BBX 12 7 2 0
BITMAP
6070
70E0
79E0
79E0
6F60
6E60
E6F0
ENDCHAR
STARTCHAR K+2C5F
ENCODING 11359
SWIDTH 960 0
DWIDTH 16 0
BBX 9 8 4 -1
BITMAP
F300
6300
6300
7F00
6300
6300
E300
0180
ENDCHAR
STARTCHAR K+2C60
ENCODING 11360
SWIDTH 960 0
DWIDTH 16 0
BBX 9 8 4 0
BITMAP
3E00
6300
C180
C180
C180
C180
6300
3E00
ENDCHAR
STARTCHAR K+2C61
ENCODING 11361
SWIDTH 960 0
DWIDTH 16 0
BBX 9 8 4 -1
BITMAP
FF00
6300
6300
6300
6300
6300
E300
0180
ENDCHAR
STARTCHAR K+2C62
ENCODING 11362
SWIDTH 960 0
DWIDTH 16 0
BBX 9 11 4 -3
BITMAP
6E00
7F00
6180
6180
6180
6180
6300
7600
7C00
6000
F000
ENDCHAR
STARTCHAR K+2C63
ENCODING 11363
SWIDTH 960 0
DWIDTH 16 0
BBX 7 8 5 0
BITMAP
3C
66
C6
C0
C0
C0
C6
7C
ENDCHAR
STARTCHAR K+2C64
ENCODING 11364
SWIDTH 960 0
DWIDTH 16 0
BBX 8 7 4 0
BITMAP
FF
1B
18
18
18
18
3C
ENDCHAR
STARTCHAR K+2C65
ENCODING 11365
SWIDTH 960 0
DWIDTH 16 0
BBX 9 10 4 -3
BITMAP
F380
6300
3300
3600
1E00
1C00
0C00
1800
1800
F000
ENDCHAR
STARTCHAR K+2C66
ENCODING 11366
SWIDTH 960 0
DWIDTH 16 0
BBX 11 14 3 -3
BITMAP
0E00
0600
0600
0600
7FC0
6660
C660
C660
C660
6660
6EC0
3F80
0600
0600
ENDCHAR
STARTCHAR K+2C67
ENCODING 11367
SWIDTH 960 0
DWIDTH 16 0
BBX 7 7 5 0
BITMAP
E6
7C
38
38
78
CC
CE
ENDCHAR
STARTCHAR K+2C68
ENCODING 11368
SWIDTH 960 0
DWIDTH 16 0
BBX 10 9 4 -2
BITMAP
F780
6300
6300
6300
6300
6300
E300
3FC0
00C0
ENDCHAR
STARTCHAR K+2C69
ENCODING 11369
SWIDTH 960 0
DWIDTH 16 0
BBX 8 8 4 -1
BITMAP
FE
66
66
6E
3E
06
06
03
ENDCHAR
STARTCHAR K+2C6A
ENCODING 11370
SWIDTH 960 0
DWIDTH 16 0
BBX 13 8 2 -1
BITMAP
F7F8
6330
6330
6330
6330
6330
6330
3FE0
ENDCHAR
STARTCHAR K+2C6B
ENCODING 11371
SWIDTH 960 0
DWIDTH 16 0
BBX 14 9 2 -2
BITMAP
FFFC
6630
6630
6630
6630
6630
7FF0
001C
000C
ENDCHAR
STARTCHAR K+2C6C
ENCODING 11372
SWIDTH 960 0
DWIDTH 16 0
BBX 9 7 4 0
BITMAP
7E00
D800
1800
1F00
1980
1980
1F00
ENDCHAR
STARTCHAR K+2C6D
ENCODING 11373
SWIDTH 960 0
DWIDTH 16 0
BBX 11 8 3 -1
BITMAP
F1E0
60C0
60C0
7CC0
66C0
66C0
EDC0
3860
ENDCHAR
STARTCHAR K+2C6E
ENCODING 11374
SWIDTH 960 0
DWIDTH 16 0
BBX 7 8 5 -1
BITMAP
F0
60
60
7C
66
66
EC
38
ENDCHAR
STARTCHAR K+2C6F
ENCODING 11375
SWIDTH 960 0
DWIDTH 16 0
BBX 7 8 5 0
BITMAP
FC
CC
06
3E
06
06
CC
78
ENDCHAR
STARTCHAR K+2C70
ENCODING 11376
SWIDTH 960 0
DWIDTH 16 0
BBX 13 8 2 -1
BITMAP
F3E0
6630
6C18
7C18
6C18
6C30
6630
03E0
ENDCHAR
STARTCHAR K+2C71
ENCODING 11377
SWIDTH 960 0
DWIDTH 16 0
BBX 6 7 5 0
BITMAP
FC
CC
CC
7C
6C
6C
CC
ENDCHAR
STARTCHAR K+3021
ENCODING 12321
SWIDTH 960 0
DWIDTH 16 0
BBX 14 14 2 -2
BITMAP
01C0
0070
0060
FF60
0660
0660
0C7C
0C70
1860
3060
6060
C060
0060
0060
ENDCHAR
STARTCHAR K+3022
ENCODING 12322
SWIDTH 960 0
DWIDTH 16 0
BBX 14 15 2 -3
BITMAP
00C0
0060
FF60
0660
0C60
1C7C
1860
7060
C060
3FE0
0060
0060
0060
0060
0060
ENDCHAR
STARTCHAR K+3023
ENCODING 12323
SWIDTH 960 0
DWIDTH 16 0
BBX 14 14 2 -2
BITMAP
00C0
0060
CF60
7E60
0C60
0C60
187C
3060
6060
C060
1C00
0C00
0C00
0FF8
ENDCHAR
STARTCHAR K+3024
ENCODING 12324
SWIDTH 960 0
DWIDTH 16 0
BBX 14 14 2 -2
BITMAP
00E0
0060
FE60
0E60
0C60
187C
3060
6060
C060
3FE0
1800
1800
1800
1FF0
ENDCHAR
STARTCHAR K+3025
ENCODING 12325
SWIDTH 960 0
DWIDTH 16 0
BBX 14 14 2 -2
BITMAP
00E0
0060
FF60
0660
0C60
0C7C
1860
3060
FFE0
0060
0060
1FE0
1800
1FF0
ENDCHAR
STARTCHAR K+3026
ENCODING 12326
SWIDTH 960 0
DWIDTH 16 0
BBX 14 14 2 -2
BITMAP
01C0
0060
FF60
0660
0C7C
0C70
1860
3000
7FF0
C630
7E30
3030
3730
1C30
ENDCHAR
STARTCHAR K+3027
ENCODING 12327
SWIDTH 960 0
DWIDTH 16 0
BBX 14 14 2 -2
BITMAP
01C0
0060
FF60
0660
0C60
0C7C
1860
7060
FFF0
07B0
77B0
3DB0
33F0
3F80
ENDCHAR
STARTCHAR K+3028
ENCODING 12328
SWIDTH 960 0
DWIDTH 16 0
BBX 13 15 2 -3
BITMAP
01C0
00E0
FF60
0660
0C60
0C60
1878
3060
E060
1FE0
0C60
0C60
0CC0
0FE0
0C00
ENDCHAR
STARTCHAR K+3029
ENCODING 12329
SWIDTH 960 0
DWIDTH 16 0
BBX 14 15 2 -3
BITMAP
01C0
00E0
FF60
0660
0C60
0C6C
1878
3060
E0E0
0C60
0FE0
0C60
0C60
0FE0
0C60
ENDCHAR
STARTCHAR K+302A
ENCODING 12330
SWIDTH 960 0
DWIDTH 16 0
BBX 14 15 2 -3
BITMAP
01C0
00E0
FF60
0660
0C60
0C6C
1878
3060
EEE0
3660
3E60
36F0
37B8
3F18
3600
ENDCHAR
STARTCHAR K+302B
ENCODING 12331
SWIDTH 960 0
DWIDTH 16 0
BBX 14 14 2 -2
BITMAP
00E0
0060
FF60
0660
0C60
0C7C
1860
3060
E360
0180
0380
06E0
0C30
3818
ENDCHAR
STARTCHAR K+302C
ENCODING 12332
SWIDTH 960 0
DWIDTH 16 0
BBX 14 14 2 -2
BITMAP
01C0
00E0
FF60
0660
0C60
0C60
187C
3060
F8E0
0C60
1CC0
1EE0
31B0
6318
ENDCHAR
STARTCHAR K+302D
ENCODING 12333
SWIDTH 960 0
DWIDTH 16 0
BBX 14 14 2 -2
BITMAP
00E0
0060
FF60
0660
0C60
0C7C
1860
3060
E1E0
07C0
0C60
0C60
0EE0
07C0
ENDCHAR
STARTCHAR K+302E
ENCODING 12334
SWIDTH 960 0
DWIDTH 16 0
BBX 14 14 2 -2
BITMAP
01C0
00E0
FF60
0660
0C60
0C60
187C
3060
E060
3FE0
0300
0780
0CE0
3830
ENDCHAR
STARTCHAR K+302F
ENCODING 12335
SWIDTH 960 0
DWIDTH 16 0
BBX 14 15 2 -3
BITMAP
00E0
0060
FF60
0660
0E60
0C7C
1860
77E0
C000
3FF8
0380
07C0
0C70
1818
3000
ENDCHAR
STARTCHAR K+3030
ENCODING 12336
SWIDTH 960 0
DWIDTH 16 0
BBX 14 14 2 -2
BITMAP
01C0
00E0
FF60
0660
0C60
0C60
187C
3060
E060
0FF0
0C00
0FE0
0C00
0FF0
ENDCHAR
STARTCHAR K+3031
ENCODING 12337
SWIDTH 960 0
DWIDTH 16 0
BBX 14 15 2 -3
BITMAP
01C0
00E0
FF60
0660
0C60
0C60
187C
3060
E060
3FF0
00C0
0CC0
0780
3FF0
1800
ENDCHAR
STARTCHAR K+3032
ENCODING 12338
SWIDTH 960 0
DWIDTH 16 0
BBX 14 14 2 -2
BITMAP
01C0
0060
7F60
0360
0660
0C7C
1860
3060
E7E0
3F30
03C0
06C0
06C0
03C0
ENDCHAR
STARTCHAR K+3033
ENCODING 12339
SWIDTH 960 0
DWIDTH 16 0
BBX 12 15 2 -3
BITMAP
00E0
03B0
01B0
0DB0
7DB0
19B0
19B0
19F0
31B0
61B0
C1B0
01B0
01B0
01B0
0030
ENDCHAR
STARTCHAR K+3034
ENCODING 12340
SWIDTH 960 0
DWIDTH 16 0
BBX 11 14 3 -2
BITMAP
00E0
0360
0360
FB60
1B60
33E0
3360
6360
C360
7FE0
0060
0060
0060
0060
ENDCHAR
STARTCHAR K+3035
ENCODING 12341
SWIDTH 960 0
DWIDTH 16 0
BBX 13 14 2 -2
BITMAP
0070
01B0
01B0
FFB0
0DB0
0DB0
19F0
31B0
61B0
C1B0
1C30
0C00
0C00
0FF8
ENDCHAR
STARTCHAR K+3036
ENCODING 12342
SWIDTH 960 0
DWIDTH 16 0
BBX 12 14 3 -2
BITMAP
06E0
0360
0360
FB60
1B60
33E0
3360
6360
C000
3FE0
0060
1FE0
1800
1FF0
ENDCHAR
STARTCHAR K+3037
ENCODING 12343
SWIDTH 960 0
DWIDTH 16 0
BBX 11 15 3 -3
BITMAP
06E0
0360
0360
FB60
1B60
33E0
3360
6360
C360
3FE0
18C0
18C0
18C0
1FC0
1800
ENDCHAR
STARTCHAR K+3038
ENCODING 12344
SWIDTH 960 0
DWIDTH 16 0
BBX 11 15 3 -3
BITMAP
06E0
0360
0360
FB60
1B60
33E0
3360
6360
C0E0
0C60
0FE0
0C60
0C60
0FE0
0C60
ENDCHAR
STARTCHAR K+3039
ENCODING 12345
SWIDTH 960 0
DWIDTH 16 0
BBX 13 14 2 -2
BITMAP
0070
03B0
01B0
7FB0
0DB0
19B0
19F0
31B0
E3B0
01B0
0380
07E0
0C30
1818
ENDCHAR
STARTCHAR K+303A
ENCODING 12346
SWIDTH 960 0
DWIDTH 16 0
BBX 13 14 2 -2
BITMAP
0070
01B0
FFB0
0DB0
0DB0
19F0
31B0
61B0
CDE0
0660
0EE0
1BF0
3198
6318
ENDCHAR
STARTCHAR K+303B
ENCODING 12347
SWIDTH 960 0
DWIDTH 16 0
BBX 11 14 3 -2
BITMAP
00E0
0660
0360
FF60
1B60
3360
33E0
6360
C360
07E0
0C60
0C60
0E60
07C0
ENDCHAR
STARTCHAR K+303C
ENCODING 12348
SWIDTH 960 0
DWIDTH 16 0
BBX 14 14 2 -2
BITMAP
00E0
0070
0060
FF60
0660
0678
0C60
0C60
1860
307C
6060
C060
0060
0060
ENDCHAR
STARTCHAR K+303D
ENCODING 12349
SWIDTH 960 0
DWIDTH 16 0
BBX 14 15 2 -3
BITMAP
00E0
0060
FF60
067C
0C70
0C60
186C
3078
6000
FFE0
0060
0060
0060
0060
0060
ENDCHAR
STARTCHAR K+303E
ENCODING 12350
SWIDTH 960 0
DWIDTH 16 0
BBX 14 14 2 -2
BITMAP
00E0
0060
FF60
0760
0678
0C60
1860
307C
6070
C060
1C60
0C00
0C00
0FF8
ENDCHAR
STARTCHAR K+303F
ENCODING 12351
SWIDTH 960 0
DWIDTH 16 0
BBX 14 14 2 -2
BITMAP
01C0
00E0
FF60
0660
0E7C
0C60
1860
307C
E070
1FE0
0060
0FE0
0C00
0FF8
ENDCHAR
STARTCHAR K+3040
ENCODING 12352
SWIDTH 960 0
DWIDTH 16 0
BBX 14 14 2 -2
BITMAP
00E0
0060
FF60
067C
0C60
0C60
187C
3060
63E0
C360
03C0
0660
0C30
3818
ENDCHAR
STARTCHAR K+3041
ENCODING 12353
SWIDTH 960 0
DWIDTH 16 0
BBX 15 14 1 -2
BITMAP
0070
0030
7FB0
0330
063C
0630
0C30
183E
70F0
C3E0
0630
0630
0770
03E0
ENDCHAR
STARTCHAR K+3042
ENCODING 12354
SWIDTH 960 0
DWIDTH 16 0
BBX 12 15 2 -3
BITMAP
0070
03B0
01B0
FFB0
0DB0
0DF0
19B0
19B0
31B0
61F0
C1B0
01B0
01B0
01B0
0030
ENDCHAR
STARTCHAR K+3043
ENCODING 12355
SWIDTH 960 0
DWIDTH 16 0
BBX 15 13 1 -1
BITMAP
0038
00D8
00D8
7ED8
06F8
0CD8
18D8
18F8
70D8
CED8
06D8
0600
03FE
ENDCHAR
STARTCHAR K+3044
ENCODING 12356
SWIDTH 960 0
DWIDTH 16 0
BBX 13 14 2 -2
BITMAP
00E0
03B0
01B0
7DB0
0DF0
19B0
31F0
61B0
DFF0
0030
1FF0
0C00
0C00
0FF8
ENDCHAR
STARTCHAR K+3045
ENCODING 12357
SWIDTH 960 0
DWIDTH 16 0
BBX 12 14 2 -2
BITMAP
00F0
0030
0030
FF30
0730
0630
0FF0
0C30
1830
3030
6030
C030
0030
0030
ENDCHAR
STARTCHAR K+3046
ENCODING 12358
SWIDTH 960 0
DWIDTH 16 0
BBX 13 15 1 -3
BITMAP
0038
0018
7F98
0318
0618
06F8
0C18
1818
3000
FFF8
0018
0018
0018
0018
0018
ENDCHAR
STARTCHAR K+3047
ENCODING 12359
SWIDTH 960 0
DWIDTH 16 0
BBX 13 14 2 -2
BITMAP
0070
0030
0030
7F30
0630
0FF0
1C30
1830
7030
C030
1C30
0C00
0C00
0FF8
ENDCHAR
STARTCHAR K+3048
ENCODING 12360
SWIDTH 960 0
DWIDTH 16 0
BBX 13 14 2 -2
BITMAP
0070
0030
FF30
0730
0630
0DF0
1830
3030
6030
C030
0FF0
0C00
0C00
0FF8
ENDCHAR
STARTCHAR K+3049
ENCODING 12361
SWIDTH 960 0
DWIDTH 16 0
BBX 13 14 2 -2
BITMAP
0070
0030
FF30
0630
07F0
0C30
1830
3030
6030
DFF0
0030
1FF0
0C00
0FF8
ENDCHAR
STARTCHAR K+304A
ENCODING 12362
SWIDTH 960 0
DWIDTH 16 0
BBX 13 14 1 -2
BITMAP
0038
0018
3F98
0398
03F8
0618
0C18
1818
3018
FFF8
03D8
1EF0
1EF8
00C0
ENDCHAR
STARTCHAR K+304B
ENCODING 12363
SWIDTH 960 0
DWIDTH 16 0
BBX 12 15 2 -3
BITMAP
0070
0030
FF30
0630
0630
0DF0
1830
3030
6030
DFF0
0C60
0C60
0C60
0FF0
0C00
ENDCHAR
STARTCHAR K+304C
ENCODING 12364
SWIDTH 960 0
DWIDTH 16 0
BBX 12 15 2 -3
BITMAP
0070
0030
FF30
0630
0630
0DF0
1830
3030
7830
CC30
0FF0
0C30
0C30
0FF0
0C30
ENDCHAR
STARTCHAR K+304D
ENCODING 12365
SWIDTH 960 0
DWIDTH 16 0
BBX 13 14 2 -2
BITMAP
0070
0030
FF30
0630
0630
0DF0
1830
3030
6330
C180
0380
06E0
0C30
3818
ENDCHAR
STARTCHAR K+304E
ENCODING 12366
SWIDTH 960 0
DWIDTH 16 0
BBX 13 14 2 -2
BITMAP
0070
FF30
0630
0C30
0FF0
1830
3030
6030
CC60
0C60
0EE0
1BF0
3198
6000
ENDCHAR
STARTCHAR K+304F
ENCODING 12367
SWIDTH 960 0
DWIDTH 16 0
BBX 12 14 2 -2
BITMAP
0070
0030
FF30
0630
0630
0DF0
1830
3030
60F0
C3E0
0630
0630
0770
03E0
ENDCHAR
STARTCHAR K+3050
ENCODING 12368
SWIDTH 960 0
DWIDTH 16 0
BBX 14 15 1 -3
BITMAP
0038
0018
7F98
0318
0618
06F8
0C18
1818
7018
DFF8
00C0
01C0
0370
061C
1C00
ENDCHAR
STARTCHAR K+3051
ENCODING 12369
SWIDTH 960 0
DWIDTH 16 0
BBX 13 14 2 -2
BITMAP
0070
0030
FF30
0630
0C30
0DF0
1830
7030
C000
0FF0
0C00
0FF0
0C00
07F8
ENDCHAR
STARTCHAR K+3052
ENCODING 12370
SWIDTH 960 0
DWIDTH 16 0
BBX 13 14 2 -2
BITMAP
0070
0030
FF30
0630
0630
0DF0
1830
3030
6030
FFF0
0C60
06C0
06C0
3FF8
ENDCHAR
STARTCHAR K+3053
ENCODING 12371
SWIDTH 960 0
DWIDTH 16 0
BBX 12 14 2 -2
BITMAP
0070
0030
7F30
0630
0FF0
0C30
1830
7030
C3F0
1FE0
01C0
0760
0660
03C0
ENDCHAR
STARTCHAR K+3054
ENCODING 12372
SWIDTH 960 0
DWIDTH 16 0
BBX 12 15 2 -3
BITMAP
00E0
03F0
01B0
FDB0
0DB0
19B0
1FB0
31B0
31B0
61B0
C1B0
01B0
01B0
01B0
0030
ENDCHAR
STARTCHAR K+3055
ENCODING 12373
SWIDTH 960 0
DWIDTH 16 0
BBX 14 14 1 -2
BITMAP
0038
00D8
00D8
7ED8
0CD8
0FD8
18D8
30D8
60D8
C0D8
0E18
0600
0600
07FC
ENDCHAR
STARTCHAR K+3056
ENCODING 12374
SWIDTH 960 0
DWIDTH 16 0
BBX 13 14 2 -2
BITMAP
0070
03B0
01B0
7DB0
1DB0
1FB0
31B0
61B0
C180
1FF0
0030
1FF0
0C00
0FF8
ENDCHAR
STARTCHAR K+3057
ENCODING 12375
SWIDTH 960 0
DWIDTH 16 0
BBX 12 15 2 -3
BITMAP
0070
0330
01B0
FDB0
0DB0
1FB0
31B0
31B0
6180
1FE0
0C60
0C60
0C60
0FE0
0C00
ENDCHAR
STARTCHAR K+3058
ENCODING 12376
SWIDTH 960 0
DWIDTH 16 0
BBX 12 15 2 -3
BITMAP
0370
01B0
FDB0
0DB0
1DB0
1FB0
31B0
61B0
C070
0630
07F0
0630
0630
07F0
0630
ENDCHAR
STARTCHAR K+3059
ENCODING 12377
SWIDTH 960 0
DWIDTH 16 0
BBX 13 14 2 -2
BITMAP
0070
03B0
01B0
7DB0
1DB0
1FB0
31B0
61B0
C3B0
0180
0180
03E0
0E38
1818
ENDCHAR
STARTCHAR K+305A
ENCODING 12378
SWIDTH 960 0
DWIDTH 16 0
BBX 14 14 2 -2
BITMAP
0070
03B0
01B0
7DB0
0DB0
1FB0
31B0
61B0
C180
0E70
0E60
0EF0
1BD8
338C
ENDCHAR
STARTCHAR K+305B
ENCODING 12379
SWIDTH 960 0
DWIDTH 16 0
BBX 12 14 2 -2
BITMAP
0370
01B0
FDB0
0DB0
19B0
1FB0
31B0
61B0
C000
03E0
0630
0630
0730
03E0
ENDCHAR
STARTCHAR K+305C
ENCODING 12380
SWIDTH 960 0
DWIDTH 16 0
BBX 12 14 2 -2
BITMAP
0070
0030
0330
7F30
07F0
0E30
0C30
1BF0
3030
6030
C030
0030
0030
0030
ENDCHAR
STARTCHAR K+305D
ENCODING 12381
SWIDTH 960 0
DWIDTH 16 0
BBX 12 15 2 -3
BITMAP
00E0
0070
FF30
0630
07F0
0C30
1830
31F0
6030
FFF0
0030
0030
0030
0030
0030
ENDCHAR
STARTCHAR K+305E
ENCODING 12382
SWIDTH 960 0
DWIDTH 16 0
BBX 13 14 1 -2
BITMAP
0070
0038
7F98
0318
06F8
0618
0C18
18F8
3018
FF78
0318
0318
0318
0318
ENDCHAR
STARTCHAR K+305F
ENCODING 12383
SWIDTH 960 0
DWIDTH 16 0
BBX 13 14 2 -2
BITMAP
0070
0030
FF30
0730
06F0
0C30
1830
33F0
6030
C030
1C30
0C00
0C00
0FF8
ENDCHAR
STARTCHAR K+3060
ENCODING 12384
SWIDTH 960 0
DWIDTH 16 0
BBX 14 13 1 -1
BITMAP
0038
0018
3F98
03F8
03D8
0618
0C18
18F8
3018
EFF8
0600
0600
07FC
ENDCHAR
STARTCHAR K+3061
ENCODING 12385
SWIDTH 960 0
DWIDTH 16 0
BBX 13 14 2 -2
BITMAP
00F0
0070
FF30
07F0
07B0
0C30
1BF0
3030
6030
DFF0
0060
1FF0
0C00
0FF8
ENDCHAR
STARTCHAR K+3062
ENCODING 12386
SWIDTH 960 0
DWIDTH 16 0
BBX 12 14 2 -2
BITMAP
00F0
0070
FF30
0630
0FF0
0C30
1830
33F0
6030
CFE0
0C60
0C60
0FE0
0C00
ENDCHAR
STARTCHAR K+3063
ENCODING 12387
SWIDTH 960 0
DWIDTH 16 0
BBX 12 15 2 -3
BITMAP
00E0
0070
FF30
0630
07F0
0C30
1830
31F0
7830
CC30
0FF0
0C30
0C30
0FF0
0C30
ENDCHAR
STARTCHAR K+3064
ENCODING 12388
SWIDTH 960 0
DWIDTH 16 0
BBX 13 14 2 -2
BITMAP
0070
0030
FF30
07F0
0630
0C30
1BF0
3030
6330
C180
0380
03C0
0E70
1818
ENDCHAR
STARTCHAR K+3065
ENCODING 12389
SWIDTH 960 0
DWIDTH 16 0
BBX 13 14 2 -2
BITMAP
00E0
0070
FF30
0630
07F0
0C30
1830
31F0
6030
CC70
0C60
1EF0
3398
6318
ENDCHAR
STARTCHAR K+3066
ENCODING 12390
SWIDTH 960 0
DWIDTH 16 0
BBX 12 14 2 -2
BITMAP
00E0
0070
FF30
0630
06F0
0C30
1830
31F0
61B0
C3F0
0630
0630
0770
03E0
ENDCHAR
STARTCHAR K+3067
ENCODING 12391
SWIDTH 960 0
DWIDTH 16 0
BBX 13 14 2 -2
BITMAP
00E0
0070
FF30
0630
06F0
0C30
1830
31F0
6030
CFF0
0C00
0FF0
0C00
0FF8
ENDCHAR
STARTCHAR K+3068
ENCODING 12392
SWIDTH 960 0
DWIDTH 16 0
BBX 12 14 2 -2
BITMAP
0070
0330
01B0
FDB0
0DB0
1FB0
19B0
3FB0
31B0
61B0
C1B0
01B0
01B0
0030
ENDCHAR
STARTCHAR K+3069
ENCODING 12393
SWIDTH 960 0
DWIDTH 16 0
BBX 14 13 1 -1
BITMAP
0038
01D8
06D8
3ED8
0FD8
0CD8
18D8
37D8
60D8
CED8
06D8
0600
07FC
ENDCHAR
STARTCHAR K+306A
ENCODING 12394
SWIDTH 960 0
DWIDTH 16 0
BBX 13 14 2 -2
BITMAP
0370
01B0
FDB0
0DB0
1FB0
19B0
3FB0
6000
DFF0
0030
1FF0
0C00
0C00
0FF8
ENDCHAR
STARTCHAR K+306B
ENCODING 12395
SWIDTH 960 0
DWIDTH 16 0
BBX 12 15 2 -3
BITMAP
0070
03B0
FDB0
0DB0
1FB0
19B0
37B0
61B0
CC70
0630
07F0
0630
0630
07F0
0630
ENDCHAR
STARTCHAR K+306C
ENCODING 12396
SWIDTH 960 0
DWIDTH 16 0
BBX 13 14 2 -2
BITMAP
0060
0030
01B0
FDB0
0DB0
1FB0
19B0
3FB0
63B0
C1B0
0380
03E0
0E30
1818
ENDCHAR
STARTCHAR K+306D
ENCODING 12397
SWIDTH 960 0
DWIDTH 16 0
BBX 15 10 1 0
BITMAP
3FF8
0018
0018
0030
0030
0330
0300
0300
0300
FFFE
ENDCHAR
STARTCHAR K+306E
ENCODING 12398
SWIDTH 960 0
DWIDTH 16 0
BBX 15 14 1 -3
BITMAP
3FF8
0018
0730
0330
0300
FFFE
0000
0000
1FF0
0030
0030
0030
0030
0030
ENDCHAR
STARTCHAR K+306F
ENCODING 12399
SWIDTH 960 0
DWIDTH 16 0
BBX 15 12 1 -2
BITMAP
3FF8
0018
0718
01B0
01B0
01FE
FF00
0000
1C00
0C00
0C00
0FF8
ENDCHAR
STARTCHAR K+3070
ENCODING 12400
SWIDTH 960 0
DWIDTH 16 0
BBX 15 13 1 -2
BITMAP
3FF8
0018
0730
0330
0300
03FE
FF80
0000
1FF8
0C00
0C00
0C00
0FF8
ENDCHAR
STARTCHAR K+3071
ENCODING 12401
SWIDTH 960 0
DWIDTH 16 0
BBX 15 13 1 -2
BITMAP
3FF8
0018
0730
0330
0300
FFFE
0000
0000
1FF0
0030
1FF0
0C00
0FF8
ENDCHAR
STARTCHAR K+3072
ENCODING 12402
SWIDTH 960 0
DWIDTH 16 0
BBX 15 14 1 -3
BITMAP
3FF8
0018
0730
0330
0300
FFFE
0000
0000
1FF8
07B0
3FB0
19F0
1B80
0E00
ENDCHAR
STARTCHAR K+3073
ENCODING 12403
SWIDTH 960 0
DWIDTH 16 0
BBX 15 13 1 -2
BITMAP
3FF8
0018
0730
0330
0300
FFFE
0000
1F30
0330
3F70
18D8
1F0C
0C00
ENDCHAR
STARTCHAR K+3074
ENCODING 12404
SWIDTH 960 0
DWIDTH 16 0
BBX 15 13 1 -2
BITMAP
3FF8
0030
03B0
0330
FFFE
0000
00F0
1F00
07F8
1FF0
1998
1F98
00F0
ENDCHAR
STARTCHAR K+3075
ENCODING 12405
SWIDTH 960 0
DWIDTH 16 0
BBX 15 13 1 -2
BITMAP
3FF8
0018
0730
01B0
0180
FFFE
0000
0000
1FF0
0C30
0C60
0FF0
0C00
ENDCHAR
STARTCHAR K+3076
ENCODING 12406
SWIDTH 960 0
DWIDTH 16 0
BBX 15 14 1 -3
BITMAP
3FF8
0018
0330
01B0
0180
C1FE
FF00
00E0
0C60
0FE0
0C60
0C60
0FE0
0C60
ENDCHAR
STARTCHAR K+3077
ENCODING 12407
SWIDTH 960 0
DWIDTH 16 0
BBX 15 13 1 -2
BITMAP
3FF8
0018
0030
0730
0300
0300
FFFE
0600
0380
0380
06C0
0C70
3818
ENDCHAR
STARTCHAR K+3078
ENCODING 12408
SWIDTH 960 0
DWIDTH 16 0
BBX 15 13 1 -2
BITMAP
3FF8
0018
0730
0330
0300
C3FE
7F80
0300
07C0
0C60
0C60
0EE0
07C0
ENDCHAR
STARTCHAR K+3079
ENCODING 12409
SWIDTH 960 0
DWIDTH 16 0
BBX 15 14 1 -3
BITMAP
3FF8
0018
0730
0330
0300
FFFE
0000
0000
3FF8
0180
0380
06E0
0C38
1800
ENDCHAR
STARTCHAR K+307A
ENCODING 12410
SWIDTH 960 0
DWIDTH 16 0
BBX 14 14 1 -2
BITMAP
0070
0030
0030
7FF0
01B0
01B0
1DB0
0C3C
0CF0
FFB0
0030
0030
0030
0030
ENDCHAR
STARTCHAR K+307B
ENCODING 12411
SWIDTH 960 0
DWIDTH 16 0
BBX 14 15 2 -3
BITMAP
00E0
0060
FF60
0360
3B60
1E7C
1FF0
FC60
0000
3FE0
1860
0060
0060
0060
0060
ENDCHAR
STARTCHAR K+307C
ENCODING 12412
SWIDTH 960 0
DWIDTH 16 0
BBX 14 14 2 -2
BITMAP
00E0
0060
FF60
0360
0360
3E60
1E7C
1FE0
F060
0060
1C60
0C00
0C00
0FF8
ENDCHAR
STARTCHAR K+307D
ENCODING 12413
SWIDTH 960 0
DWIDTH 16 0
BBX 14 14 2 -2
BITMAP
00E0
0060
FF60
0360
3B60
187C
1FE0
F060
0000
1FE0
0060
0FE0
0C00
0FF8
ENDCHAR
STARTCHAR K+307E
ENCODING 12414
SWIDTH 960 0
DWIDTH 16 0
BBX 14 14 2 -2
BITMAP
00E0
0060
FF60
0360
1B60
187C
3FE0
E060
0000
3FE0
0F60
3B60
3FE0
0300
ENDCHAR
STARTCHAR K+3121
ENCODING 12577
SWIDTH 960 0
DWIDTH 16 0
BBX 14 14 2 -2
BITMAP
00E0
0060
7FE0
0360
1B60
1BFC
3FE0
E000
0000
0FF0
0C60
0C60
0FF0
0C00
ENDCHAR
STARTCHAR K+3122
ENCODING 12578
SWIDTH 960 0
DWIDTH 16 0
BBX 14 14 2 -2
BITMAP
00E0
0060
FF60
0360
3B60
187C
1FE0
F060
3060
1860
1FE0
1860
1FE0
1860
ENDCHAR
STARTCHAR K+3123
ENCODING 12579
SWIDTH 960 0
DWIDTH 16 0
BBX 15 14 1 -2
BITMAP
0070
0030
7FF0
01B0
1DB0
0DB6
0CFC
FFB0
01B0
00C0
01C0
0370
0618
0C0C
ENDCHAR
STARTCHAR K+3124
ENCODING 12580
SWIDTH 960 0
DWIDTH 16 0
BBX 15 14 1 -2
BITMAP
0070
0030
7FB0
01B0
19B0
0C3E
0DF0
FF30
00F0
03E0
0630
0630
0630
03E0
ENDCHAR
STARTCHAR K+3125
ENCODING 12581
SWIDTH 960 0
DWIDTH 16 0
BBX 13 14 1 -2
BITMAP
0030
01D8
00D8
7FD8
03D8
03D8
1ED8
1EF8
1FD8
FCD8
00D8
00D8
00D8
0018
ENDCHAR
STARTCHAR K+3126
ENCODING 12582
SWIDTH 960 0
DWIDTH 16 0
BBX 14 14 1 -2
BITMAP
0038
00D8
00D8
7FD8
03D8
3BD8
1EF8
1FD8
FCD8
00D8
0E18
0600
0600
03FC
ENDCHAR
STARTCHAR K+3127
ENCODING 12583
SWIDTH 960 0
DWIDTH 16 0
BBX 14 14 1 -2
BITMAP
0038
0198
00D8
7FD8
03D8
1BD8
18F8
1BD8
FED8
0FF8
0018
0FF8
0600
07FC
ENDCHAR
STARTCHAR K+3128
ENCODING 12584
SWIDTH 960 0
DWIDTH 16 0
BBX 12 15 2 -3
BITMAP
0370
01B0
FFB0
07B0
37B0
31F0
37B0
FDB0
19F0
0C30
0FF0
0C30
0C30
0FF0
0C30
ENDCHAR
STARTCHAR K+3129
ENCODING 12585
SWIDTH 960 0
DWIDTH 16 0
BBX 14 14 1 -2
BITMAP
01B8
00D8
7FD8
03D8
1ED8
1EF8
1BD8
FED8
00D8
0630
0630
0F70
1FDC
318C
ENDCHAR
STARTCHAR K+312A
ENCODING 12586
SWIDTH 960 0
DWIDTH 16 0
BBX 13 14 1 -2
BITMAP
0038
01D8
7FD8
03D8
03D8
18D8
18F8
1FD8
FCF8
01F8
0318
0318
0398
01F0
ENDCHAR
STARTCHAR K+312B
ENCODING 12587
SWIDTH 960 0
DWIDTH 16 0
BBX 13 14 1 -2
BITMAP
0038
0018
7FD8
00D8
0198
1998
0D98
0C18
0DF8
FF18
0018
0018
0018
0018
ENDCHAR
STARTCHAR K+312C
ENCODING 12588
SWIDTH 960 0
DWIDTH 16 0
BBX 11 14 3 -2
BITMAP
00E0
0060
FF60
0360
3B60
1E60
1FE0
FC60
0000
7FE0
3060
0060
0060
0060
ENDCHAR
STARTCHAR K+312D
ENCODING 12589
SWIDTH 960 0
DWIDTH 16 0
BBX 13 14 2 -2
BITMAP
0070
0030
7FB0
01B0
0330
1B30
1870
1FF0
F030
0030
1C00
0C00
0C00
0FF8
ENDCHAR
STARTCHAR K+312E
ENCODING 12590
SWIDTH 960 0
DWIDTH 16 0
BBX 12 14 3 -2
BITMAP
00E0
0060
FF60
0360
1E60
1E60
1FE0
F060
3FE0
00C0
3FE0
1800
1800
1FF0
ENDCHAR
STARTCHAR K+312F
ENCODING 12591
SWIDTH 960 0
DWIDTH 16 0
BBX 12 15 2 -3
BITMAP
0070
0030
7FB0
01B0
1B30
0F30
0CF0
FFB0
0030
0000
0FE0
0C60
0C60
0FE0
0C00
ENDCHAR
STARTCHAR K+3130
ENCODING 12592
SWIDTH 960 0
DWIDTH 16 0
BBX 11 15 3 -3
BITMAP
00E0
0060
FF60
0360
3E60
1E60
1FE0
FC60
18E0
0C60
0FE0
0C60
0C60
0FE0
0C60
ENDCHAR
STARTCHAR K+3131
ENCODING 12593
SWIDTH 960 0
DWIDTH 16 0
BBX 13 14 2 -2
BITMAP
0070
0030
7FB0
01B0
3330
1B30
1BF0
1FB0
F030
01B0
0380
03C0
0E70
1818
ENDCHAR
STARTCHAR K+3132
ENCODING 12594
SWIDTH 960 0
DWIDTH 16 0
BBX 12 14 2 -2
BITMAP
0070
0030
7FB0
01B0
1B30
0F30
0CF0
FFB0
00F0
03E0
0630
0630
0770
03E0
ENDCHAR
STARTCHAR K+3133
ENCODING 12595
SWIDTH 960 0
DWIDTH 16 0
BBX 15 10 1 0
BITMAP
3FF8
0018
0018
0018
01F0
0CF0
0CF0
0CC0
0CC0
FFFE
ENDCHAR
STARTCHAR K+3134
ENCODING 12596
SWIDTH 960 0
DWIDTH 16 0
BBX 14 12 2 -1
BITMAP
0070
7FF0
0030
00E0
0CE0
0CC0
FFFC
0000
1800
1800
1800
0FF8
ENDCHAR
STARTCHAR K+3135
ENCODING 12597
SWIDTH 960 0
DWIDTH 16 0
BBX 14 12 2 -1
BITMAP
7FF0
03B0
0DE0
0DE0
FFFC
0000
0000
7FE0
00C0
3FC0
3000
1FE0
ENDCHAR
STARTCHAR K+3136
ENCODING 12598
SWIDTH 960 0
DWIDTH 16 0
BBX 15 13 1 -2
BITMAP
3FF8
0018
01F0
06F0
06C0
FFFE
0000
1C30
0C30
0FF0
0C30
0FF0
0C30
ENDCHAR
STARTCHAR K+3137
ENCODING 12599
SWIDTH 960 0
DWIDTH 16 0
BBX 14 13 2 -2
BITMAP
7FF0
0030
0030
01E0
0CE0
0CC0
FFFC
0600
0300
0780
0CC0
1870
7000
ENDCHAR
STARTCHAR K+3138
ENCODING 12600
SWIDTH 960 0
DWIDTH 16 0
BBX 14 13 2 -2
BITMAP
3FF0
0060
0060
0060
00C0
FFFC
0300
0300
0300
0300
0300
0300
0300
ENDCHAR
STARTCHAR K+3139
ENCODING 12601
SWIDTH 960 0
DWIDTH 16 0
BBX 14 13 2 -2
BITMAP
3FF0
0030
0060
0060
FFFC
0300
0300
3FE0
0060
0060
0060
0060
0060
ENDCHAR
STARTCHAR K+313A
ENCODING 12602
SWIDTH 960 0
DWIDTH 16 0
BBX 14 12 2 -2
BITMAP
3FF0
0030
0060
0060
FFFC
0360
0300
3300
3300
3000
3FF0
1830
ENDCHAR
STARTCHAR K+313B
ENCODING 12603
SWIDTH 960 0
DWIDTH 16 0
BBX 15 13 1 -2
BITMAP
1FF8
0030
0030
0030
0060
FFFE
0180
0180
1FF8
0C00
0C00
0C00
0FF8
ENDCHAR
STARTCHAR K+313C
ENCODING 12604
SWIDTH 960 0
DWIDTH 16 0
BBX 14 13 2 -2
BITMAP
3FF0
0030
0030
0060
0060
FFFC
0300
3F00
01E0
0060
3FE0
1800
1FF0
ENDCHAR
STARTCHAR K+313D
ENCODING 12605
SWIDTH 960 0
DWIDTH 16 0
BBX 14 13 2 -2
BITMAP
3FF0
0030
0060
0060
0060
FFFC
0300
0300
3EF0
6C30
3830
3E30
1830
ENDCHAR
STARTCHAR K+313E
ENCODING 12606
SWIDTH 960 0
DWIDTH 16 0
BBX 14 13 2 -2
BITMAP
3FF0
0030
0060
0060
0060
FFFC
0300
0300
3FF0
3FB0
31B0
3FF0
0180
ENDCHAR
STARTCHAR K+313F
ENCODING 12607
SWIDTH 960 0
DWIDTH 16 0
BBX 15 13 1 -2
BITMAP
1FF8
0030
0030
FFFE
0180
0180
1FF0
03FC
3F60
1DF8
1998
1FF8
0060
ENDCHAR
STARTCHAR K+3140
ENCODING 12608
SWIDTH 960 0
DWIDTH 16 0
BBX 14 13 2 -2
BITMAP
3FF0
0030
0060
0060
0060
FFFC
0300
0300
1FE0
1860
18C0
1FE0
1800
ENDCHAR
STARTCHAR K+3141
ENCODING 12609
SWIDTH 960 0
DWIDTH 16 0
BBX 15 13 1 -2
BITMAP
1FF8
0030
0030
0030
0060
FFFE
0180
19F0
0C30
0FF0
0C30
0FF0
0C30
ENDCHAR
STARTCHAR K+3142
ENCODING 12610
SWIDTH 960 0
DWIDTH 16 0
BBX 15 14 1 -3
BITMAP
3BF8
0E30
0030
0030
0060
FFFE
0180
0180
0380
0380
07C0
0C70
1818
3000
ENDCHAR
STARTCHAR K+3143
ENCODING 12611
SWIDTH 960 0
DWIDTH 16 0
BBX 14 13 2 -2
BITMAP
3FF0
0030
0060
0060
0060
FFFC
0300
0300
0F80
18C0
18C0
1CC0
0F80
ENDCHAR
STARTCHAR K+3144
ENCODING 12612
SWIDTH 960 0
DWIDTH 16 0
BBX 15 14 1 -3
BITMAP
1FF8
0018
0030
0030
FFFE
0180
0180
0180
3BF8
0F80
03C0
0770
0C18
1800
ENDCHAR
STARTCHAR K+3145
ENCODING 12613
SWIDTH 960 0
DWIDTH 16 0
BBX 13 14 1 -2
BITMAP
0038
0018
3FD8
0198
0198
0198
0378
FFD8
0618
06F8
0618
0618
0618
0018
ENDCHAR
STARTCHAR K+3146
ENCODING 12614
SWIDTH 960 0
DWIDTH 16 0
BBX 13 14 1 -2
BITMAP
0038
0018
3F98
0198
0318
FFD8
06F8
0618
0618
1FF8
0018
0018
0018
0018
ENDCHAR
STARTCHAR K+3147
ENCODING 12615
SWIDTH 960 0
DWIDTH 16 0
BBX 14 14 1 -2
BITMAP
0038
0018
3FD8
0198
0198
0198
FFD8
07B8
0CF8
0018
0E18
0600
0600
07FC
ENDCHAR
STARTCHAR K+3148
ENCODING 12616
SWIDTH 960 0
DWIDTH 16 0
BBX 14 14 1 -2
BITMAP
0038
0018
3F98
0198
0198
0378
FFF8
06F8
0000
0FF8
0030
0FF8
0600
07FC
ENDCHAR
STARTCHAR K+3149
ENCODING 12617
SWIDTH 960 0
DWIDTH 16 0
BBX 15 14 1 -2
BITMAP
0038
0018
3F98
0198
0378
FFD8
06F8
0618
0618
0338
0730
07F8
0DCC
3986
ENDCHAR
STARTCHAR K+314A
ENCODING 12618
SWIDTH 960 0
DWIDTH 16 0
BBX 12 14 2 -2
BITMAP
0060
0030
7F30
0330
0330
03B0
FE30
0DF0
0C30
0FB0
0EE0
0C60
0E60
07C0
ENDCHAR
STARTCHAR K+314B
ENCODING 12619
SWIDTH 960 0
DWIDTH 16 0
BBX 12 14 2 -2
BITMAP
0070
01F0
00F0
FEF0
06F0
0CF0
0CF0
1EF0
FFF0
18F0
18F0
18F0
00F0
0030
ENDCHAR
STARTCHAR K+314C
ENCODING 12620
SWIDTH 960 0
DWIDTH 16 0
BBX 14 14 1 -2
BITMAP
0038
00F8
0778
3F78
0378
0678
CF78
7CF8
0DF8
0CD8
00C0
01E0
0738
0C0C
ENDCHAR
STARTCHAR K+314D
ENCODING 12621
SWIDTH 960 0
DWIDTH 16 0
BBX 13 14 1 -2
BITMAP
0038
0018
3FD8
0198
0198
0198
0338
CFF8
7E18
0618
0618
0618
0618
0018
ENDCHAR
STARTCHAR K+314E
ENCODING 12622
SWIDTH 960 0
DWIDTH 16 0
BBX 12 14 2 -2
BITMAP
0060
0030
7FB0
0330
0330
03F0
FE30
0C30
0C30
3FF0
0030
0030
0030
0030
ENDCHAR
STARTCHAR K+314F
ENCODING 12623
SWIDTH 960 0
DWIDTH 16 0
BBX 13 14 2 -2
BITMAP
0070
0030
7FB0
0330
0330
03F0
07B0
FC30
0C30
0C30
1C30
0C00
0C00
0FF8
ENDCHAR
STARTCHAR K+3150
ENCODING 12624
SWIDTH 960 0
DWIDTH 16 0
BBX 13 14 2 -2
BITMAP
0060
0030
7FB0
01B0
0330
03F0
FE30
0C30
1FF0
0060
1FE0
0C00
0C00
0FF8
ENDCHAR
STARTCHAR K+3151
ENCODING 12625
SWIDTH 960 0
DWIDTH 16 0
BBX 12 14 2 -2
BITMAP
0060
0030
7FB0
0330
0330
03F0
FE30
0C30
0C30
0FE0
0C60
0C60
0FE0
0C00
ENDCHAR
STARTCHAR K+3152
ENCODING 12626
SWIDTH 960 0
DWIDTH 16 0
BBX 12 15 2 -3
BITMAP
0070
0030
7FB0
0330
0330
FFF0
6C30
0C30
1C70
0C30
0FF0
0C30
0C30
0FF0
0C30
ENDCHAR
STARTCHAR K+3153
ENCODING 12627
SWIDTH 960 0
DWIDTH 16 0
BBX 13 14 2 -2
BITMAP
0060
0030
7FB0
0330
0330
03F0
FF30
0C30
0FB0
01B0
0380
06E0
0C30
3818
ENDCHAR
STARTCHAR K+3154
ENCODING 12628
SWIDTH 960 0
DWIDTH 16 0
BBX 15 13 1 -2
BITMAP
3FF8
0030
0030
0030
0060
FFFE
0C60
0C60
0C60
0C60
0C60
0C60
0060
ENDCHAR
STARTCHAR K+3155
ENCODING 12629
SWIDTH 960 0
DWIDTH 16 0
BBX 15 11 1 -1
BITMAP
3FF8
0018
0030
0030
FFFE
0C60
0C60
1C60
1C60
1860
1FF0
ENDCHAR
STARTCHAR K+3156
ENCODING 12630
SWIDTH 960 0
DWIDTH 16 0
BBX 14 13 2 -2
BITMAP
3FF0
0060
0060
0060
007C
FFC0
0CC0
0FE0
18C0
3FE0
1800
1800
1FF0
ENDCHAR
STARTCHAR K+3157
ENCODING 12631
SWIDTH 960 0
DWIDTH 16 0
BBX 15 8 1 1
BITMAP
3FF8
0018
0018
0030
0030
0030
0060
FFFE
ENDCHAR
STARTCHAR K+3158
ENCODING 12632
SWIDTH 960 0
DWIDTH 16 0
BBX 15 13 1 -2
BITMAP
1FF8
0018
0030
0030
0030
FFFE
0000
1FF0
0030
0030
0030
0030
0030
ENDCHAR
STARTCHAR K+3159
ENCODING 12633
SWIDTH 960 0
DWIDTH 16 0
BBX 15 11 1 -1
BITMAP
1FF8
0018
0018
0030
0030
FFFE
3000
1800
1800
1800
0FF8
ENDCHAR
STARTCHAR K+315A
ENCODING 12634
SWIDTH 960 0
DWIDTH 16 0
BBX 15 12 1 -1
BITMAP
1FF8
0018
0030
0030
0030
FFFE
0000
0FF0
0C00
0C00
0C00
0FF8
ENDCHAR
STARTCHAR K+315B
ENCODING 12635
SWIDTH 960 0
DWIDTH 16 0
BBX 15 12 1 -1
BITMAP
1FF8
0018
0030
0030
0030
FFFE
0000
1FF0
0060
1FF0
0C00
0FF8
ENDCHAR
STARTCHAR K+315C
ENCODING 12636
SWIDTH 960 0
DWIDTH 16 0
BBX 15 13 1 -2
BITMAP
1FF8
0018
0030
0030
0030
FFFE
0000
1F00
0378
3F18
1818
1B18
1E18
ENDCHAR
STARTCHAR K+315D
ENCODING 12637
SWIDTH 960 0
DWIDTH 16 0
BBX 15 13 1 -2
BITMAP
1FF8
0018
0030
0030
0030
FFFE
0000
1FF0
0C30
0C60
0C60
0FF0
0C00
ENDCHAR
STARTCHAR K+315E
ENCODING 12638
SWIDTH 960 0
DWIDTH 16 0
BBX 15 13 1 -2
BITMAP
1FF8
0018
0030
0030
0030
FFFE
18E0
0C60
0FE0
0C60
0C60
0FE0
0C60
ENDCHAR
STARTCHAR K+315F
ENCODING 12639
SWIDTH 960 0
DWIDTH 16 0
BBX 15 12 1 -1
BITMAP
1FF8
0018
0030
0030
0030
FFFE
0000
0380
0380
03C0
0670
1C38
ENDCHAR
STARTCHAR K+3160
ENCODING 12640
SWIDTH 960 0
DWIDTH 16 0
BBX 15 13 1 -2
BITMAP
1FF8
0018
0030
0030
0030
FFFE
0180
07C0
0EE0
0C60
0C60
0EE0
07C0
ENDCHAR
STARTCHAR K+3161
ENCODING 12641
SWIDTH 960 0
DWIDTH 16 0
BBX 12 14 2 -2
BITMAP
0070
0030
FFB0
01B0
0330
0330
0330
0030
03F0
FE30
0030
0030
0030
0030
ENDCHAR
STARTCHAR K+3162
ENCODING 12642
SWIDTH 960 0
DWIDTH 16 0
BBX 12 14 2 -2
BITMAP
0070
0030
0030
7F30
0630
0E30
0C30
1830
3030
6030
C030
0030
0030
0030
ENDCHAR
STARTCHAR K+3163
ENCODING 12643
SWIDTH 960 0
DWIDTH 16 0
BBX 13 14 1 -2
BITMAP
0038
0018
7F98
0398
0318
0618
0C18
1818
3078
EFD8
0018
0018
0018
0018
ENDCHAR
STARTCHAR K+3164
ENCODING 12644
SWIDTH 960 0
DWIDTH 16 0
BBX 13 14 2 -2
BITMAP
0070
0030
FF30
0730
0630
0C30
1830
3030
6030
C030
1C30
0C00
0C00
0FF8
ENDCHAR
STARTCHAR K+3165
ENCODING 12645
SWIDTH 960 0
DWIDTH 16 0
BBX 14 13 1 -1
BITMAP
0038
0018
3F98
0318
0318
0618
0C18
1818
3FF8
E600
0600
0600
03FC
ENDCHAR
STARTCHAR K+3166
ENCODING 12646
SWIDTH 960 0
DWIDTH 16 0
BBX 13 14 2 -2
BITMAP
0070
0030
FF30
0630
0630
0C30
1830
3030
7FF0
0060
1FF0
0C00
0C00
0FF8
ENDCHAR
STARTCHAR K+3167
ENCODING 12647
SWIDTH 960 0
DWIDTH 16 0
BBX 12 14 2 -2
BITMAP
0070
0030
FF30
0630
0630
0C30
1830
3030
FFF0
0DB0
7FB0
31B0
33F0
3F80
ENDCHAR
STARTCHAR K+3168
ENCODING 12648
SWIDTH 960 0
DWIDTH 16 0
BBX 12 14 2 -2
BITMAP
0070
0030
FF30
0630
0630
0C30
1830
3030
6FF0
0C70
0C70
0C60
0FF0
0C00
ENDCHAR
STARTCHAR K+3169
ENCODING 12649
SWIDTH 960 0
DWIDTH 16 0
BBX 12 14 2 -2
BITMAP
0070
0030
FF30
0630
0630
0C30
1830
3000
7C30
0C30
0FF0
0C30
0FF0
0C30
ENDCHAR
STARTCHAR K+316A
ENCODING 12650
SWIDTH 960 0
DWIDTH 16 0
BBX 13 14 2 -2
BITMAP
0070
0030
FF30
0630
0630
0C30
1830
3030
63B0
0180
03C0
0670
0C18
3800
ENDCHAR
STARTCHAR K+316B
ENCODING 12651
SWIDTH 960 0
DWIDTH 16 0
BBX 11 14 3 -2
BITMAP
01C0
00E0
FE60
0C60
0C60
1860
3060
6060
C360
0FC0
1860
1860
1CE0
0FC0
ENDCHAR
STARTCHAR K+316C
ENCODING 12652
SWIDTH 960 0
DWIDTH 16 0
BBX 13 14 2 -2
BITMAP
0070
0030
7F30
0730
0630
0C30
1830
3030
E078
1FC0
0380
07E0
0C38
1818
ENDCHAR
STARTCHAR K+316D
ENCODING 12653
SWIDTH 960 0
DWIDTH 16 0
BBX 13 14 2 -2
BITMAP
0070
0030
FF30
0630
0630
0C30
1830
3030
7FF0
0000
0C60
0660
06C0
3FF8
ENDCHAR
STARTCHAR K+316E
ENCODING 12654
SWIDTH 960 0
DWIDTH 16 0
BBX 14 14 2 -2
BITMAP
00E0
0060
0060
7FE0
1B60
3360
6360
667C
C660
0C60
1860
3060
0060
0060
ENDCHAR
STARTCHAR K+316F
ENCODING 12655
SWIDTH 960 0
DWIDTH 16 0
BBX 13 15 3 -3
BITMAP
01C0
00C0
FFC0
33C0
66C0
6CF8
D8C0
30C0
6000
7FC0
00C0
00C0
00C0
00C0
00C0
ENDCHAR
STARTCHAR K+3170
ENCODING 12656
SWIDTH 960 0
DWIDTH 16 0
BBX 13 14 3 -2
BITMAP
01C0
00C0
FFC0
33C0
66C0
6CF8
D8C0
30C0
6000
7FC0
0CC0
0CC0
0CC0
0CC0
ENDCHAR
STARTCHAR K+3171
ENCODING 12657
SWIDTH 960 0
DWIDTH 16 0
BBX 14 14 2 -2
BITMAP
00E0
0060
FDE0
1FE0
3360
366C
6678
CC60
1860
3060
1C60
0C00
0C00
0FF8
ENDCHAR
STARTCHAR K+3172
ENCODING 12658
SWIDTH 960 0
DWIDTH 16 0
BBX 13 14 3 -2
BITMAP
01C0
00C0
FFC0
33C0
66C0
6CF8
CCC0
18C0
3FC0
00C0
00C0
3FC0
1800
1FE0
ENDCHAR
STARTCHAR K+3173
ENCODING 12659
SWIDTH 960 0
DWIDTH 16 0
BBX 15 14 1 -2
BITMAP
00E0
0030
7FF0
0DB0
19B0
333E
6630
C030
3FF8
0DB0
3FB0
31B0
3FF0
1980
ENDCHAR
STARTCHAR K+3174
ENCODING 12660
SWIDTH 960 0
DWIDTH 16 0
BBX 14 14 2 -2
BITMAP
00E0
0060
7FE0
19E0
1B60
377C
6660
CC60
1FE0
0C60
0C60
0CC0
0FE0
0C00
ENDCHAR
STARTCHAR K+3175
ENCODING 12661
SWIDTH 960 0
DWIDTH 16 0
BBX 14 14 2 -2
BITMAP
00E0
0060
7FE0
19E0
1B60
377C
6660
CC60
1860
0C60
0FE0
0C60
0FE0
0C60
ENDCHAR
STARTCHAR K+3176
ENCODING 12662
SWIDTH 960 0
DWIDTH 16 0
BBX 14 14 2 -2
BITMAP
00E0
0060
7DE0
1FE0
1B60
336C
6678
CC60
1B60
0360
0780
0CE0
1870
7030
ENDCHAR
STARTCHAR K+3177
ENCODING 12663
SWIDTH 960 0
DWIDTH 16 0
BBX 14 14 2 -2
BITMAP
00E0
0060
7FE0
19E0
3360
367C
6660
0C60
1C60
0C60
1EE0
1BF0
7398
C300
ENDCHAR
STARTCHAR K+3178
ENCODING 12664
SWIDTH 960 0
DWIDTH 16 0
BBX 14 14 2 -2
BITMAP
00E0
0060
7FE0
19E0
1B60
377C
6660
CC60
19E0
07C0
0C60
0C60
0EE0
07C0
ENDCHAR
STARTCHAR K+3179
ENCODING 12665
SWIDTH 960 0
DWIDTH 16 0
BBX 14 14 2 -2
BITMAP
00E0
0060
7FE0
19E0
1B60
377C
6660
CC60
1870
0FC0
0C00
0FF0
0C00
07F0
ENDCHAR
STARTCHAR K+317A
ENCODING 12666
SWIDTH 960 0
DWIDTH 16 0
BBX 12 14 2 -2
BITMAP
01F0
00F0
00F0
FFF0
36F0
36F0
6CF0
CCF0
D8F0
30F0
00F0
00F0
0030
0030
ENDCHAR
STARTCHAR K+317B
ENCODING 12667
SWIDTH 960 0
DWIDTH 16 0
BBX 13 14 1 -2
BITMAP
0038
00F8
0078
3FF8
1B78
3378
6678
CC78
1878
1FF8
0018
0018
0018
0018
ENDCHAR
STARTCHAR K+317C
ENCODING 12668
SWIDTH 960 0
DWIDTH 16 0
BBX 14 14 1 -2
BITMAP
00F8
0078
0078
7FF8
1B78
1B78
3678
6C78
CC78
1878
0618
0600
0600
07FC
ENDCHAR
STARTCHAR K+317D
ENCODING 12669
SWIDTH 960 0
DWIDTH 16 0
BBX 13 14 2 -2
BITMAP
0070
00F0
FFF0
36F0
36F0
6CF0
CCF0
18F0
3FF0
0030
0030
0FF0
0600
07F8
ENDCHAR
STARTCHAR K+317E
ENCODING 12670
SWIDTH 960 0
DWIDTH 16 0
BBX 13 14 1 -2
BITMAP
00F8
0078
0078
3F78
1B78
3678
6678
CC78
1800
03F8
0318
0318
03F8
0300
ENDCHAR
STARTCHAR K+3221
ENCODING 12833
SWIDTH 960 0
DWIDTH 16 0
BBX 12 14 2 -2
BITMAP
0070
00F0
FFF0
36F0
36F0
6CF0
CCF0
18F0
3EF0
0630
07F0
0630
07F0
0630
ENDCHAR
STARTCHAR K+3222
ENCODING 12834
SWIDTH 960 0
DWIDTH 16 0
BBX 13 14 2 -2
BITMAP
0070
03B0
01B0
7FB0
37B0
37B0
6DF0
D9B0
1BB0
01B0
0380
07E0
0C30
1818
ENDCHAR
STARTCHAR K+3223
ENCODING 12835
SWIDTH 960 0
DWIDTH 16 0
BBX 13 14 2 -2
BITMAP
01F0
00F0
FFF0
1FF0
36F0
66F0
6CF0
D8F0
00E0
0660
0E60
1BF0
3198
6300
ENDCHAR
STARTCHAR K+3224
ENCODING 12836
SWIDTH 960 0
DWIDTH 16 0
BBX 13 14 1 -2
BITMAP
00F8
0078
0078
3FF8
1B78
3378
6678
CC78
18D8
01E0
0338
0318
03B8
01F0
ENDCHAR
STARTCHAR K+3225
ENCODING 12837
SWIDTH 960 0
DWIDTH 16 0
BBX 14 14 2 -2
BITMAP
00E0
0060
0060
7FE0
19FC
3370
3360
6660
CC6C
1878
0060
0060
0060
0060
ENDCHAR
STARTCHAR K+3226
ENCODING 12838
SWIDTH 960 0
DWIDTH 16 0
BBX 15 15 1 -3
BITMAP
0070
0030
DDF0
7FBE
19B8
3330
663E
0638
0000
3FF0
0030
0030
0030
0030
0030
ENDCHAR
STARTCHAR K+3227
ENCODING 12839
SWIDTH 960 0
DWIDTH 16 0
BBX 14 14 2 -2
BITMAP
00E0
0060
7FE0
1B7C
3360
6660
CC7C
1860
1FE0
0060
1FE0
0C00
0C00
0FF8
ENDCHAR
STARTCHAR K+3228
ENCODING 12840
SWIDTH 960 0
DWIDTH 16 0
BBX 12 14 2 -2
BITMAP
0070
0030
0030
7FB0
19B0
1B70
33F0
6630
CC30
0C30
1830
0030
0030
0030
ENDCHAR
STARTCHAR K+3229
ENCODING 12841
SWIDTH 960 0
DWIDTH 16 0
BBX 12 14 2 -2
BITMAP
0070
0030
7FB0
19B0
33F0
6630
CC30
1830
31F0
3F30
0030
0030
0030
0030
ENDCHAR
STARTCHAR K+322A
ENCODING 12842
SWIDTH 960 0
DWIDTH 16 0
BBX 12 14 2 -2
BITMAP
0070
0030
7FB0
19B0
33F0
6630
CC30
1830
3000
1FF0
0630
0630
0630
0630
ENDCHAR
STARTCHAR K+322B
ENCODING 12843
SWIDTH 960 0
DWIDTH 16 0
BBX 13 14 2 -2
BITMAP
0070
0030
F9B0
7FB0
3330
63F0
6630
CC30
1830
3830
0C30
0C00
0C00
0FF8
ENDCHAR
STARTCHAR K+322C
ENCODING 12844
SWIDTH 960 0
DWIDTH 16 0
BBX 13 14 2 -2
BITMAP
0070
0030
7FB0
19B0
33F0
6630
CC30
1830
1FF0
0030
1FF0
0C00
0C00
0FF8
ENDCHAR
STARTCHAR K+322D
ENCODING 12845
SWIDTH 960 0
DWIDTH 16 0
BBX 12 14 2 -2
BITMAP
0070
0030
7FB0
19B0
33F0
6630
C630
0C30
1FF0
0C60
0C60
0C60
0FE0
0C00
ENDCHAR
STARTCHAR K+322E
ENCODING 12846
SWIDTH 960 0
DWIDTH 16 0
BBX 12 14 2 -2
BITMAP
0070
0030
7FB0
19B0
33F0
6630
C630
0C30
1870
0C30
0FF0
0C30
0FF0
0C30
ENDCHAR
STARTCHAR K+322F
ENCODING 12847
SWIDTH 960 0
DWIDTH 16 0
BBX 13 14 2 -2
BITMAP
0070
0030
7FB0
19B0
1B30
33F0
6630
CC30
1B30
01B0
03C0
0760
0C30
1818
ENDCHAR
STARTCHAR K+3230
ENCODING 12848
SWIDTH 960 0
DWIDTH 16 0
BBX 13 14 2 -2
BITMAP
0070
0030
7FB0
19B0
3330
63F0
C630
0C30
1C60
0630
0C60
1F70
33D8
6180
ENDCHAR
STARTCHAR K+3231
ENCODING 12849
SWIDTH 960 0
DWIDTH 16 0
BBX 12 14 2 -2
BITMAP
0070
0030
7FB0
19B0
33F0
6630
C630
0C30
1830
03E0
0630
0630
0770
03E0
ENDCHAR
STARTCHAR K+3232
ENCODING 12850
SWIDTH 960 0
DWIDTH 16 0
BBX 12 15 2 -3
BITMAP
0060
01F0
00F0
FFF0
36F0
36F0
67F0
6CF0
D8F0
18F0
30F0
00F0
00F0
0030
0030
ENDCHAR
STARTCHAR K+3233
ENCODING 12851
SWIDTH 960 0
DWIDTH 16 0
BBX 13 14 1 -2
BITMAP
0038
00F8
0C78
3FF8
1B78
33F8
6678
CC78
1878
1FF8
0018
0018
0018
0018
ENDCHAR
STARTCHAR K+3234
ENCODING 12852
SWIDTH 960 0
DWIDTH 16 0
BBX 13 14 2 -2
BITMAP
0070
01F0
00F0
7FF0
36F0
37F0
6CF0
D8F0
30F0
00F0
0C30
0C00
0C00
0FF8
ENDCHAR
STARTCHAR K+3235
ENCODING 12853
SWIDTH 960 0
DWIDTH 16 0
BBX 12 14 2 -2
BITMAP
0070
01F0
F7F0
3EF0
66F0
6FF0
D8F0
30F0
00C0
0FF0
0C60
0C60
0FE0
0C00
ENDCHAR
STARTCHAR K+3236
ENCODING 12854
SWIDTH 960 0
DWIDTH 16 0
BBX 14 14 1 -2
BITMAP
0038
00F8
7DF8
1FF8
1B78
33F8
6678
CC78
19F8
00D8
01C0
0360
0638
1C0C
ENDCHAR
STARTCHAR K+3237
ENCODING 12855
SWIDTH 960 0
DWIDTH 16 0
BBX 13 14 1 -2
BITMAP
0038
00F8
0C78
3FF8
1B78
33F8
6678
CC78
1878
01F0
0318
0318
0398
01F0
ENDCHAR
STARTCHAR K+3238
ENCODING 12856
SWIDTH 960 0
DWIDTH 16 0
BBX 12 14 2 -2
BITMAP
0070
0030
0030
7FB0
1BF0
33F0
3630
6630
CDF0
1830
0030
0030
0030
0030
ENDCHAR
STARTCHAR K+3239
ENCODING 12857
SWIDTH 960 0
DWIDTH 16 0
BBX 14 14 1 -2
BITMAP
0038
0018
7FD8
1DF8
1998
3318
67F8
CC18
0018
0018
0E00
0600
0600
07FC
ENDCHAR
STARTCHAR K+323A
ENCODING 12858
SWIDTH 960 0
DWIDTH 16 0
BBX 13 14 2 -2
BITMAP
0070
0030
FFB0
19F0
3330
6630
06F0
0C30
1FF0
0030
1FF0
0C00
0C00
0FF8
ENDCHAR
STARTCHAR K+323B
ENCODING 12859
SWIDTH 960 0
DWIDTH 16 0
BBX 13 14 2 -2
BITMAP
0070
0030
7FB0
19B0
1BF0
3330
67F0
CC30
1B30
01B0
0380
03E0
0E30
1818
ENDCHAR
STARTCHAR K+323C
ENCODING 12860
SWIDTH 960 0
DWIDTH 16 0
BBX 13 14 2 -2
BITMAP
0070
0030
7FB0
19F0
3330
6630
CDF0
1830
0060
0E70
0C60
1FF0
33D8
6198
ENDCHAR
STARTCHAR K+323D
ENCODING 12861
SWIDTH 960 0
DWIDTH 16 0
BBX 14 14 1 -2
BITMAP
0038
0018
3FD8
0DF8
19F8
3318
63F8
C618
0C00
07F8
0600
07F8
0600
03FC
ENDCHAR
STARTCHAR K+323E
ENCODING 12862
SWIDTH 960 0
DWIDTH 16 0
BBX 12 15 2 -3
BITMAP
0060
01F0
00F0
FFF0
36F0
37F0
66F0
6FF0
D8F0
18F0
30F0
00F0
00F0
0030
0030
ENDCHAR
STARTCHAR K+323F
ENCODING 12863
SWIDTH 960 0
DWIDTH 16 0
BBX 17 9 0 1
BITMAP
3EFC00
061800
061800
0C1800
0FB080
01B000
018000
018000
FFFF00
ENDCHAR
STARTCHAR K+3240
ENCODING 12864
SWIDTH 960 0
DWIDTH 16 0
BBX 15 13 1 -2
BITMAP
7FF8
0618
0FB0
0DB0
0180
FFFE
0000
3FF0
0030
0030
0030
0030
0030
ENDCHAR
STARTCHAR K+3241
ENCODING 12865
SWIDTH 960 0
DWIDTH 16 0
BBX 15 11 1 -1
BITMAP
3FF8
0C18
0F30
0DB0
018C
FFFE
0000
3800
1800
1800
0FF8
ENDCHAR
STARTCHAR K+3242
ENCODING 12866
SWIDTH 960 0
DWIDTH 16 0
BBX 14 13 2 -2
BITMAP
FFF0
0C30
1E30
1B60
1B60
FF00
01FC
71C0
3038
33E0
33F0
3F30
01E0
ENDCHAR
STARTCHAR K+3243
ENCODING 12867
SWIDTH 960 0
DWIDTH 16 0
BBX 15 13 1 -2
BITMAP
7FF8
0618
0FB0
0DB0
018C
FFFE
0000
3FE0
0060
0060
1FE0
1800
1FF0
ENDCHAR
STARTCHAR K+3244
ENCODING 12868
SWIDTH 960 0
DWIDTH 16 0
BBX 15 13 1 -2
BITMAP
01F8
3E18
0730
0DB0
0D80
FFFE
0000
0000
1FF0
0C30
0C60
0FF0
0C00
ENDCHAR
STARTCHAR K+3245
ENCODING 12869
SWIDTH 960 0
DWIDTH 16 0
BBX 15 13 1 -2
BITMAP
7FF8
0618
0FB0
0DB0
018C
FFFE
0000
1870
0C30
0FF0
0C30
0FF0
0C30
ENDCHAR
STARTCHAR K+3246
ENCODING 12870
SWIDTH 960 0
DWIDTH 16 0
BBX 15 13 1 -2
BITMAP
7EF8
0618
0C18
0DB0
01B0
0180
FFFE
0300
0180
03C0
0670
0C38
3800
ENDCHAR
STARTCHAR K+3247
ENCODING 12871
SWIDTH 960 0
DWIDTH 16 0
BBX 15 13 1 -2
BITMAP
01F8
3E30
0F30
0DB0
198C
FFFE
0000
0000
07C0
0C60
0C60
0EE0
07C0
ENDCHAR
STARTCHAR K+3248
ENCODING 12872
SWIDTH 960 0
DWIDTH 16 0
BBX 15 12 1 -1
BITMAP
3FF8
0618
0618
0DB0
0DB0
FFFE
0000
1FF8
0180
0380
06E0
1C38
ENDCHAR
STARTCHAR K+3249
ENCODING 12873
SWIDTH 960 0
DWIDTH 16 0
BBX 15 13 1 -2
BITMAP
7FF8
36D8
0798
0DB0
01FE
FF86
0000
07C0
3FF8
0380
07C0
0E70
1818
ENDCHAR
STARTCHAR K+324A
ENCODING 12874
SWIDTH 960 0
DWIDTH 16 0
BBX 15 14 1 -2
BITMAP
0070
0030
00F0
3BF0
19B0
19B0
1FB0
063E
06F0
FFB0
0030
0030
0030
0030
ENDCHAR
STARTCHAR K+324B
ENCODING 12875
SWIDTH 960 0
DWIDTH 16 0
BBX 14 14 1 -2
BITMAP
0070
0030
7FF0
0CF0
0EF0
1E30
06FC
FFB0
0030
3FF0
0030
0030
0030
0030
ENDCHAR
STARTCHAR K+324C
ENCODING 12876
SWIDTH 960 0
DWIDTH 16 0
BBX 15 14 1 -2
BITMAP
0060
0030
3FF0
0CF0
0EF0
1E3E
0670
FFF0
0FF0
0030
0030
0FF0
0600
07FC
ENDCHAR
STARTCHAR K+324D
ENCODING 12877
SWIDTH 960 0
DWIDTH 16 0
BBX 15 14 1 -2
BITMAP
0060
0030
3FF0
0CF0
1FB0
1E3E
0678
FFF0
0000
0730
0630
07F8
0DEC
39CC
ENDCHAR
STARTCHAR K+324E
ENCODING 12878
SWIDTH 960 0
DWIDTH 16 0
BBX 15 14 1 -2
BITMAP
0060
0030
7FF0
0CF0
0CF0
1E3E
0678
FFF0
0030
01C0
0770
0630
0770
03E0
ENDCHAR
STARTCHAR K+324F
ENCODING 12879
SWIDTH 960 0
DWIDTH 16 0
BBX 12 14 2 -2
BITMAP
0060
01F0
00F0
77F0
33F0
36F0
7EF0
7EF0
1FF0
FCF0
00F0
00F0
00F0
0030
ENDCHAR
STARTCHAR K+3250
ENCODING 12880
SWIDTH 960 0
DWIDTH 16 0
BBX 13 14 1 -2
BITMAP
0038
00F8
0078
7FF8
1B78
3F78
3F78
0DF8
FF78
1FF8
0018
0018
0018
0018
ENDCHAR
STARTCHAR K+3251
ENCODING 12881
SWIDTH 960 0
DWIDTH 16 0
BBX 12 14 2 -2
BITMAP
0070
01F0
00F0
FFF0
33F0
7EF0
1EF0
1FF0
F0F0
03E0
0630
0630
0630
03E0
ENDCHAR
STARTCHAR K+3252
ENCODING 12882
SWIDTH 960 0
DWIDTH 16 0
BBX 12 14 2 -2
BITMAP
00E0
0030
FFB0
19B0
31B0
31B0
3C30
0C30
0FF0
FE30
0030
0030
0030
0030
ENDCHAR
STARTCHAR K+3253
ENCODING 12883
SWIDTH 960 0
DWIDTH 16 0
BBX 13 14 3 -2
BITMAP
00E0
0060
0360
F760
3360
3F60
0C60
0FE0
F860
0060
3860
1800
1800
0FF8
ENDCHAR
STARTCHAR K+3254
ENCODING 12884
SWIDTH 960 0
DWIDTH 16 0
BBX 13 14 2 -2
BITMAP
0070
0030
7BB0
19B0
1DB0
3630
36F0
FFB0
0000
1FE0
0060
1FE0
0C00
0FF8
ENDCHAR
STARTCHAR K+3255
ENCODING 12885
SWIDTH 960 0
DWIDTH 16 0
BBX 12 14 2 -2
BITMAP
00E0
0030
7FF0
19B0
19B0
1E30
0670
FFF0
0030
0FF0
0C60
0C60
0FE0
0C00
ENDCHAR
STARTCHAR K+3256
ENCODING 12886
SWIDTH 960 0
DWIDTH 16 0
BBX 12 14 2 -2
BITMAP
00F0
0030
7BB0
19B0
1DB0
3630
0670
FFF0
1870
0C30
0FF0
0C30
0FF0
0C30
ENDCHAR
STARTCHAR K+3257
ENCODING 12887
SWIDTH 960 0
DWIDTH 16 0
BBX 12 14 2 -2
BITMAP
00E0
0030
7FF0
19B0
19B0
1FB0
0630
FFF0
00F0
03E0
0630
0630
0770
03E0
ENDCHAR
STARTCHAR K+3258
ENCODING 12888
SWIDTH 960 0
DWIDTH 16 0
BBX 15 10 1 0
BITMAP
7FFC
061C
0618
0C18
0C18
1EF0
1EF0
06C0
06C0
FFFE
ENDCHAR
STARTCHAR K+3259
ENCODING 12889
SWIDTH 960 0
DWIDTH 16 0
BBX 14 14 2 -3
BITMAP
7FF0
0C30
0C30
0C60
1860
1FFC
FF00
0300
0300
0300
0300
0300
0300
0300
ENDCHAR
STARTCHAR K+325A
ENCODING 12890
SWIDTH 960 0
DWIDTH 16 0
BBX 15 14 1 -3
BITMAP
00F8
1E18
0630
0630
07FE
FF80
0180
0180
0180
1FF0
0030
0030
0030
0030
ENDCHAR
STARTCHAR K+325B
ENCODING 12891
SWIDTH 960 0
DWIDTH 16 0
BBX 14 13 2 -2
BITMAP
7FF0
0C30
0C60
0C60
181C
FFFC
0300
0300
0300
3300
3300
3000
3FE0
ENDCHAR
STARTCHAR K+325C
ENCODING 12892
SWIDTH 960 0
DWIDTH 16 0
BBX 15 13 1 -2
BITMAP
7FF8
0618
0630
0030
FFFE
0300
0300
1FE0
0060
1FE0
0C00
0C00
07F0
ENDCHAR
STARTCHAR K+325D
ENCODING 12893
SWIDTH 960 0
DWIDTH 16 0
BBX 14 13 2 -2
BITMAP
03F0
3C60
0C60
1800
FFFC
0300
3EE0
0C00
7FF0
39E0
3330
3F60
01E0
ENDCHAR
STARTCHAR K+325E
ENCODING 12894
SWIDTH 960 0
DWIDTH 16 0
BBX 14 13 2 -2
BITMAP
01F0
7C30
0C30
0C60
07FC
FF00
0300
0300
1FE0
1860
1860
1FE0
1800
ENDCHAR
STARTCHAR K+325F
ENCODING 12895
SWIDTH 960 0
DWIDTH 16 0
BBX 15 13 1 -2
BITMAP
3EF8
0618
0630
0C30
FFFE
01B0
0300
1860
0C60
0FE0
0C60
0FE0
0C60
ENDCHAR
STARTCHAR K+3260
ENCODING 12896
SWIDTH 960 0
DWIDTH 16 0
BBX 15 13 1 -2
BITMAP
3FF8
0618
0630
0C30
0C60
FFFE
0180
0180
0300
0180
0380
06F0
1C38
ENDCHAR
STARTCHAR K+3261
ENCODING 12897
SWIDTH 960 0
DWIDTH 16 0
BBX 14 13 2 -2
BITMAP
7E00
0CF0
0C30
0C60
FFFC
0360
0300
0300
0FC0
18C0
18C0
1DC0
0F80
ENDCHAR
STARTCHAR K+3262
ENCODING 12898
SWIDTH 960 0
DWIDTH 16 0
BBX 14 14 2 -3
BITMAP
7FF0
0C30
0C60
1860
FFFC
0360
0300
0300
7FF0
0300
0700
0DC0
1870
3000
ENDCHAR
STARTCHAR K+3263
ENCODING 12899
SWIDTH 960 0
DWIDTH 16 0
BBX 12 14 2 -2
BITMAP
0070
0030
FFB0
31B0
3330
3330
03B0
FE30
0FF0
0C30
0C30
0C30
0030
0030
ENDCHAR
STARTCHAR K+3264
ENCODING 12900
SWIDTH 960 0
DWIDTH 16 0
BBX 13 14 2 -2
BITMAP
0070
0030
7BB0
19B0
1B30
37B0
FC30
0CF0
0C00
1FF0
0060
1FF0
0C00
0FF8
ENDCHAR
STARTCHAR K+3265
ENCODING 12901
SWIDTH 960 0
DWIDTH 16 0
BBX 14 14 1 -2
BITMAP
0038
0018
3BD8
1998
1998
FFD8
36F8
0618
0060
0630
0E30
0F78
39CC
618C
ENDCHAR
STARTCHAR K+3266
ENCODING 12902
SWIDTH 960 0
DWIDTH 16 0
BBX 12 14 2 -2
BITMAP
0070
0030
FFB0
19B0
1B30
37B0
FC30
0DF0
0C30
01C0
0770
0630
0770
03E0
ENDCHAR
STARTCHAR K+3267
ENCODING 12903
SWIDTH 960 0
DWIDTH 16 0
BBX 13 14 1 -2
BITMAP
0038
00F8
0078
7F78
1B78
1B78
01F8
FF78
0FF8
0C78
0C78
0C78
0078
0018
ENDCHAR
STARTCHAR K+3268
ENCODING 12904
SWIDTH 960 0
DWIDTH 16 0
BBX 12 14 2 -2
BITMAP
0070
01F0
00F0
7EF0
36F0
66F0
6EF0
F8F0
1BF0
3FF0
0030
0030
0030
0030
ENDCHAR
STARTCHAR K+3269
ENCODING 12905
SWIDTH 960 0
DWIDTH 16 0
BBX 13 14 2 -2
BITMAP
0060
01F0
00F0
FFF0
36F0
36F0
36F0
FCF0
1FF0
18F0
1C30
0C30
0C00
0FF8
ENDCHAR
STARTCHAR K+326A
ENCODING 12906
SWIDTH 960 0
DWIDTH 16 0
BBX 12 14 3 -2
BITMAP
00E0
03E0
01E0
EFE0
6DE0
6DE0
FDE0
F7E0
3000
1FE0
0060
1FE0
0C00
0FF0
ENDCHAR
STARTCHAR K+326B
ENCODING 12907
SWIDTH 960 0
DWIDTH 16 0
BBX 12 15 2 -3
BITMAP
00E0
00F0
00F0
FEF0
36F0
36F0
7EF0
FFF0
1BF0
0FF0
0C60
0C60
0C60
0FE0
0C00
ENDCHAR
STARTCHAR K+326C
ENCODING 12908
SWIDTH 960 0
DWIDTH 16 0
BBX 13 14 1 -2
BITMAP
0038
0078
0078
7778
3678
3678
FE78
7BF8
0C38
0618
07F8
0618
07F8
0618
ENDCHAR
STARTCHAR K+326D
ENCODING 12909
SWIDTH 960 0
DWIDTH 16 0
BBX 14 14 1 -2
BITMAP
0038
0078
0078
3F78
1B78
3378
FF78
0FF8
0C18
0630
0630
0F70
1DDC
318C
ENDCHAR
STARTCHAR K+326E
ENCODING 12910
SWIDTH 960 0
DWIDTH 16 0
BBX 13 14 1 -2
BITMAP
0038
0018
7FD8
0CD8
18D8
1998
19F8
FFD8
0618
0618
0618
0618
0618
0018
ENDCHAR
STARTCHAR K+326F
ENCODING 12911
SWIDTH 960 0
DWIDTH 16 0
BBX 13 14 2 -2
BITMAP
0070
0030
7BB0
19B0
31B0
3370
FFF0
0C30
0C30
0C30
1C30
0C00
0C00
0FF8
ENDCHAR
STARTCHAR K+3270
ENCODING 12912
SWIDTH 960 0
DWIDTH 16 0
BBX 14 14 1 -2
BITMAP
0038
0018
3FD8
0D98
1998
DFF8
7E18
0618
0FF8
0030
0030
0FF0
0600
07FC
ENDCHAR
STARTCHAR K+3271
ENCODING 12913
SWIDTH 960 0
DWIDTH 16 0
BBX 12 14 2 -2
BITMAP
0070
0030
7BB0
19B0
1B30
31F0
FF30
0C30
0000
0FE0
0C60
0C60
0FE0
0C00
ENDCHAR
STARTCHAR K+3272
ENCODING 12914
SWIDTH 960 0
DWIDTH 16 0
BBX 11 15 3 -3
BITMAP
00E0
0060
7760
3360
3360
3FE0
F860
1860
18E0
0C60
0FE0
0C60
0C60
0FE0
0C60
ENDCHAR
STARTCHAR K+3273
ENCODING 12915
SWIDTH 960 0
DWIDTH 16 0
BBX 15 15 1 -3
BITMAP
0618
7FF8
0618
0C30
0C30
1830
CFFE
7C60
0C60
0C60
0C60
0C60
0C60
0C60
0060
ENDCHAR
STARTCHAR K+3274
ENCODING 12916
SWIDTH 960 0
DWIDTH 16 0
BBX 15 9 1 1
BITMAP
0018
3EF8
0618
0618
0C30
0C30
0C30
0C0C
FFFE
ENDCHAR
STARTCHAR K+3275
ENCODING 12917
SWIDTH 960 0
DWIDTH 16 0
BBX 15 13 1 -2
BITMAP
3FF8
0618
0C18
0C30
0C30
EFFE
3800
3FF0
0030
0030
0030
0030
0030
ENDCHAR
STARTCHAR K+3276
ENCODING 12918
SWIDTH 960 0
DWIDTH 16 0
BBX 15 12 1 -1
BITMAP
3FF8
0618
0618
0C30
0C3C
FFFE
0000
3800
1800
1800
1800
1FF8
ENDCHAR
STARTCHAR K+3277
ENCODING 12919
SWIDTH 960 0
DWIDTH 16 0
BBX 15 13 1 -2
BITMAP
3FF8
0618
0618
0C00
EFFE
3800
01F0
1800
1BF8
19B0
1B98
1F98
00F8
ENDCHAR
STARTCHAR K+3278
ENCODING 12920
SWIDTH 960 0
DWIDTH 16 0
BBX 15 12 1 -1
BITMAP
7FFC
0618
0618
0C18
0C1E
FFF0
0000
1FF0
0030
1FF0
0C00
0FF8
ENDCHAR
STARTCHAR K+3279
ENCODING 12921
SWIDTH 960 0
DWIDTH 16 0
BBX 15 13 1 -2
BITMAP
3F1C
067C
0618
0618
0C30
FFFE
0000
1FF8
06D8
1FD8
18D8
1FF8
0CC0
ENDCHAR
STARTCHAR K+327A
ENCODING 12922
SWIDTH 960 0
DWIDTH 16 0
BBX 15 13 1 -2
BITMAP
3FF8
0618
0618
0C30
FFFE
00F0
3E00
0DF8
7EF0
3198
3198
3D98
00F0
ENDCHAR
STARTCHAR K+327B
ENCODING 12923
SWIDTH 960 0
DWIDTH 16 0
BBX 15 13 1 -2
BITMAP
1EF8
3618
0618
0C30
0C30
FFFE
0000
1FF0
0C30
0C60
0C60
0FF0
0C00
ENDCHAR
STARTCHAR K+327C
ENCODING 12924
SWIDTH 960 0
DWIDTH 16 0
BBX 15 13 1 -2
BITMAP
3FFC
0618
0618
0618
0C30
C7FE
7C00
1C30
0C30
0FF0
0C30
0FF0
0C30
ENDCHAR
STARTCHAR K+327D
ENCODING 12925
SWIDTH 960 0
DWIDTH 16 0
BBX 15 13 1 -2
BITMAP
3FF8
0618
0618
0630
0C30
FFFE
0000
0380
0380
03C0
0670
1C38
7000
ENDCHAR
STARTCHAR K+327E
ENCODING 12926
SWIDTH 960 0
DWIDTH 16 0
BBX 15 13 1 -2
BITMAP
7FF8
0618
0C18
0C30
0C30
CFFE
7800
0180
07C0
0C60
0C60
0EE0
03C0
ENDCHAR
STARTCHAR K+3321
ENCODING 13089
SWIDTH 960 0
DWIDTH 16 0
BBX 15 12 1 -1
BITMAP
3FF8
0618
0630
0C30
FFFE
0000
0000
1FF0
0C00
0FF0
0C00
0FF8
ENDCHAR
STARTCHAR K+3322
ENCODING 13090
SWIDTH 960 0
DWIDTH 16 0
BBX 12 14 2 -2
BITMAP
0070
0030
0030
FFF0
19B0
19B0
3330
3330
6630
C630
0C30
1830
0030
0030
ENDCHAR
STARTCHAR K+3323
ENCODING 13091
SWIDTH 960 0
DWIDTH 16 0
BBX 12 14 2 -2
BITMAP
0070
0030
FFB0
19B0
3330
3330
6630
0C30
1800
3FF0
0030
0030
0030
0030
ENDCHAR
STARTCHAR K+3324
ENCODING 13092
SWIDTH 960 0
DWIDTH 16 0
BBX 13 14 2 -2
BITMAP
0070
0030
FBB0
1FB0
3330
6330
C630
0C30
1830
1830
0C30
0C00
0C00
0FF8
ENDCHAR
STARTCHAR K+3325
ENCODING 13093
SWIDTH 960 0
DWIDTH 16 0
BBX 12 14 2 -2
BITMAP
0070
0030
7FB0
3330
6330
6630
CC30
1800
0FE0
0060
1FF0
0C00
0C00
07F0
ENDCHAR
STARTCHAR K+3326
ENCODING 13094
SWIDTH 960 0
DWIDTH 16 0
BBX 13 14 1 -2
BITMAP
0038
0018
7FD8
1D98
1998
3318
6618
C618
1C00
07F8
0630
0630
07F0
0600
ENDCHAR
STARTCHAR K+3327
ENCODING 13095
SWIDTH 960 0
DWIDTH 16 0
BBX 13 14 1 -2
BITMAP
0038
0018
7FD8
0CD8
1998
3198
6318
C618
0C38
0618
07F8
0618
07F8
0618
ENDCHAR
STARTCHAR K+3328
ENCODING 13096
SWIDTH 960 0
DWIDTH 16 0
BBX 13 14 2 -2
BITMAP
0070
0030
FFB0
19B0
1B30
3330
6630
CC30
1BB0
01B0
0380
06E0
0C30
1818
ENDCHAR
STARTCHAR K+3329
ENCODING 13097
SWIDTH 960 0
DWIDTH 16 0
BBX 12 14 2 -2
BITMAP
0070
0030
FFF0
19B0
19B0
3330
6630
0C30
1830
03E0
0630
0630
0770
03E0
ENDCHAR
STARTCHAR K+332A
ENCODING 13098
SWIDTH 960 0
DWIDTH 16 0
BBX 14 14 1 -2
BITMAP
0070
0030
0030
F030
3030
3030
3030
303C
33F0
3E30
0030
0030
0030
0030
ENDCHAR
STARTCHAR K+332B
ENCODING 13099
SWIDTH 960 0
DWIDTH 16 0
BBX 13 15 2 -3
BITMAP
00E0
0060
E060
6060
6060
63F8
7E60
0060
03E0
3E60
0060
0060
0060
0060
0060
ENDCHAR
STARTCHAR K+332C
ENCODING 13100
SWIDTH 960 0
DWIDTH 16 0
BBX 14 14 2 -2
BITMAP
00E0
0060
E060
6060
607C
63F0
7E60
0000
FFE0
0C60
0C60
0C60
0C60
0C60
ENDCHAR
STARTCHAR K+332D
ENCODING 13101
SWIDTH 960 0
DWIDTH 16 0
BBX 15 13 1 -1
BITMAP
0070
0030
F030
3030
3030
303E
31F8
3F30
1830
0C30
0C30
0C00
0FF8
ENDCHAR
STARTCHAR K+332E
ENCODING 13102
SWIDTH 960 0
DWIDTH 16 0
BBX 14 14 2 -2
BITMAP
00E0
0060
E060
6060
6060
60FC
7FE0
0060
0060
31E0
1F00
1800
1800
0FF0
ENDCHAR
STARTCHAR K+332F
ENCODING 13103
SWIDTH 960 0
DWIDTH 16 0
BBX 14 14 2 -2
BITMAP
00E0
0060
E060
6060
607C
63E0
7E60
0000
1FF0
0060
0FF0
0C00
0C00
07F0
ENDCHAR
STARTCHAR K+3330
ENCODING 13104
SWIDTH 960 0
DWIDTH 16 0
BBX 14 14 2 -2
BITMAP
00E0
0060
E060
6060
60FC
7FF0
3060
0000
3FE0
0C60
3860
3060
3E60
0060
ENDCHAR
STARTCHAR K+3331
ENCODING 13105
SWIDTH 960 0
DWIDTH 16 0
BBX 14 14 2 -2
BITMAP
00E0
0060
E060
6060
607C
63F0
7E60
0000
7FF0
0DB0
7FB0
31B0
37F0
3D80
ENDCHAR
STARTCHAR K+3332
ENCODING 13106
SWIDTH 960 0
DWIDTH 16 0
BBX 13 14 3 -2
BITMAP
01C0
00C0
C0C0
C0C0
C0D8
C7F0
FCC0
00C0
0000
3FC0
3180
3180
3F80
3000
ENDCHAR
STARTCHAR K+3333
ENCODING 13107
SWIDTH 960 0
DWIDTH 16 0
BBX 14 14 2 -2
BITMAP
00E0
0060
E060
6060
607C
67F0
7C60
0000
1860
0C60
0FE0
0C60
0FE0
0C60
ENDCHAR
STARTCHAR K+3334
ENCODING 13108
SWIDTH 960 0
DWIDTH 16 0
BBX 14 14 2 -2
BITMAP
00E0
0060
0060
E060
6060
607C
63E0
7E60
0360
0180
0380
06E0
0C30
3818
ENDCHAR
STARTCHAR K+3335
ENCODING 13109
SWIDTH 960 0
DWIDTH 16 0
BBX 14 14 2 -2
BITMAP
00E0
0060
0060
E060
6060
607C
63E0
7E60
1CE0
0C60
0CE0
1EE0
31B8
6318
ENDCHAR
STARTCHAR K+3336
ENCODING 13110
SWIDTH 960 0
DWIDTH 16 0
BBX 14 14 2 -2
BITMAP
00E0
0060
E060
6060
6060
607C
67E0
7C60
0180
07C0
0C60
0C60
0EE0
07C0
ENDCHAR
STARTCHAR K+3337
ENCODING 13111
SWIDTH 960 0
DWIDTH 16 0
BBX 14 14 2 -2
BITMAP
00E0
0060
E060
6060
607C
63F0
7E60
0060
3FF0
0180
0380
06E0
1C30
3000
ENDCHAR
STARTCHAR K+3338
ENCODING 13112
SWIDTH 960 0
DWIDTH 16 0
BBX 14 15 2 -3
BITMAP
00E0
0060
E060
6060
607C
63F0
7E60
07C0
0000
3FF8
0380
0380
06E0
1C38
3000
ENDCHAR
STARTCHAR K+3339
ENCODING 13113
SWIDTH 960 0
DWIDTH 16 0
BBX 14 13 2 -1
BITMAP
00E0
0060
E060
6060
607C
63F0
7E60
0000
1FE0
1800
1FE0
1800
1FF0
ENDCHAR
STARTCHAR K+333A
ENCODING 13114
SWIDTH 960 0
DWIDTH 16 0
BBX 14 14 2 -2
BITMAP
00E0
0060
E060
6060
607C
6FE0
7860
03C0
3FF8
07C0
0660
0C60
0660
03C0
ENDCHAR
STARTCHAR K+333B
ENCODING 13115
SWIDTH 960 0
DWIDTH 16 0
BBX 13 15 1 -3
BITMAP
0038
01D8
00D8
F0D8
30D8
30D8
30D8
30F8
30D8
3FD8
00D8
00D8
00D8
00D8
0018
ENDCHAR
STARTCHAR K+333C
ENCODING 13116
SWIDTH 960 0
DWIDTH 16 0
BBX 12 15 2 -3
BITMAP
0070
03B0
E1B0
61B0
61B0
61F0
67B0
7DB0
01B0
1FF0
1830
0030
0030
0030
0030
ENDCHAR
STARTCHAR K+333D
ENCODING 13117
SWIDTH 960 0
DWIDTH 16 0
BBX 12 14 3 -2
BITMAP
00E0
0760
0360
C360
C360
C360
CFE0
FB60
0360
0360
1860
1800
1800
1FF0
ENDCHAR
STARTCHAR K+333E
ENCODING 13118
SWIDTH 960 0
DWIDTH 16 0
BBX 13 14 2 -2
BITMAP
0060
03B0
E1B0
61B0
61B0
61F0
6FB0
79B0
1FF0
0030
1FF0
0C00
0C00
0FF8
ENDCHAR
STARTCHAR K+333F
ENCODING 13119
SWIDTH 960 0
DWIDTH 16 0
BBX 12 14 2 -2
BITMAP
0370
01B0
E1B0
61B0
61B0
61F0
6FB0
79B0
0180
1FF0
0C30
0C60
0C30
0FE0
ENDCHAR
STARTCHAR K+3340
ENCODING 13120
SWIDTH 960 0
DWIDTH 16 0
BBX 12 14 2 -2
BITMAP
0070
03B0
E1B0
61B0
61B0
61F0
63B0
7FB0
1870
0C30
0FF0
0C30
0FF0
0C30
ENDCHAR
STARTCHAR K+3341
ENCODING 13121
SWIDTH 960 0
DWIDTH 16 0
BBX 12 14 3 -2
BITMAP
00E0
0760
0360
C360
C360
C360
C7E0
DF60
F760
0360
0700
0FC0
1860
7030
ENDCHAR
STARTCHAR K+3342
ENCODING 13122
SWIDTH 960 0
DWIDTH 16 0
BBX 13 14 2 -2
BITMAP
0370
01B0
E1B0
61B0
61B0
61F0
6FB0
79B0
1860
0E60
0E60
1BF0
3398
6318
ENDCHAR
STARTCHAR K+3343
ENCODING 13123
SWIDTH 960 0
DWIDTH 16 0
BBX 12 14 2 -2
BITMAP
0070
03B0
E1B0
61B0
61B0
61F0
63B0
7FB0
00F0
03E0
0630
0630
0770
03E0
ENDCHAR
STARTCHAR K+3344
ENCODING 13124
SWIDTH 960 0
DWIDTH 16 0
BBX 14 14 2 -2
BITMAP
00E0
0060
0060
E060
606C
6078
6060
6060
67E0
7C78
0060
0060
0060
0060
ENDCHAR
STARTCHAR K+3345
ENCODING 13125
SWIDTH 960 0
DWIDTH 16 0
BBX 14 15 2 -3
BITMAP
0070
0030
C030
603C
6038
60F0
7FBC
0038
0000
3FE0
0060
0060
0060
0060
0060
ENDCHAR
STARTCHAR K+3346
ENCODING 13126
SWIDTH 960 0
DWIDTH 16 0
BBX 14 14 2 -2
BITMAP
00E0
0060
0060
E060
607C
6060
61E0
7F60
0078
0060
1C60
0C00
0C00
0FF8
ENDCHAR
STARTCHAR K+3347
ENCODING 13127
SWIDTH 960 0
DWIDTH 16 0
BBX 14 14 2 -2
BITMAP
0070
0030
E030
603C
6030
60F0
7FBC
0030
1FF0
0030
0060
0FF0
0C00
0FF8
ENDCHAR
STARTCHAR K+3348
ENCODING 13128
SWIDTH 960 0
DWIDTH 16 0
BBX 13 14 3 -2
BITMAP
01C0
00C0
C0C0
C0F8
C0E0
C7C0
FCF8
00C0
0000
1FE0
18C0
18C0
1FC0
1800
ENDCHAR
STARTCHAR K+3349
ENCODING 13129
SWIDTH 960 0
DWIDTH 16 0
BBX 14 14 2 -2
BITMAP
00E0
0060
E060
6060
6078
60E0
6FE0
787C
0060
07C0
0C60
0C60
0EE0
07C0
ENDCHAR
STARTCHAR K+334A
ENCODING 13130
SWIDTH 960 0
DWIDTH 16 0
BBX 12 14 2 -2
BITMAP
0070
0030
0030
E030
6030
67F0
6030
6030
61B0
7F30
0030
0030
0030
0030
ENDCHAR
STARTCHAR K+334B
ENCODING 13131
SWIDTH 960 0
DWIDTH 16 0
BBX 12 15 2 -3
BITMAP
0070
0030
E030
63F0
6030
6030
6730
7C30
0000
1FF0
0030
0030
0030
0030
0030
ENDCHAR
STARTCHAR K+334C
ENCODING 13132
SWIDTH 960 0
DWIDTH 16 0
BBX 13 14 2 -2
BITMAP
0070
0030
E030
63F0
6030
61B0
7F30
0030
0E60
3E60
06E0
06F0
0798
0700
ENDCHAR
STARTCHAR K+334D
ENCODING 13133
SWIDTH 960 0
DWIDTH 16 0
BBX 13 13 2 -1
BITMAP
0060
0030
E030
6030
63F0
6030
63B0
7E30
0030
3830
1830
1800
1FF8
ENDCHAR
STARTCHAR K+334E
ENCODING 13134
SWIDTH 960 0
DWIDTH 16 0
BBX 13 14 2 -2
BITMAP
0060
0030
E030
63F0
6030
61B0
7F30
0030
0FF0
0060
1FF0
0C00
0C00
0FF8
ENDCHAR
STARTCHAR K+334F
ENCODING 13135
SWIDTH 960 0
DWIDTH 16 0
BBX 12 14 2 -2
BITMAP
00E0
0070
E030
63F0
6030
6030
7E30
0030
7FF0
07B0
7FB0
39B0
33F0
3F80
ENDCHAR
STARTCHAR K+3350
ENCODING 13136
SWIDTH 960 0
DWIDTH 16 0
BBX 11 14 3 -2
BITMAP
00E0
0060
C060
C3E0
C060
C660
FC60
0760
FF60
1BE0
FF60
7360
6FE0
7B60
ENDCHAR
STARTCHAR K+3351
ENCODING 13137
SWIDTH 960 0
DWIDTH 16 0
BBX 12 14 2 -2
BITMAP
0070
0030
E030
63F0
6030
6030
6F30
7830
0000
1FF0
0C30
0C60
0FF0
0C00
ENDCHAR
STARTCHAR K+3352
ENCODING 13138
SWIDTH 960 0
DWIDTH 16 0
BBX 12 15 2 -3
BITMAP
0070
0030
E030
63F0
6030
6030
63B0
7E30
1C30
0C30
0FF0
0C30
0C30
0FF0
0C30
ENDCHAR
STARTCHAR K+3353
ENCODING 13139
SWIDTH 960 0
DWIDTH 16 0
BBX 13 14 2 -2
BITMAP
0070
0030
E030
63F0
6030
6030
63B0
7E30
0330
01B0
0380
06E0
0C30
3818
ENDCHAR
STARTCHAR K+3354
ENCODING 13140
SWIDTH 960 0
DWIDTH 16 0
BBX 13 14 2 -2
BITMAP
0070
0030
E030
63F0
6030
6030
6F30
7830
1C60
0E70
0C60
1FF0
3398
6300
ENDCHAR
STARTCHAR K+3355
ENCODING 13141
SWIDTH 960 0
DWIDTH 16 0
BBX 12 14 2 -2
BITMAP
0070
0030
E030
63F0
6030
6030
6F30
7830
01B0
07E0
0C30
0C30
0E70
07E0
ENDCHAR
STARTCHAR K+3356
ENCODING 13142
SWIDTH 960 0
DWIDTH 16 0
BBX 13 14 2 -2
BITMAP
0070
0030
E030
61F0
6030
6330
7E30
07C0
3F78
0180
07E0
0C60
0660
07C0
ENDCHAR
STARTCHAR K+3357
ENCODING 13143
SWIDTH 960 0
DWIDTH 16 0
BBX 13 14 1 -2
BITMAP
0038
01D8
00D8
F0D8
30D8
30D8
33D8
30D8
33D8
3ED8
00D8
00D8
00D8
0018
ENDCHAR
STARTCHAR K+3358
ENCODING 13144
SWIDTH 960 0
DWIDTH 16 0
BBX 12 14 2 -2
BITMAP
0070
01B0
E1B0
61B0
67B0
61B0
6FB0
79B0
0000
1FF0
0030
0030
0030
0030
ENDCHAR
STARTCHAR K+3359
ENCODING 13145
SWIDTH 960 0
DWIDTH 16 0
BBX 13 14 2 -2
BITMAP
0070
03B0
01B0
E1B0
61B0
67B0
61B0
7DB0
71B0
01B0
0C30
0C00
0C00
0FF8
ENDCHAR
STARTCHAR K+335A
ENCODING 13146
SWIDTH 960 0
DWIDTH 16 0
BBX 13 14 2 -2
BITMAP
0070
03B0
C1B0
61B0
67B0
61B0
67B0
7DB0
0000
1FF0
0030
1FF0
0C00
0FF8
ENDCHAR
STARTCHAR K+335B
ENCODING 13147
SWIDTH 960 0
DWIDTH 16 0
BBX 11 15 3 -3
BITMAP
00E0
0760
0360
C360
DF60
C360
CF60
FB60
0360
3FE0
18C0
18C0
18C0
1FC0
1800
ENDCHAR
STARTCHAR K+335C
ENCODING 13148
SWIDTH 960 0
DWIDTH 16 0
BBX 11 15 3 -3
BITMAP
00E0
0760
0360
C360
FF60
C360
CF60
FB60
30E0
1860
1FE0
1860
1860
1FE0
1860
ENDCHAR
STARTCHAR K+335D
ENCODING 13149
SWIDTH 960 0
DWIDTH 16 0
BBX 13 14 2 -2
BITMAP
0070
03B0
01B0
E1B0
63B0
67B0
61B0
6DB0
7830
01B0
0380
07E0
0C30
1818
ENDCHAR
STARTCHAR K+335E
ENCODING 13150
SWIDTH 960 0
DWIDTH 16 0
BBX 12 14 3 -2
BITMAP
00E0
0760
0360
C360
DF60
C360
CF60
FB60
03E0
1CC0
18C0
3DE0
6730
C600
ENDCHAR
STARTCHAR K+335F
ENCODING 13151
SWIDTH 960 0
DWIDTH 16 0
BBX 11 14 3 -2
BITMAP
00E0
0760
0360
C360
DF60
C360
CF60
FB60
0060
0780
1CE0
1860
1CE0
0FC0
ENDCHAR
STARTCHAR K+3360
ENCODING 13152
SWIDTH 960 0
DWIDTH 16 0
BBX 12 14 2 -2
BITMAP
0070
0030
C030
63F0
6030
6030
63F0
6030
6330
7E30
0030
0030
0030
0030
ENDCHAR
STARTCHAR K+3361
ENCODING 13153
SWIDTH 960 0
DWIDTH 16 0
BBX 12 15 2 -3
BITMAP
0070
0030
E030
61F0
6030
6330
7FF0
0030
0000
3FF0
0030
0030
0030
0030
0030
ENDCHAR
STARTCHAR K+3362
ENCODING 13154
SWIDTH 960 0
DWIDTH 16 0
BBX 15 13 1 -1
BITMAP
0038
0018
F018
31F8
3018
3018
3338
3EF8
0018
0618
0600
0600
07FE
ENDCHAR
STARTCHAR K+3363
ENCODING 13155
SWIDTH 960 0
DWIDTH 16 0
BBX 14 14 1 -2
BITMAP
0038
0018
F018
30F8
3018
3018
30F8
3E18
0000
0FF8
0018
0FF8
0600
07FC
ENDCHAR
STARTCHAR K+3364
ENCODING 13156
SWIDTH 960 0
DWIDTH 16 0
BBX 13 15 1 -3
BITMAP
0038
0018
F018
30F8
3018
3198
37F8
3C18
0000
0FF8
0618
0630
0630
07F8
0600
ENDCHAR
STARTCHAR K+3365
ENCODING 13157
SWIDTH 960 0
DWIDTH 16 0
BBX 13 15 1 -3
BITMAP
0038
0018
F018
30F8
3018
3018
30F8
3E18
0638
0318
03F8
0318
0318
03F8
0318
ENDCHAR
STARTCHAR K+3366
ENCODING 13158
SWIDTH 960 0
DWIDTH 16 0
BBX 13 14 2 -2
BITMAP
0070
0030
E030
61F0
6030
6330
7FF0
3030
18C0
0E60
0C60
1EF0
3398
6318
ENDCHAR
STARTCHAR K+3367
ENCODING 13159
SWIDTH 960 0
DWIDTH 16 0
BBX 12 14 2 -2
BITMAP
0070
0030
E030
61F0
6030
6330
7FF0
7030
0030
03E0
0630
0630
0770
03E0
ENDCHAR
STARTCHAR K+3368
ENCODING 13160
SWIDTH 960 0
DWIDTH 16 0
BBX 12 15 2 -3
BITMAP
0070
0030
E030
61F0
6030
6030
67F0
7C30
0030
1FF0
0030
03E0
1E60
00C0
00C0
ENDCHAR
STARTCHAR K+3369
ENCODING 13161
SWIDTH 960 0
DWIDTH 16 0
BBX 12 14 2 -2
BITMAP
0070
03B0
01B0
E1B0
6FB0
61B0
61B0
67B0
67B0
7DB0
01B0
01B0
01B0
0030
ENDCHAR
STARTCHAR K+336A
ENCODING 13162
SWIDTH 960 0
DWIDTH 16 0
BBX 14 14 1 -2
BITMAP
0038
0198
00D8
F0D8
37D8
30D8
37D8
37D8
3CD8
0CD8
0618
0600
0600
07FC
ENDCHAR
STARTCHAR K+336B
ENCODING 13163
SWIDTH 960 0
DWIDTH 16 0
BBX 14 9 2 1
BITMAP
7000
3000
3000
3030
3FF8
0300
0300
0300
FFFC
ENDCHAR
STARTCHAR K+336C
ENCODING 13164
SWIDTH 960 0
DWIDTH 16 0
BBX 15 13 1 -2
BITMAP
3800
1800
1800
0FF8
0180
FFFE
0000
0000
3FF0
0030
0030
0030
0030
ENDCHAR
STARTCHAR K+336D
ENCODING 13165
SWIDTH 960 0
DWIDTH 16 0
BBX 15 12 1 -1
BITMAP
3800
1800
1818
0FF8
0180
0180
FFFE
0000
3800
1800
1800
1FF8
ENDCHAR
STARTCHAR K+336E
ENCODING 13166
SWIDTH 960 0
DWIDTH 16 0
BBX 15 12 1 -1
BITMAP
3800
1800
1830
0FF8
0180
FFFE
0000
3FF0
0060
3FE0
1800
1FF8
ENDCHAR
STARTCHAR K+336F
ENCODING 13167
SWIDTH 960 0
DWIDTH 16 0
BBX 14 12 2 -1
BITMAP
7000
3000
3000
1FF0
0300
FFFC
0000
0000
3FF0
7FB0
39E0
3DE0
ENDCHAR
STARTCHAR K+3370
ENCODING 13168
SWIDTH 960 0
DWIDTH 16 0
BBX 15 13 1 -2
BITMAP
3800
1800
1800
0FF8
0180
01FE
FF86
0000
0FF0
0C30
0C60
0FF0
0C00
ENDCHAR
STARTCHAR K+3371
ENCODING 13169
SWIDTH 960 0
DWIDTH 16 0
BBX 15 14 1 -2
BITMAP
3800
1800
1830
0FF8
0300
0300
FFFE
0000
18E0
0C60
0FE0
0C60
0FE0
0C60
ENDCHAR
STARTCHAR K+3372
ENCODING 13170
SWIDTH 960 0
DWIDTH 16 0
BBX 15 13 1 -2
BITMAP
3800
1800
1830
0FF8
0300
0300
FFFE
0000
0180
0380
06E0
0C38
3818
ENDCHAR
STARTCHAR K+3373
ENCODING 13171
SWIDTH 960 0
DWIDTH 16 0
BBX 15 13 1 -2
BITMAP
3800
1800
1800
0FF8
0180
01FE
FF80
0180
07C0
0C60
0C60
0EE0
03C0
ENDCHAR
STARTCHAR K+3374
ENCODING 13172
SWIDTH 960 0
DWIDTH 16 0
BBX 14 13 2 -1
BITMAP
7000
3000
3000
1FF0
0300
0300
FFFC
0000
0000
3FF0
00C0
0D80
7FF8
ENDCHAR
STARTCHAR K+3375
ENCODING 13173
SWIDTH 960 0
DWIDTH 16 0
BBX 15 13 1 -2
BITMAP
3800
1830
1FF8
0300
FFFE
0000
07C0
0000
3FF8
03C0
0660
0660
07C0
ENDCHAR
STARTCHAR K+3376
ENCODING 13174
SWIDTH 960 0
DWIDTH 16 0
BBX 13 14 2 -2
BITMAP
00E0
0060
E060
6060
6060
7FE0
0C60
0C78
0FE0
FE60
0060
0060
0060
0060
ENDCHAR
STARTCHAR K+3377
ENCODING 13175
SWIDTH 960 0
DWIDTH 16 0
BBX 14 14 2 -2
BITMAP
00E0
0060
E060
6060
63E0
3E60
0C7C
0FE0
F860
0060
1C60
0C00
0C00
0FF8
ENDCHAR
STARTCHAR K+3378
ENCODING 13176
SWIDTH 960 0
DWIDTH 16 0
BBX 14 14 2 -2
BITMAP
00E0
E060
6060
61E0
3F60
0C7C
0FE0
FE60
0000
1FE0
0060
1FE0
0C00
0FF8
ENDCHAR
STARTCHAR K+3379
ENCODING 13177
SWIDTH 960 0
DWIDTH 16 0
BBX 13 14 3 -2
BITMAP
01C0
E0C0
60C0
63C0
7EC0
0CF8
0FE0
FEC0
0000
18C0
18C0
3DC0
6370
C630
ENDCHAR
STARTCHAR K+337A
ENCODING 13178
SWIDTH 960 0
DWIDTH 16 0
BBX 13 14 1 -2
BITMAP
0038
0018
7018
3018
30D8
3F98
0618
0618
07D8
FF18
0018
0018
0018
0018
ENDCHAR
STARTCHAR K+337B
ENCODING 13179
SWIDTH 960 0
DWIDTH 16 0
BBX 13 13 2 -1
BITMAP
0070
0030
7030
3030
3030
3FB0
0630
0DF0
FF30
1C30
0C00
0C00
0FF8
ENDCHAR
STARTCHAR K+337C
ENCODING 13180
SWIDTH 960 0
DWIDTH 16 0
BBX 13 13 2 -1
BITMAP
0070
0030
6030
6030
67B0
3C30
0FF0
FE30
1FF0
0030
0FF0
0C00
0FF8
ENDCHAR
STARTCHAR K+337D
ENCODING 13181
SWIDTH 960 0
DWIDTH 16 0
BBX 12 15 2 -3
BITMAP
0070
0030
3030
3030
3FB0
1E30
0670
FFF0
0030
1FF0
0C70
0C60
0C60
0FF0
0C00
ENDCHAR
STARTCHAR K+337E
ENCODING 13182
SWIDTH 960 0
DWIDTH 16 0
BBX 12 14 2 -2
BITMAP
0070
0030
3030
3030
33B0
1E30
0C70
FFF0
1870
0C30
0FF0
0C30
0FF0
0C30
ENDCHAR
STARTCHAR K+3421
ENCODING 13345
SWIDTH 960 0
DWIDTH 16 0
BBX 13 14 2 -2
BITMAP
0070
0030
3030
3030
31B0
1F30
0C30
FFF0
0030
01B0
0180
03E0
0630
1C18
ENDCHAR
STARTCHAR K+3422
ENCODING 13346
SWIDTH 960 0
DWIDTH 16 0
BBX 14 9 2 1
BITMAP
7000
3000
3000
3078
1FC0
1CE0
0CC0
0CC0
FFFC
ENDCHAR
STARTCHAR K+3423
ENCODING 13347
SWIDTH 960 0
DWIDTH 16 0
BBX 14 14 2 -2
BITMAP
7000
3000
3000
3FF0
0000
19C0
0CC0
FFFC
0000
7FE0
0060
0060
0060
0060
ENDCHAR
STARTCHAR K+3424
ENCODING 13348
SWIDTH 960 0
DWIDTH 16 0
BBX 14 12 2 -1
BITMAP
7000
3000
3000
3FE0
0D80
0D80
FFFC
0000
7000
3000
3000
3FF0
ENDCHAR
STARTCHAR K+3425
ENCODING 13349
SWIDTH 960 0
DWIDTH 16 0
BBX 15 12 1 -1
BITMAP
3800
1800
19F8
0FC0
06C0
FFFE
0000
3FF0
0060
3FE0
1800
1FF8
ENDCHAR
STARTCHAR K+3426
ENCODING 13350
SWIDTH 960 0
DWIDTH 16 0
BBX 15 13 1 -2
BITMAP
3800
1800
1800
1FF0
0CC0
06C0
FFFE
00E0
0C60
0FE0
0C60
0FE0
0C60
ENDCHAR
STARTCHAR K+3427
ENCODING 13351
SWIDTH 960 0
DWIDTH 16 0
BBX 15 14 1 -2
BITMAP
3000
1800
1800
1800
0FF8
06C0
06C0
FFFE
0000
0380
0380
06C0
0C70
3818
ENDCHAR
STARTCHAR K+3428
ENCODING 13352
SWIDTH 960 0
DWIDTH 16 0
BBX 14 13 2 -2
BITMAP
7000
3000
3000
1FF0
0D80
0D80
FFFC
0000
0F80
18C0
18C0
1DC0
0780
ENDCHAR
STARTCHAR K+3429
ENCODING 13353
SWIDTH 960 0
DWIDTH 16 0
BBX 14 14 2 -3
BITMAP
7000
3000
3000
3FF0
0000
0000
FFFC
0300
0300
0300
0300
0300
0300
0300
ENDCHAR
STARTCHAR K+342A
ENCODING 13354
SWIDTH 960 0
DWIDTH 16 0
BBX 14 14 2 -2
BITMAP
7000
3000
3000
3FE0
0000
0000
FFFC
0300
0300
3FE0
0060
0060
0060
0060
ENDCHAR
STARTCHAR K+342B
ENCODING 13355
SWIDTH 960 0
DWIDTH 16 0
BBX 14 13 2 -1
BITMAP
F000
3000
3000
3FF0
0000
0000
FFFC
0300
0300
7300
3300
3000
3FF0
ENDCHAR
STARTCHAR K+342C
ENCODING 13356
SWIDTH 960 0
DWIDTH 16 0
BBX 14 13 2 -2
BITMAP
7000
3000
3000
3FF0
0000
FFFC
0300
0300
1FE0
1800
1800
1800
0FF0
ENDCHAR
STARTCHAR K+342D
ENCODING 13357
SWIDTH 960 0
DWIDTH 16 0
BBX 15 13 1 -2
BITMAP
3800
1830
1FF8
0000
0000
FFFE
0180
1FF0
0030
1FF0
0C00
0C00
0FF8
ENDCHAR
STARTCHAR K+342E
ENCODING 13358
SWIDTH 960 0
DWIDTH 16 0
BBX 14 14 2 -2
BITMAP
7000
3000
3000
3FE0
0000
0000
FFFC
0300
0300
1FE0
1860
18C0
1FE0
1800
ENDCHAR
STARTCHAR K+342F
ENCODING 13359
SWIDTH 960 0
DWIDTH 16 0
BBX 15 13 1 -2
BITMAP
3800
1800
1800
1FF8
0000
FFFE
0180
03E0
0C60
0FE0
0C60
0FE0
0C60
ENDCHAR
STARTCHAR K+3430
ENCODING 13360
SWIDTH 960 0
DWIDTH 16 0
BBX 15 12 1 -1
BITMAP
3800
1800
1838
1FF8
0000
FFFE
0180
0180
0380
0380
06E0
1C38
ENDCHAR
STARTCHAR K+3431
ENCODING 13361
SWIDTH 960 0
DWIDTH 16 0
BBX 15 13 1 -2
BITMAP
3800
1800
1800
1FF8
0000
FFFE
0180
0300
07C0
0C60
0C60
0EE0
07C0
ENDCHAR
STARTCHAR K+3432
ENCODING 13362
SWIDTH 960 0
DWIDTH 16 0
BBX 13 14 1 -2
BITMAP
0038
0018
7018
3018
3198
3F98
0018
DFD8
7618
06F8
0618
0618
0618
0018
ENDCHAR
STARTCHAR K+3433
ENCODING 13363
SWIDTH 960 0
DWIDTH 16 0
BBX 14 14 1 -2
BITMAP
0038
0018
3018
3198
1FD8
0018
FF98
36F8
0618
0638
0630
0F38
19EC
31C0
ENDCHAR
STARTCHAR K+3434
ENCODING 13364
SWIDTH 960 0
DWIDTH 16 0
BBX 12 14 2 -2
BITMAP
0070
01F0
00F0
60F0
60F0
60F0
6FF0
3FF0
FCF0
1BF0
18F0
18F0
00F0
0030
ENDCHAR
STARTCHAR K+3435
ENCODING 13365
SWIDTH 960 0
DWIDTH 16 0
BBX 13 14 1 -2
BITMAP
0038
0018
7018
3018
33D8
1E18
0018
00F8
FF98
0618
0618
0618
0618
0018
ENDCHAR
STARTCHAR K+3436
ENCODING 13366
SWIDTH 960 0
DWIDTH 16 0
BBX 13 14 2 -2
BITMAP
0070
0030
7030
3030
31B0
3FB0
01F0
FF30
0C30
0C30
1C30
0C00
0C00
0FF8
ENDCHAR
STARTCHAR K+3437
ENCODING 13367
SWIDTH 960 0
DWIDTH 16 0
BBX 13 14 2 -2
BITMAP
0070
6030
3030
3030
3F30
0FF0
FC30
0C30
1FF0
0060
1FE0
0C00
0C00
0FF8
ENDCHAR
STARTCHAR K+3438
ENCODING 13368
SWIDTH 960 0
DWIDTH 16 0
BBX 13 15 1 -3
BITMAP
0038
3818
1818
18D8
1FD8
0038
CFF8
7E18
0618
0FF8
0630
0630
0630
07F0
0600
ENDCHAR
STARTCHAR K+3439
ENCODING 13369
SWIDTH 960 0
DWIDTH 16 0
BBX 13 15 1 -3
BITMAP
0038
3818
1818
1818
1FD8
0018
C7F8
7E18
0E38
0618
07F8
0618
0618
07F8
0618
ENDCHAR
STARTCHAR K+343A
ENCODING 13370
SWIDTH 960 0
DWIDTH 16 0
BBX 15 14 1 -2
BITMAP
7800
1800
1800
1800
1FF8
0000
FFFE
0C60
0C60
0C60
0C60
0C60
0C60
0060
ENDCHAR
STARTCHAR K+343B
ENCODING 13371
SWIDTH 960 0
DWIDTH 16 0
BBX 15 13 1 -2
BITMAP
3800
1800
1830
1FF8
0000
FFFE
0660
0660
1FF0
0030
0030
0030
0030
ENDCHAR
STARTCHAR K+343C
ENCODING 13372
SWIDTH 960 0
DWIDTH 16 0
BBX 14 12 2 -1
BITMAP
7000
3000
3000
3FF0
0000
FFFC
18C0
3F80
00C0
3FC0
1800
1FE0
ENDCHAR
STARTCHAR K+343D
ENCODING 13373
SWIDTH 960 0
DWIDTH 16 0
BBX 15 13 1 -2
BITMAP
3800
1800
1FF0
0000
0000
FFFE
0C60
0C60
0FF0
0C60
0C60
0FE0
0C00
ENDCHAR
STARTCHAR K+343E
ENCODING 13374
SWIDTH 960 0
DWIDTH 16 0
BBX 14 14 2 -2
BITMAP
7000
3000
3000
3FF0
0000
0000
FFFC
1980
3980
18C0
1FC0
18C0
1FC0
00C0
ENDCHAR
STARTCHAR K+343F
ENCODING 13375
SWIDTH 960 0
DWIDTH 16 0
BBX 15 13 1 -2
BITMAP
3800
1800
1800
1FF8
0000
FFFE
0C60
0C60
0FE0
0C60
0C60
0EE0
07C0
ENDCHAR
STARTCHAR K+3440
ENCODING 13376
SWIDTH 960 0
DWIDTH 16 0
BBX 15 10 1 0
BITMAP
3800
1800
1800
1818
1FF8
0000
0000
0000
0000
FFFE
ENDCHAR
STARTCHAR K+3441
ENCODING 13377
SWIDTH 960 0
DWIDTH 16 0
BBX 15 13 1 -2
BITMAP
3800
1800
1800
1FF8
0000
0000
FFFE
0000
3FF0
0030
0030
0030
0030
ENDCHAR
STARTCHAR K+3442
ENCODING 13378
SWIDTH 960 0
DWIDTH 16 0
BBX 15 12 1 -1
BITMAP
3800
1800
1838
1FF8
0000
000C
FFFE
0000
1800
1800
1800
1FF8
ENDCHAR
STARTCHAR K+3443
ENCODING 13379
SWIDTH 960 0
DWIDTH 16 0
BBX 15 12 1 -1
BITMAP
3800
1800
1800
1FF8
0000
FFFE
0000
3FF0
0060
3FF0
1800
1FF8
ENDCHAR
ENDFONT
